<svg id="Layer_1" data-name="Layer 1" xmlns="http://www.w3.org/2000/svg" viewBox="0 0 65.94 35.02"><defs><style>.cls-1{fill:#298ca4;}</style></defs><title>coperto</title><path class="cls-1" d="M53.52,11a12.06,12.06,0,0,0-2,.21,16,16,0,0,0-14-8.2h0A16,16,0,0,0,14.2,8.21,12,12,0,1,0,12.2,32h16a15.91,15.91,0,0,0,9.3,3h16a12,12,0,1,0,1-24h-1ZM4.2,20a8,8,0,0,1,12.34-6.71A12,12,0,0,1,28.2,4a11.87,11.87,0,0,1,2.88.37A16,16,0,0,0,24.3,28H12.2a8,8,0,0,1-8-8h0ZM53.52,31h-16A12,12,0,1,1,49.2,16.31,8,8,0,1,1,53.52,31Z" transform="translate(-0.07 -0.01)"/></svg>