<svg id="Layer_1" data-name="Layer 1" xmlns="http://www.w3.org/2000/svg" viewBox="0 0 54 56"><defs><style>.cls-1{fill:#298ca4;}</style></defs><title>foschia</title><path class="cls-1" d="M52,26H48a2,2,0,0,1,0-4h4A2,2,0,0,1,52,26ZM44.14,12.68a2,2,0,0,1-2.83-2.83L44.14,7A2,2,0,0,1,47,9.85ZM41.19,28.29h0A12,12,0,0,1,43.3,32H38.92A8,8,0,0,0,28,29.09l-0.31.19A12,12,0,0,0,4,32H0A16,16,0,0,1,20.52,16.65,12,12,0,0,1,41.19,28.29ZM30,16a8,8,0,0,0-5.66,2.36A16.11,16.11,0,0,1,30,24.2a11.47,11.47,0,0,1,7.88,1.32h0A8,8,0,0,0,30,16Zm0-8a2,2,0,0,1-2-2V2a2,2,0,0,1,4,0V6a2,2,0,0,1-2,2h0ZM15.86,12.68L13,9.85A2,2,0,0,1,15.83,7l2.83,2.83A2,2,0,0,1,15.86,12.68ZM2,36H42a2,2,0,0,1,0,4H2A2,2,0,0,1,2,36Zm0,8H42a2,2,0,0,1,0,4H2A2,2,0,0,1,2,44Zm0,8H42a2,2,0,0,1,0,4H2A2,2,0,0,1,2,52Z" transform="translate(0 0.01)"/></svg>