<svg id="Layer_1" data-name="Layer 1" xmlns="http://www.w3.org/2000/svg" viewBox="0 0 44.79 48.27"><defs><style>.cls-1{fill:#298ca4;}</style></defs><title>neve-forte</title><path class="cls-1" d="M34,31.82V27.74a8,8,0,1,0-6.33-14.45A12,12,0,1,0,10,26.36V30.8A16,16,0,1,1,30,8.21,12,12,0,1,1,34,31.82Z" transform="translate(0 0.03)"/><path class="cls-1" d="M28.44,27.82l-1.31.75a5.21,5.21,0,0,1,0,2.85l1.31,0.75a1.33,1.33,0,0,1-1.33,2.31l-1.3-.75a5.33,5.33,0,0,1-2.47,1.42v1.51a1.33,1.33,0,1,1-2.67,0v-1.5a5.32,5.32,0,0,1-2.47-1.42l-1.3.75a1.33,1.33,0,0,1-1.33-2.31l1.31-.75a5.21,5.21,0,0,1,0-2.85l-1.31-.75a1.33,1.33,0,0,1,1.33-2.31l1.3,0.75a5.32,5.32,0,0,1,2.47-1.42V23.36a1.33,1.33,0,0,1,2.67,0v1.51a5.33,5.33,0,0,1,2.47,1.42l1.3-.75A1.33,1.33,0,0,1,28.44,27.82ZM22,27.36A2.67,2.67,0,1,0,24.67,30h0A2.67,2.67,0,0,0,22,27.36Z" transform="translate(0 0.03)"/><path class="cls-1" d="M17.72,39.26l-1,.59a4,4,0,0,1,0,2.22l1,0.59a1,1,0,0,1-1,1.79l-1-.58A4.14,4.14,0,0,1,13.8,45v1.17a1,1,0,1,1-2.07,0V45a4.14,4.14,0,0,1-1.92-1.11l-1,.58a1,1,0,0,1-1-1.79l1-.59a4,4,0,0,1,0-2.22l-1-.59a1,1,0,0,1,1-1.79l1,0.58a4.14,4.14,0,0,1,1.92-1.11V35.78a1,1,0,1,1,2.07,0v1.17a4.14,4.14,0,0,1,1.92,1.11l1-.58A1,1,0,0,1,17.72,39.26Zm-5-.38A2.07,2.07,0,1,0,14.79,41h0a2.07,2.07,0,0,0-2.08-2.06h0Z" transform="translate(0 0.03)"/><path class="cls-1" d="M31.35,42l-0.81.46a3.21,3.21,0,0,1,0,1.76l0.81,0.46a0.82,0.82,0,0,1-.82,1.42l-0.8-.46a3.28,3.28,0,0,1-1.52.88v0.93a0.82,0.82,0,1,1-1.64,0h0V46.5A3.28,3.28,0,0,1,25,45.62l-0.8.46a0.82,0.82,0,0,1-.82-1.42l0.81-.46a3.21,3.21,0,0,1,0-1.76L23.38,42a0.82,0.82,0,0,1,.82-1.42L25,41a3.28,3.28,0,0,1,1.52-.88V39.2a0.82,0.82,0,1,1,1.64,0h0v0.93a3.28,3.28,0,0,1,1.52.88l0.8-.46A0.83,0.83,0,1,1,31.35,42Zm-4-.3a1.64,1.64,0,1,0,.06,0H27.35Z" transform="translate(0 0.03)"/></svg>