<svg id="Layer_1" data-name="Layer 1" xmlns="http://www.w3.org/2000/svg" viewBox="0 0 44.69 48.54"><defs><style>.cls-1{fill:#298ca4;}</style></defs><title>pioggia-neve</title><path class="cls-1" d="M10.88,36.5L14.4,40a5,5,0,1,1-7.07,0h0Z" transform="translate(-0.03 0)"/><path class="cls-1" d="M34,31.82V27.74a8,8,0,1,0-6.33-14.45A12,12,0,1,0,10,26.38v4.44A16,16,0,1,1,30,8.2,12,12,0,1,1,34,31.82Z" transform="translate(-0.03 0)"/><path class="cls-1" d="M28.44,27.82l-1.31.75a5.21,5.21,0,0,1,0,2.85l1.31,0.75a1.33,1.33,0,0,1-1.33,2.31l-1.3-.75a5.33,5.33,0,0,1-2.47,1.42v1.51a1.34,1.34,0,0,1-2.67,0v-1.5a5.32,5.32,0,0,1-2.47-1.42l-1.3.75a1.33,1.33,0,0,1-1.33-2.31l1.31-.75a5.21,5.21,0,0,1,0-2.85l-1.31-.75a1.33,1.33,0,0,1,1.33-2.31h0l1.3,0.75a5.32,5.32,0,0,1,2.47-1.42V23.33a1.34,1.34,0,1,1,2.67,0h0v1.51a5.33,5.33,0,0,1,2.47,1.42l1.3-.75a1.33,1.33,0,1,1,1.33,2.31h0ZM22,27.33A2.67,2.67,0,1,0,24.67,30h0A2.67,2.67,0,0,0,22,27.33Z" transform="translate(-0.03 0)"/></svg>