<svg id="Layer_1" data-name="Layer 1" xmlns="http://www.w3.org/2000/svg" viewBox="0 0 43.73 44"><defs><style>.cls-1{fill:#298ca4;}</style></defs><title>pioggia-molto-forte</title><path class="cls-1" d="M36,31.3V26.92a8,8,0,1,0-8.33-13.63A12,12,0,1,0,8,24.92v4.92A16,16,0,1,1,30,8.2,12,12,0,0,1,36,31.3ZM14,20a2,2,0,0,1,2,2V38a2,2,0,0,1-4,0V22a2,2,0,0,1,2-2h0Zm8,4a2,2,0,0,1,2,2V42a2,2,0,0,1-4,0V26A2,2,0,0,1,22,24Zm8-4a2,2,0,0,1,2,2V38a2,2,0,0,1-4,0V22A2,2,0,0,1,30,20Z" transform="translate(-0.03 0)"/></svg>