<svg id="Layer_1" data-name="Layer 1" xmlns="http://www.w3.org/2000/svg" viewBox="0 0 43.96 42.48"><defs><style>.cls-1{fill:#298ca4;}</style></defs><title>pioggia-moderata</title><path class="cls-1" d="M32,8a12.06,12.06,0,0,0-2,.21A16,16,0,1,0,8.17,30,6.94,6.94,0,0,1,10,26.5l0.06-.06A12,12,0,1,1,27.66,13.29a8,8,0,1,1,7.1,14.21A7,7,0,0,1,36,31.31,12,12,0,0,0,32,8ZM15,27.21l-2.12,2.15a3,3,0,1,0,4.24,0h0Zm7,8-2.12,2.15a3,3,0,1,0,4.24,0h0Zm7-8-2.12,2.15a3,3,0,1,0,4.24,0h0Z" transform="translate(-0.02 0)"/></svg>