<svg id="Layer_1" data-name="Layer 1" xmlns="http://www.w3.org/2000/svg" viewBox="0 0 54.02 48"><defs><style>.cls-1{fill:#298ca4;}</style></defs><title>poco-nuvoloso</title><path class="cls-1" d="M52,26H48a2,2,0,0,1,0-4h4A2,2,0,1,1,52,26ZM44.13,12.69A2,2,0,0,1,41.3,9.86L44.13,7A2,2,0,0,1,47,9.86ZM41.19,28.3h0A12,12,0,0,1,32,48H16a16,16,0,1,1,4.52-31.34A12,12,0,0,1,41.19,28.3ZM4,32A12,12,0,0,0,16,44H32a8,8,0,1,0-4.33-14.71A12,12,0,0,0,4,32ZM30,16a8,8,0,0,0-5.67,2.36A16.11,16.11,0,0,1,30,24.21a11.47,11.47,0,0,1,7.88,1.32h0A8,8,0,0,0,30,16h0Zm0-8a2,2,0,0,1-2-2V2a2,2,0,0,1,4,0V6a2,2,0,0,1-2,2h0ZM15.85,12.69L13,9.86A2,2,0,0,1,15.88,7l2.83,2.83A2,2,0,1,1,15.85,12.69Z" transform="translate(0.03)"/></svg>