<svg id="Layer_1" data-name="Layer 1" xmlns="http://www.w3.org/2000/svg" viewBox="0 0 53.97 58.48"><defs><style>.cls-1{fill:#298ca4;}</style></defs><title>rovesci</title><path class="cls-1" d="M52,26H48a2,2,0,0,1,0-4h4A2,2,0,0,1,52,26ZM44.13,12.68A2,2,0,0,1,41.3,9.85L44.13,7A2,2,0,0,1,47,9.85ZM41.19,28.29h0A12,12,0,0,1,44,36h0a12,12,0,0,1-8,11.31,7,7,0,0,0-1.22-3.81,8,8,0,1,0-7.1-14.21A12,12,0,1,0,4.68,36h0a12,12,0,0,0,5.4,6.44l0,0.05a7,7,0,0,0-1.87,3.44A16,16,0,0,1,.53,36h0a16,16,0,0,1,20-19.34A12,12,0,0,1,41.19,28.29ZM30,16a8,8,0,0,0-5.66,2.36A16.11,16.11,0,0,1,30,24.2a11.47,11.47,0,0,1,7.88,1.32h0A8,8,0,0,0,30,16Zm0-8a2,2,0,0,1-2-2V2a2,2,0,0,1,4,0V6A2,2,0,0,1,30,8ZM15.85,12.68L13,9.85A2,2,0,0,1,15.88,7l2.83,2.83A2,2,0,1,1,15.85,12.68ZM15,43.2l2.13,2.15a3,3,0,1,1-4.24,0h0Zm7,8,2.12,2.15a3,3,0,1,1-4.24,0h0Zm7-8,2.12,2.15a3,3,0,1,1-4.24,0h0Z" transform="translate(-0.02 0.01)"/></svg>