<svg id="Layer_1" data-name="Layer 1" xmlns="http://www.w3.org/2000/svg" viewBox="0 0 61.88 38.72"><defs><style>.cls-1{fill:#298ca4;}</style></defs><title>tormenta-neve</title><path class="cls-1" d="M42,5.37H4a2,2,0,0,1,0-4H42A2,2,0,1,1,42,5.37Zm-36,4H36a2,2,0,1,1,0,4H6A2,2,0,1,1,6,9.37Zm12,8H40a2,2,0,0,1,0,4H18a2.11,2.11,0,0,1-1.18-2.67A2.63,2.63,0,0,1,18,17.37Zm2,16h6a2,2,0,1,1,0,4H20a2,2,0,0,1-2.24-2A1.92,1.92,0,0,1,20,33.37Zm1-6a2,2,0,0,1,2-2H37a2,2,0,0,1,0,4H23a2,2,0,0,1-2-2h0Z" transform="translate(-0.04 -0.01)"/><path class="cls-1" d="M15.86,26.82l-1.53.88a6.1,6.1,0,0,1,0,3.34l1.53,0.87a1.56,1.56,0,0,1-1.56,2.7l-1.53-.88A6.23,6.23,0,0,1,9.88,35.4v1.77a1.56,1.56,0,0,1-3.12,0V35.4a6.23,6.23,0,0,1-2.89-1.67l-1.53.88a1.56,1.56,0,0,1-1.56-2.7L2.31,31a6.1,6.1,0,0,1,0-3.34l-1.53-.88a1.56,1.56,0,0,1,1.56-2.7L3.87,25a6.23,6.23,0,0,1,2.89-1.67V21.56a1.56,1.56,0,0,1,3.12,0v1.77A6.23,6.23,0,0,1,12.77,25l1.53-.88A1.56,1.56,0,0,1,15.86,26.82Zm-7.54-.57a3.12,3.12,0,1,0,3.12,3.12h0a3.12,3.12,0,0,0-3.11-3.13h0Z" transform="translate(-0.04 -0.01)"/><path class="cls-1" d="M61.19,6.82l-1.53.88a6.1,6.1,0,0,1,0,3.34l1.53,0.87a1.56,1.56,0,0,1-1.56,2.7l-1.53-.87a6.23,6.23,0,0,1-2.89,1.67v1.77a1.56,1.56,0,1,1-3.12,0V15.41a6.23,6.23,0,0,1-2.89-1.67l-1.53.88a1.57,1.57,0,0,1-1.57-2.71L47.63,11a6.1,6.1,0,0,1,0-3.34L46.1,6.82a1.56,1.56,0,0,1,1.56-2.7L49.19,5A6.23,6.23,0,0,1,52.1,3.33V1.57a1.56,1.56,0,0,1,3.12,0V3.34A6.23,6.23,0,0,1,58.1,5l1.53-.88A1.56,1.56,0,0,1,61.19,6.82Zm-7.54-.57a3.12,3.12,0,1,0,3.12,3.12A3.12,3.12,0,0,0,53.65,6.25Z" transform="translate(-0.04 -0.01)"/></svg>