<svg id="Layer_1" data-name="Layer 1" xmlns="http://www.w3.org/2000/svg" viewBox="0 0 53.99 60"><defs><style>.cls-1{fill:#298ca4;}</style></defs><title>variabile-con-temporali</title><path class="cls-1" d="M52,26H48a2,2,0,0,1,0-4h4A2,2,0,0,1,52,26ZM44.14,12.68a2,2,0,0,1-2.83-2.83L44.14,7A2,2,0,0,1,47,9.85ZM41.19,28.29h0A12,12,0,0,1,43.82,34h0A11.93,11.93,0,0,1,32,48H30.94l3.58-4.41A8,8,0,0,0,39.74,34h0a8,8,0,0,0-12.07-4.71A12,12,0,0,0,4.19,34h0a12,12,0,0,0,8.44,9.51l-1.35,3.78A16,16,0,0,1,.14,34h0A16,16,0,0,1,20.52,16.65,12,12,0,0,1,41.19,28.29ZM30,16a8,8,0,0,0-5.66,2.36A16.09,16.09,0,0,1,30,24.2a11.47,11.47,0,0,1,7.88,1.32h0A8,8,0,0,0,30,16Zm0-8a2,2,0,0,1-2-2V2a2,2,0,0,1,4,0V6a2,2,0,0,1-2,2h0ZM15.86,12.68L13,9.85A2,2,0,0,1,15.83,7l2.83,2.83A2,2,0,0,1,15.86,12.68ZM20,34H30L24,44h7L18,60l3.6-12H15Z" transform="translate(-0.01 0.01)"/></svg>