<svg id="Layer_1" data-name="Layer 1" xmlns="http://www.w3.org/2000/svg" viewBox="0 0 51.36 50.46"><defs><style>.cls-1{fill:#298ca4;}</style></defs><title>vento-neve</title><path class="cls-1" d="M38,28.12H35a2,2,0,0,1,0-4h3a2,2,0,0,0,0-4,2,2,0,0,1,.4-4A6,6,0,1,1,38,28.12Zm-10-4H6a2,2,0,0,0,0,4H28a6,6,0,0,1,.4,12,2,2,0,1,1-.4-4,2,2,0,0,0,0-4H6a6,6,0,0,1-.4-12,2.07,2.07,0,0,1,.4,0H28a2,2,0,0,0,0-4,2,2,0,0,1,0-4,2.07,2.07,0,0,1,.4,0A6,6,0,0,1,28,24.12Z" transform="translate(0.2 0)"/><path class="cls-1" d="M16.67,40.26L15.35,41a5.25,5.25,0,0,1,0,2.87l1.32,0.76A1.34,1.34,0,1,1,15.33,47L14,46.22a5.36,5.36,0,0,1-2.49,1.43v1.47a1.34,1.34,0,1,1-2.69,0V47.65a5.36,5.36,0,0,1-2.49-1.43L5,47a1.34,1.34,0,0,1-1.34-2.33L5,43.89A5.25,5.25,0,0,1,5,41l-1.32-.76A1.34,1.34,0,0,1,5,37.93l1.31,0.76A5.36,5.36,0,0,1,8.8,37.26V35.74a1.34,1.34,0,1,1,2.69,0h0v1.52A5.36,5.36,0,0,1,14,38.69l1.31-.76a1.35,1.35,0,1,1,1.36,2.33h0Zm-6.49-.49a2.69,2.69,0,1,0,2.69,2.69h0A2.69,2.69,0,0,0,10.18,39.77Z" transform="translate(0.2 0)"/><path class="cls-1" d="M50.48,5.87l-1.32.76a5.25,5.25,0,0,1,0,2.87l1.32,0.76a1.34,1.34,0,0,1-1.34,2.33l-1.31-.76a5.36,5.36,0,0,1-2.49,1.43v1.52a1.35,1.35,0,1,1-2.69,0V13.26a5.36,5.36,0,0,1-2.49-1.43l-1.31.76a1.34,1.34,0,1,1-1.34-2.33l1.32-.76a5.25,5.25,0,0,1,0-2.87l-1.32-.76a1.34,1.34,0,1,1,1.34-2.33h0L40.16,4.3a5.36,5.36,0,0,1,2.49-1.43V1.35a1.35,1.35,0,1,1,2.69,0V2.87A5.36,5.36,0,0,1,47.83,4.3l1.31-.76a1.34,1.34,0,1,1,1.34,2.33h0ZM44,5.38a2.69,2.69,0,1,0,2.69,2.69A2.69,2.69,0,0,0,44,5.38h0Z" transform="translate(0.2 0)"/></svg>