<svg id="Layer_1" data-name="Layer 1" xmlns="http://www.w3.org/2000/svg" viewBox="0 0 49.2 46.46"><defs><style>.cls-1{fill:#298ca4;}</style></defs><title>vento-pioggia</title><path class="cls-1" d="M38,26.09H35a2,2,0,0,1,0-4h3a2,2,0,0,0,0-4,2,2,0,0,1,.4-4A6,6,0,1,1,38,26.09Zm-10-4H6a2,2,0,0,0,0,4H28a6,6,0,0,1,.4,12,2,2,0,1,1-.4-4,2,2,0,0,0,0-4H6a6,6,0,1,1-.4-12,2.07,2.07,0,0,1,.4,0H28a2,2,0,0,0,0-4,2,2,0,0,1,0-4,2.07,2.07,0,0,1,.4,0A6,6,0,0,1,28,22.09Z" transform="translate(0.2)"/><path class="cls-1" d="M10.19,34.39l3.53,3.53a5,5,0,1,1-7.07,0h0Z" transform="translate(0.2)"/><path class="cls-1" d="M44,0l3.53,3.53a5,5,0,1,1-7.07,0h0Z" transform="translate(0.2)"/></svg>