<svg id="Layer_1" data-name="Layer 1" xmlns="http://www.w3.org/2000/svg" viewBox="0 0 66.04 35.01"><defs><style>.cls-1{fill:#fff;}</style></defs><title>coperto</title><path class="cls-1" d="M53.45,11a12.06,12.06,0,0,0-2,.21,16,16,0,0,0-14-8.2h0A16,16,0,0,0,14.13,8.2a12,12,0,1,0-2,23.79h16a15.91,15.91,0,0,0,9.3,3h16a12,12,0,0,0,1-24h-1ZM4.13,20a8,8,0,0,1,12.34-6.71A12,12,0,0,1,28.13,4,11.87,11.87,0,0,1,31,4.36,16,16,0,0,0,24.23,28H12.13a8,8,0,0,1-8-8h0ZM53.45,31h-16A12,12,0,1,1,49.13,16.3,8,8,0,1,1,53.45,31Z" transform="translate(0.1 0.01)"/></svg>