<svg data-name="Layer 1" xmlns="http://www.w3.org/2000/svg" viewBox="0 0 54 56"><path d="M52 26.01h-4a2 2 0 0 1 0-4h4a2 2 0 0 1 0 4zm-7.86-13.32a2.001 2.001 0 1 1-2.83-2.83l2.83-2.85A2.019 2.019 0 1 1 47 9.86zm-3 15.61a12 12 0 0 1 2.16 3.71h-4.38A8 8 0 0 0 28 29.1l-.31.19A12 12 0 0 0 4 32.01H0a16 16 0 0 1 20.52-15.35A12 12 0 0 1 41.19 28.3zM30 16.01a8 8 0 0 0-5.66 2.36A16.11 16.11 0 0 1 30 24.21a11.47 11.47 0 0 1 7.88 1.32A8 8 0 0 0 30 16.01zm0-8a2 2 0 0 1-2-2v-4a2 2 0 0 1 4 0v4a2 2 0 0 1-2 2zm-14.14 4.68L13 9.86a2.008 2.008 0 1 1 2.83-2.85l2.83 2.83a2 2 0 0 1-2.8 2.85zM2 36.01h40a2 2 0 0 1 0 4H2a2 2 0 0 1 0-4zm0 8h40a2 2 0 0 1 0 4H2a2 2 0 0 1 0-4zm0 8h40a2 2 0 0 1 0 4H2a2 2 0 0 1 0-4z" fill="#fff"/></svg>