<svg id="Layer_1" data-name="Layer 1" xmlns="http://www.w3.org/2000/svg" viewBox="0 0 44.79 38.03"><defs><style>.cls-1{fill:#fff}</style></defs><path class="cls-1" d="M34 31.82v-4.08a8 8 0 1 0-6.33-14.45A12 12 0 1 0 10 26.36v4.44A16 16 0 1 1 30 8.21a12 12 0 1 1 4 23.61z" transform="translate(0 .03)"/><path class="cls-1" d="M28.44 27.82l-1.31.75a5.21 5.21 0 0 1 0 2.85l1.31.75a1.33 1.33 0 0 1-1.33 2.31l-1.3-.75a5.33 5.33 0 0 1-2.47 1.42v1.51a1.33 1.33 0 1 1-2.67 0v-1.5a5.32 5.32 0 0 1-2.47-1.42l-1.3.75a1.33 1.33 0 0 1-1.33-2.31l1.31-.75a5.21 5.21 0 0 1 0-2.85l-1.31-.75a1.33 1.33 0 0 1 1.33-2.31l1.3.75a5.32 5.32 0 0 1 2.47-1.42v-1.49a1.33 1.33 0 0 1 2.67 0v1.51a5.33 5.33 0 0 1 2.47 1.42l1.3-.75a1.33 1.33 0 0 1 1.33 2.28zM22 27.36A2.67 2.67 0 1 0 24.67 30 2.67 2.67 0 0 0 22 27.36z" transform="translate(0 .03)"/></svg>