<svg xmlns="http://www.w3.org/2000/svg" viewBox="0 0 44.8 47.2"><defs><style>.cls-1{fill:#298ca4}</style></defs><path class="cls-1" d="M34 31.9v-4.1a8 8 0 1 0-6.3-14.5 12 12 0 1 0-17.7 13v4.5A16 16 0 1 1 30 8.2a12 12 0 1 1 4 23.6z"/><path class="cls-1" d="M28.4 27.9l-1.3.7a5.2 5.2 0 0 1 0 2.9l1.3.7a1.3 1.3 0 0 1-1.3 2.3l-1.3-.7a5.3 5.3 0 0 1-2.5 1.4v1.5a1.3 1.3 0 1 1-2.6 0v-1.5a5.3 5.3 0 0 1-2.5-1.4l-1.3.7a1.3 1.3 0 0 1-1.3-2.3l1.3-.7a5.2 5.2 0 0 1 0-2.9l-1.3-.7a1.3 1.3 0 0 1 1.3-2.3l1.3.7a5.3 5.3 0 0 1 2.5-1.4v-1.5a1.3 1.3 0 0 1 2.6 0v1.5a5.3 5.3 0 0 1 2.5 1.4l1.3-.7a1.3 1.3 0 0 1 1.3 2.3zm-6.4-.5a2.7 2.7 0 1 0 2.7 2.6 2.7 2.7 0 0 0-2.7-2.6zm-4.3 11.9l-1 .6a4 4 0 0 1 0 2.2l1 .6a1 1 0 0 1-1 1.8l-1-.6a4.1 4.1 0 0 1-1.9 1.1v1.2a1 1 0 1 1-2 0V45a4.1 4.1 0 0 1-2-1l-1 .5a1 1 0 0 1-1-1.8l1-.6a4 4 0 0 1 0-2.2l-1-.6a1 1 0 0 1 1-1.8l1 .6a4.1 4.1 0 0 1 2-1.1v-1.2a1 1 0 1 1 2 0V37a4.1 4.1 0 0 1 2 1l1-.5a1 1 0 0 1 1 1.8zm-5-.4a2 2 0 1 0 2 2.1 2 2 0 0 0-2-2z"/></svg>