<svg id="Layer_1" data-name="Layer 1" xmlns="http://www.w3.org/2000/svg" viewBox="0 0 44.79 48.27"><defs><style>.cls-1{fill:#fff}</style></defs><path class="cls-1" d="M34 31.82v-4.08a8 8 0 1 0-6.33-14.45A12 12 0 1 0 10 26.36v4.44A16 16 0 1 1 30 8.21a12 12 0 1 1 4 23.61z" transform="translate(0 .03)"/><path class="cls-1" d="M28.44 27.82l-1.31.75a5.21 5.21 0 0 1 0 2.85l1.31.75a1.33 1.33 0 0 1-1.33 2.31l-1.3-.75a5.33 5.33 0 0 1-2.47 1.42v1.51a1.33 1.33 0 1 1-2.67 0v-1.5a5.32 5.32 0 0 1-2.47-1.42l-1.3.75a1.33 1.33 0 0 1-1.33-2.31l1.31-.75a5.21 5.21 0 0 1 0-2.85l-1.31-.75a1.33 1.33 0 0 1 1.33-2.31l1.3.75a5.32 5.32 0 0 1 2.47-1.42v-1.49a1.33 1.33 0 0 1 2.67 0v1.51a5.33 5.33 0 0 1 2.47 1.42l1.3-.75a1.33 1.33 0 0 1 1.33 2.28zM22 27.36A2.67 2.67 0 1 0 24.67 30 2.67 2.67 0 0 0 22 27.36zM17.72 39.26l-1 .59a4 4 0 0 1 0 2.22l1 .59a1 1 0 0 1-1 1.79l-1-.58A4.14 4.14 0 0 1 13.8 45v1.17a1 1 0 1 1-2.07 0V45a4.14 4.14 0 0 1-1.92-1.11l-1 .58a1 1 0 0 1-1-1.79l1-.59a4 4 0 0 1 0-2.22l-1-.59a1 1 0 0 1 1-1.79l1 .58a4.14 4.14 0 0 1 1.92-1.11v-1.18a1 1 0 1 1 2.07 0v1.17a4.14 4.14 0 0 1 1.92 1.11l1-.58a1 1 0 0 1 1 1.78zm-5-.38A2.07 2.07 0 1 0 14.79 41a2.07 2.07 0 0 0-2.08-2.06zM31.35 42l-.81.46a3.21 3.21 0 0 1 0 1.76l.81.46a.82.82 0 0 1-.82 1.42l-.8-.46a3.28 3.28 0 0 1-1.52.88v.93a.82.82 0 1 1-1.64 0v-.95a3.28 3.28 0 0 1-1.57-.88l-.8.46a.82.82 0 0 1-.82-1.42l.81-.46a3.21 3.21 0 0 1 0-1.76l-.81-.44a.82.82 0 0 1 .82-1.42l.8.42a3.28 3.28 0 0 1 1.52-.88v-.92a.82.82 0 1 1 1.64 0v.93a3.28 3.28 0 0 1 1.52.88l.8-.46a.83.83 0 1 1 .87 1.45zm-4-.3a1.64 1.64 0 1 0 .06 0h-.06z" transform="translate(0 .03)"/></svg>