<svg id="Layer_1" data-name="Layer 1" xmlns="http://www.w3.org/2000/svg" viewBox="0 0 75.47 48"><defs><style>.cls-1{fill:#fff}</style></defs><path class="cls-1" d="M37.18 12.68A2 2 0 1 0 40 9.85L37.18 7a2 2 0 0 0-3 2.69l.14.14zM51.32 8a2 2 0 0 0 2-2V2a2 2 0 0 0-4 0v4a2 2 0 0 0 2 2zM68.29 7a2 2 0 0 0-2.83 0l-2.8 2.83a2 2 0 1 0 2.83 2.83l2.83-2.83a2 2 0 0 0 0-2.83zM73.32 22h-4a2 2 0 0 0 0 4h4a2 2 0 0 0 0-4z" transform="translate(.15 .01)"/><path class="cls-1" d="M63.32 24a12 12 0 0 0-21.47-7.34 16 16 0 0 0-4.52-.66 15.95 15.95 0 0 0-23.25 5.2 12 12 0 1 0-2 23.79h16a15.91 15.91 0 0 0 9.3 3h16a12 12 0 0 0 9.19-19.7 12 12 0 0 0 .75-4.29zm-12-8a8 8 0 0 1 7.85 9.52 11.47 11.47 0 0 0-7.88-1.32 16.11 16.11 0 0 0-5.63-5.84A8 8 0 0 1 51.32 16zM4 33a8 8 0 0 1 12.33-6.71A12 12 0 0 1 28 17a11.86 11.86 0 0 1 2.88.37A16 16 0 0 0 24.09 41H12a8 8 0 0 1-8-8zm49.32 11h-16A12 12 0 1 1 49 29.28 8 8 0 1 1 53.32 44z" transform="translate(.15 .01)"/></svg>