<svg xmlns="http://www.w3.org/2000/svg" viewBox="0 0 75.5 48"><defs><style>.cls-1{fill:#298ca4}</style></defs><path class="cls-1" d="M37.3 12.7a2 2 0 1 0 2.9-2.8L37.3 7a2 2 0 0 0-3 2.7l.2.1zM51.5 8a2 2 0 0 0 2-2V2a2 2 0 0 0-4 0v4a2 2 0 0 0 2 2zm17-1a2 2 0 0 0-2.9 0l-2.8 2.8a2 2 0 1 0 2.8 2.9l2.9-2.9a2 2 0 0 0 0-2.8zm5 15h-4a2 2 0 0 0 0 4h4a2 2 0 0 0 0-4z"/><path class="cls-1" d="M63.5 24A12 12 0 0 0 42 16.7a16 16 0 0 0-4.5-.7 16 16 0 0 0-23.3 5.2 12 12 0 1 0-2 23.8h16a16 16 0 0 0 9.3 3h16a12 12 0 0 0 9.2-19.7 12 12 0 0 0 .8-4.3zm-12-8a8 8 0 0 1 7.8 9.5 11.5 11.5 0 0 0-7.9-1.3 16.1 16.1 0 0 0-5.6-5.8 8 8 0 0 1 5.7-2.4zM4 33a8 8 0 0 1 12.4-6.7A12 12 0 0 1 28 17a11.9 11.9 0 0 1 3 .4A16 16 0 0 0 24.1 41h-12a8 8 0 0 1-8-8zm49.4 11h-16A12 12 0 1 1 49 29.3 8 8 0 1 1 53.5 44z"/></svg>