<svg id="Layer_1" data-name="Layer 1" xmlns="http://www.w3.org/2000/svg" viewBox="0 0 75.47 48"><defs><style>.cls-1{fill:#fff;}</style></defs><title>parzialmente-nuvoloso</title><path class="cls-1" d="M37.18,12.68A2,2,0,1,0,40,9.85L37.18,7a2,2,0,0,0-3,2.69l0.14,0.14Z" transform="translate(0.15 0.01)"/><path class="cls-1" d="M51.32,8a2,2,0,0,0,2-2h0V2a2,2,0,0,0-4,0V6A2,2,0,0,0,51.32,8Z" transform="translate(0.15 0.01)"/><path class="cls-1" d="M68.29,7a2,2,0,0,0-2.83,0h0l-2.8,2.83a2,2,0,1,0,2.83,2.83l2.83-2.83a2,2,0,0,0,0-2.83h0Z" transform="translate(0.15 0.01)"/><path class="cls-1" d="M73.32,22h-4a2,2,0,0,0,0,4h4A2,2,0,0,0,73.32,22Z" transform="translate(0.15 0.01)"/><path class="cls-1" d="M63.32,24a12,12,0,0,0-21.47-7.34A16,16,0,0,0,37.33,16h0a15.95,15.95,0,0,0-23.25,5.2,12,12,0,1,0-2,23.79h16a15.91,15.91,0,0,0,9.3,3h16a12,12,0,0,0,9.19-19.7A12,12,0,0,0,63.32,24Zm-12-8a8,8,0,0,1,7.85,9.52,11.47,11.47,0,0,0-7.88-1.32,16.11,16.11,0,0,0-5.63-5.84A8,8,0,0,1,51.32,16ZM4,33a8,8,0,0,1,12.33-6.71A12,12,0,0,1,28,17a11.86,11.86,0,0,1,2.88.37A16,16,0,0,0,24.09,41H12a8,8,0,0,1-8-8H4ZM53.32,44h-16A12,12,0,1,1,49,29.28,8,8,0,1,1,53.32,44Z" transform="translate(0.15 0.01)"/></svg>