<svg xmlns="http://www.w3.org/2000/svg" viewBox="0 0 43.8 44"><path d="M36 31.3v-4.4a8 8 0 1 0-8.3-13.6A12 12 0 1 0 8 24.9v5A16 16 0 1 1 30 8.1a12 12 0 0 1 6 23.1zM14 20a2 2 0 0 1 2 2v4a2 2 0 0 1-4 0v-4a2 2 0 0 1 2-2zm0 12a2 2 0 0 1 2 2v4a2 2 0 0 1-4 0v-4a2 2 0 0 1 2-2zm8-8a2 2 0 0 1 2 2v4a2 2 0 0 1-4 0v-4a2 2 0 0 1 2-2zm0 12a2 2 0 0 1 2 2v4a2 2 0 0 1-4 0v-4a2 2 0 0 1 2-2zm8-16a2 2 0 0 1 2 2v4a2 2 0 0 1-4 0v-4a2 2 0 0 1 2-2zm0 12a2 2 0 0 1 2 2v4a2 2 0 0 1-4 0v-4a2 2 0 0 1 2-2z" fill="#298ca4"/></svg>