<svg xmlns="http://www.w3.org/2000/svg" viewBox="0 0 44.7 48.5"><defs><style>.cls-1{fill:#298ca4}</style></defs><path class="cls-1" d="M10.8 36.5l3.6 3.5a5 5 0 1 1-7.1 0zM34 31.8v-4a8 8 0 1 0-6.3-14.5 12 12 0 1 0-17.7 13v4.5A16 16 0 1 1 30 8.2a12 12 0 1 1 4 23.6z"/><path class="cls-1" d="M28.4 27.8l-1.3.8a5.2 5.2 0 0 1 0 2.8l1.3.8a1.3 1.3 0 0 1-1.3 2.3l-1.3-.8a5.3 5.3 0 0 1-2.5 1.5v1.5a1.3 1.3 0 0 1-2.7 0v-1.5a5.3 5.3 0 0 1-2.4-1.5l-1.3.8a1.3 1.3 0 0 1-1.4-2.3l1.4-.8a5.2 5.2 0 0 1 0-2.8l-1.4-.8a1.3 1.3 0 0 1 1.4-2.3l1.3.8a5.3 5.3 0 0 1 2.4-1.5v-1.5a1.3 1.3 0 1 1 2.7 0v1.5a5.3 5.3 0 0 1 2.5 1.5l1.3-.8a1.3 1.3 0 1 1 1.3 2.3zm-6.4-.5a2.7 2.7 0 1 0 2.6 2.7 2.7 2.7 0 0 0-2.6-2.7z"/></svg>