<svg data-name="Layer 1" xmlns="http://www.w3.org/2000/svg" viewBox="0 0 43.75 44"><path d="M35.99 31.3v-4.38a8 8 0 1 0-8.33-13.63A12 12 0 1 0 7.99 24.93v4.91a16 16 0 1 1 22-21.64 12 12 0 0 1 6 23.1zm-22-11.3a2 2 0 0 1 2 2v4a2 2 0 0 1-4 0v-4a2 2 0 0 1 2-2zm0 12a2 2 0 0 1 2 2v4a2 2 0 0 1-4 0v-4a2 2 0 0 1 2-2zm8-8a2 2 0 0 1 2 2v4a2 2 0 0 1-4 0v-4a2 2 0 0 1 2-2zm0 12a2 2 0 0 1 2 2v4a2 2 0 0 1-4 0v-4a2 2 0 0 1 2-2zm8-16a2 2 0 0 1 2 2v4a2 2 0 0 1-4 0v-4a2 2 0 0 1 2-2zm0 12a2 2 0 0 1 2 2v4a2 2 0 0 1-4 0v-4a2 2 0 0 1 2-2z" fill="#fff"/></svg>