<svg id="Layer_1" data-name="Layer 1" xmlns="http://www.w3.org/2000/svg" viewBox="0 0 43.92 42.4"><defs><style>.cls-1{fill:#fff;}</style></defs><title>pioggia-moderata</title><path class="cls-1" d="M32,8a12.06,12.06,0,0,0-2,.21A16,16,0,1,0,8.15,30,6.94,6.94,0,0,1,10,26.5L10,26.44a12,12,0,1,1,17.6-13.15,8,8,0,1,1,7.1,14.21A7,7,0,0,1,36,31.31,12,12,0,0,0,32,8ZM15,27.21l-2.12,2.15a3,3,0,1,0,4.24,0h0Zm7,8-2.12,2.15a3,3,0,1,0,4.24,0h0Zm7-8-2.12,2.15a3,3,0,1,0,4.24,0h0Z" transform="translate(-0.05 -0.09)"/></svg>