<svg data-name="Layer 1" xmlns="http://www.w3.org/2000/svg" viewBox="0 0 54.03 48"><path d="M52 26h-4a2 2 0 0 1 0-4h4a2 2 0 0 1 0 4zm-7.84-13.31a2.001 2.001 0 1 1-2.83-2.83L44.16 7A2.015 2.015 0 0 1 47 9.86zM41.22 28.3A12 12 0 0 1 32 48H16a16 16 0 1 1 4.52-31.34 12 12 0 0 1 20.7 11.64zM4 32a12 12 0 0 0 12 12h16a8 8 0 1 0-4.3-14.71A12 12 0 0 0 4 32zm26-16a8 8 0 0 0-5.67 2.36A16.11 16.11 0 0 1 30 24.21a11.47 11.47 0 0 1 7.88 1.32A8 8 0 0 0 30 16zm0-8a2 2 0 0 1-2-2V2a2 2 0 0 1 4 0v4a2 2 0 0 1-2 2zm-14.12 4.69L13 9.86A2.04 2.04 0 0 1 15.91 7l2.83 2.83a2.022 2.022 0 0 1-2.86 2.86z" fill="#fff"/></svg>