<svg xmlns="http://www.w3.org/2000/svg" viewBox="0 0 54 48"><path d="M52 26h-4a2 2 0 0 1 0-4h4a2 2 0 0 1 0 4zm-7.8-13.3a2 2 0 1 1-2.9-2.8L44.2 7A2 2 0 0 1 47 9.9zm-3 15.6A12 12 0 0 1 32 48H16a16 16 0 1 1 4.5-31.3 12 12 0 0 1 20.7 11.6zM4 32a12 12 0 0 0 12 12h16a8 8 0 1 0-4.3-14.7A12 12 0 0 0 4 32zm26-16a8 8 0 0 0-5.7 2.4 16.1 16.1 0 0 1 5.7 5.8 11.5 11.5 0 0 1 7.9 1.3A8 8 0 0 0 30 16zm0-8a2 2 0 0 1-2-2V2a2 2 0 0 1 4 0v4a2 2 0 0 1-2 2zm-14.1 4.7L13 9.9A2 2 0 0 1 16 7l2.7 2.8a2 2 0 0 1-2.8 2.9z" fill="#298ca4"/></svg>