<svg data-name="Layer 1" xmlns="http://www.w3.org/2000/svg" viewBox="0 0 53.98 58.47"><path d="M52 25.99h-4a2 2 0 0 1 0-4h4a2 2 0 0 1 0 4zm-7.89-13.31a2.001 2.001 0 1 1-2.83-2.83l2.83-2.86A2.033 2.033 0 1 1 47 9.85zm-2.94 15.61a12 12 0 0 1 2.83 7.7 12 12 0 0 1-8 11.31 7 7 0 0 0-1.22-3.81 8 8 0 1 0-7.1-14.21 12 12 0 1 0-23.02 6.71 12 12 0 0 0 5.4 6.44 7 7 0 0 0-1.87 3.44 16 16 0 0 1-7.68-9.88 16 16 0 0 1 20-19.34 12 12 0 0 1 20.66 11.64zM30 15.99a8 8 0 0 0-5.66 2.36A16.11 16.11 0 0 1 30 24.2a11.47 11.47 0 0 1 7.88 1.32A8 8 0 0 0 30 15.99zm0-8a2 2 0 0 1-2-2v-4a2 2 0 1 1 4 0v4a2 2 0 0 1-2 2zm-14.17 4.69L13 9.85a2.022 2.022 0 1 1 2.86-2.86l2.83 2.83a2.022 2.022 0 1 1-2.86 2.86zM15 43.2l2.13 2.15a3 3 0 1 1-4.24 0zm7 8l2.12 2.15a3 3 0 1 1-4.24 0zm7-8l2.12 2.15a3 3 0 1 1-4.24 0z" fill="#fff"/></svg>