<svg xmlns="http://www.w3.org/2000/svg" viewBox="0 0 54 58.5"><path d="M52 26h-4a2 2 0 0 1 0-4h4a2 2 0 0 1 0 4zm-7.9-13.3a2 2 0 1 1-2.8-2.9L44 7A2 2 0 1 1 47 9.8zm-3 15.6A12 12 0 0 1 44 36a12 12 0 0 1-8 11.3 7 7 0 0 0-1.2-3.8 8 8 0 1 0-7.1-14.2 12 12 0 1 0-23 6.7 12 12 0 0 0 5.4 6.4A7 7 0 0 0 8 46a16 16 0 0 1-7.6-10 16 16 0 0 1 20-19.3 12 12 0 0 1 20.7 11.7zM30 16a8 8 0 0 0-5.7 2.4 16.1 16.1 0 0 1 5.7 5.8 11.5 11.5 0 0 1 7.9 1.3A8 8 0 0 0 30 16zm0-8a2 2 0 0 1-2-2V2a2 2 0 1 1 4 0v4a2 2 0 0 1-2 2zm-14.2 4.7L13 9.9a2 2 0 1 1 2.9-3l2.8 3a2 2 0 1 1-2.9 2.8zM15 43.2l2.1 2.1a3 3 0 1 1-4.2 0zm7 8l2.1 2.1a3 3 0 1 1-4.2 0zm7-8l2.1 2.1a3 3 0 1 1-4.2 0z" fill="#298ca4"/></svg>