<svg id="Layer_1" data-name="Layer 1" xmlns="http://www.w3.org/2000/svg" viewBox="0 0 53.98 58.47"><defs><style>.cls-1{fill:#fff;}</style></defs><title>rovesci</title><path class="cls-1" d="M52,26H48a2,2,0,0,1,0-4h4A2,2,0,0,1,52,26ZM44.11,12.69a2,2,0,1,1-2.83-2.83L44.11,7A2,2,0,1,1,47,9.86h0ZM41.17,28.3h0A12,12,0,0,1,44,36h0a12,12,0,0,1-8,11.31,7,7,0,0,0-1.22-3.81,8,8,0,1,0-7.1-14.21A12,12,0,1,0,4.66,36h0a12,12,0,0,0,5.4,6.44v0a7,7,0,0,0-1.87,3.44A16,16,0,0,1,.51,36h0a16,16,0,0,1,20-19.34A12,12,0,0,1,41.17,28.3ZM30,16a8,8,0,0,0-5.66,2.36A16.11,16.11,0,0,1,30,24.21a11.47,11.47,0,0,1,7.88,1.32h0A8,8,0,0,0,30,16Zm0-8a2,2,0,0,1-2-2V2a2,2,0,1,1,4,0V6A2,2,0,0,1,30,8ZM15.83,12.69L13,9.86A2,2,0,1,1,15.86,7l2.83,2.83A2,2,0,1,1,15.83,12.69ZM15,43.21l2.13,2.15a3,3,0,1,1-4.24,0h0Zm7,8,2.12,2.15a3,3,0,1,1-4.24,0h0Zm7-8,2.12,2.15a3,3,0,1,1-4.24,0h0Z" transform="translate(0 -0.01)"/></svg>