<svg xmlns="http://www.w3.org/2000/svg" viewBox="0 0 48 48"><path d="M46 26h-4a2 2 0 0 1 0-4h4a2 2 0 0 1 0 4zm-8-13a2 2 0 1 1-3-3l3-3a2 2 0 1 1 3 3zM24 36a12 12 0 1 1 12-12 12 12 0 0 1-12 12zm0-20a8 8 0 1 0 8 8 8 8 0 0 0-8-8zm0-8a2 2 0 0 1-2-2V2a2 2 0 0 1 4 0v4a2 2 0 0 1-2 2zm-14 5l-3-3a2 2 0 0 1 3-3l3 3a2 2 0 1 1-3 3zM8 24a2 2 0 0 1-2 2H2a2 2 0 0 1 0-4h4a2 2 0 0 1 2 2zm2 11a2 2 0 0 1 3 3l-3 3a2 2 0 1 1-3-3zm14 5a2 2 0 0 1 2 2v4a2 2 0 0 1-4 0v-4a2 2 0 0 1 2-2zm14-5l3 3a2 2 0 0 1-3 3l-3-3a2 2 0 0 1 3-3z" fill="#298ca4"/></svg>