<svg id="Layer_1" data-name="Layer 1" xmlns="http://www.w3.org/2000/svg" viewBox="0 0 61.88 38.72"><defs><style>.cls-1{fill:#fff;}</style></defs><title>tormenta-neve</title><path class="cls-1" d="M42,5.36H4a2,2,0,0,1,0-4H42A2,2,0,1,1,42,5.36Zm-36,4H36a2,2,0,0,1,0,4H6A2,2,0,0,1,6,9.36Zm12,8H40a2,2,0,0,1,0,4H18a2.11,2.11,0,0,1-1.18-2.67A2.63,2.63,0,0,1,18,17.36Zm2,16h6a2,2,0,0,1,0,4H20a2,2,0,0,1-2.24-2A1.92,1.92,0,0,1,20,33.36Zm1-6a2,2,0,0,1,2-2H37a2,2,0,0,1,0,4H23a2,2,0,0,1-2-2h0Z" transform="translate(0 0)"/><path class="cls-1" d="M15.82,26.81l-1.53.88a6.1,6.1,0,0,1,0,3.34l1.53,0.87a1.56,1.56,0,0,1-1.56,2.7l-1.53-.88a6.23,6.23,0,0,1-2.89,1.67v1.77a1.56,1.56,0,1,1-3.12,0V35.39a6.23,6.23,0,0,1-2.89-1.67L2.3,34.6A1.56,1.56,0,0,1,.74,31.9L2.27,31a6.1,6.1,0,0,1,0-3.34l-1.53-.88a1.56,1.56,0,0,1,1.56-2.7L3.83,25a6.23,6.23,0,0,1,2.89-1.67V21.55a1.56,1.56,0,0,1,3.12,0v1.77A6.23,6.23,0,0,1,12.73,25l1.53-.88A1.56,1.56,0,0,1,15.82,26.81Zm-7.54-.57a3.12,3.12,0,1,0,3.12,3.12h0a3.12,3.12,0,0,0-3.11-3.13h0Z" transform="translate(0 0)"/><path class="cls-1" d="M61.15,6.81l-1.53.88a6.1,6.1,0,0,1,0,3.34l1.53,0.87a1.56,1.56,0,0,1-1.56,2.7l-1.53-.87a6.23,6.23,0,0,1-2.89,1.67v1.77a1.56,1.56,0,0,1-3.12,0h0V15.4a6.23,6.23,0,0,1-2.89-1.67l-1.53.88a1.57,1.57,0,0,1-1.57-2.71L47.59,11a6.1,6.1,0,0,1,0-3.34l-1.53-.84a1.56,1.56,0,0,1,1.56-2.7L49.15,5a6.23,6.23,0,0,1,2.91-1.67V1.56a1.56,1.56,0,0,1,3.12,0V3.33A6.23,6.23,0,0,1,58.06,5l1.53-.88A1.56,1.56,0,0,1,61.15,6.81Zm-7.54-.57a3.12,3.12,0,1,0,3.12,3.12h0A3.12,3.12,0,0,0,53.61,6.24Z" transform="translate(0 0)"/></svg>