<svg id="Layer_1" data-name="Layer 1" xmlns="http://www.w3.org/2000/svg" viewBox="0 0 61.88 38.72"><defs><style>.cls-1{fill:#fff}</style></defs><path class="cls-1" d="M42 5.36H4a2 2 0 0 1 0-4h38a2 2 0 1 1 0 4zm-36 4h30a2 2 0 0 1 0 4H6a2 2 0 0 1 0-4zm12 8h22a2 2 0 0 1 0 4H18a2.11 2.11 0 0 1-1.18-2.67A2.63 2.63 0 0 1 18 17.36zm2 16h6a2 2 0 0 1 0 4h-6a2 2 0 0 1-2.24-2 1.92 1.92 0 0 1 2.24-2zm1-6a2 2 0 0 1 2-2h14a2 2 0 0 1 0 4H23a2 2 0 0 1-2-2zM15.82 26.81l-1.53.88a6.1 6.1 0 0 1 0 3.34l1.53.87a1.56 1.56 0 0 1-1.56 2.7l-1.53-.88a6.23 6.23 0 0 1-2.89 1.67v1.77a1.56 1.56 0 1 1-3.12 0v-1.77a6.23 6.23 0 0 1-2.89-1.67l-1.53.88a1.56 1.56 0 0 1-1.56-2.7l1.53-.9a6.1 6.1 0 0 1 0-3.34l-1.53-.88a1.56 1.56 0 0 1 1.56-2.7l1.53.92a6.23 6.23 0 0 1 2.89-1.67v-1.78a1.56 1.56 0 0 1 3.12 0v1.77A6.23 6.23 0 0 1 12.73 25l1.53-.88a1.56 1.56 0 0 1 1.56 2.69zm-7.54-.57a3.12 3.12 0 1 0 3.12 3.12 3.12 3.12 0 0 0-3.11-3.13zM61.15 6.81l-1.53.88a6.1 6.1 0 0 1 0 3.34l1.53.87a1.56 1.56 0 0 1-1.56 2.7l-1.53-.87a6.23 6.23 0 0 1-2.89 1.67v1.77a1.56 1.56 0 0 1-3.12 0V15.4a6.23 6.23 0 0 1-2.89-1.67l-1.53.88a1.57 1.57 0 0 1-1.57-2.71l1.53-.9a6.1 6.1 0 0 1 0-3.34l-1.53-.84a1.56 1.56 0 0 1 1.56-2.7l1.53.88a6.23 6.23 0 0 1 2.91-1.67V1.56a1.56 1.56 0 0 1 3.12 0v1.77A6.23 6.23 0 0 1 58.06 5l1.53-.88a1.56 1.56 0 0 1 1.56 2.69zm-7.54-.57a3.12 3.12 0 1 0 3.12 3.12 3.12 3.12 0 0 0-3.12-3.12z"/></svg>