<svg xmlns="http://www.w3.org/2000/svg" viewBox="0 0 61.9 38.7"><path fill="#298ca4" d="M42 5.4H4a2 2 0 0 1 0-4h38a2 2 0 1 1 0 4zm-36 4h30a2 2 0 0 1 0 4H6a2 2 0 0 1 0-4zm12 8h22a2 2 0 0 1 0 4H18a2.1 2.1 0 0 1-1.2-2.7 2.6 2.6 0 0 1 1.2-1.3zm2 16h6a2 2 0 0 1 0 4h-6a2 2 0 0 1-2.2-2 2 2 0 0 1 2.2-2zm1-6a2 2 0 0 1 2-2h14a2 2 0 0 1 0 4H23a2 2 0 0 1-2-2zm-5.2-.6l-1.5.9a6.1 6.1 0 0 1 0 3.3l1.5.9a1.6 1.6 0 0 1-1.5 2.7l-1.6-.9a6.2 6.2 0 0 1-2.9 1.7v1.8a1.6 1.6 0 1 1-3 0v-1.8a6.2 6.2 0 0 1-3-1.7l-1.5.9a1.6 1.6 0 0 1-1.6-2.7l1.6-.9a6.1 6.1 0 0 1 0-3.3l-1.6-1a1.6 1.6 0 0 1 1.6-2.6l1.5.9a6.2 6.2 0 0 1 3-1.7v-1.7a1.6 1.6 0 0 1 3 0v1.7a6.2 6.2 0 0 1 3 1.7l1.5-.9a1.6 1.6 0 0 1 1.5 2.7zm-7.5-.6a3.1 3.1 0 1 0 3.1 3.2 3.1 3.1 0 0 0-3.1-3.2zM61 6.8l-1.5.9a6.1 6.1 0 0 1 0 3.3l1.5.9a1.6 1.6 0 0 1-1.5 2.7l-1.5-.9a6.2 6.2 0 0 1-3 1.7v1.8a1.6 1.6 0 0 1-3 0v-1.8a6.2 6.2 0 0 1-3-1.7l-1.5 1a1.6 1.6 0 0 1-1.5-2.8l1.5-.9a6.1 6.1 0 0 1 0-3.3L46 6.8a1.6 1.6 0 0 1 1.5-2.7l1.5.9a6.2 6.2 0 0 1 3-1.7V1.6a1.6 1.6 0 0 1 3 0v1.7a6.2 6.2 0 0 1 3 1.7l1.5-.9a1.6 1.6 0 0 1 1.6 2.7zm-7.5-.6a3.1 3.1 0 1 0 3.1 3.2 3.1 3.1 0 0 0-3-3.2z"/></svg>