<svg xmlns="http://www.w3.org/2000/svg" viewBox="0 0 54 60"><path d="M52 26h-4a2 2 0 0 1 0-4h4a2 2 0 0 1 0 4zm-7.9-13.3a2 2 0 1 1-2.8-2.9L44.1 7A2 2 0 0 1 47 9.8zm-3 15.6a12 12 0 0 1 2.7 5.7A12 12 0 0 1 32 48h-1l3.5-4.4a8 8 0 0 0 5.2-9.6 8 8 0 0 0-12-4.7A12 12 0 0 0 4.2 34a12 12 0 0 0 8.4 9.5l-1.3 3.8A16 16 0 0 1 0 34a16 16 0 0 1 20.4-17.3 12 12 0 0 1 20.7 11.6zM30 16a8 8 0 0 0-5.7 2.4 16 16 0 0 1 5.7 5.8 11.5 11.5 0 0 1 7.9 1.3A8 8 0 0 0 30 16zm0-8a2 2 0 0 1-2-2V2a2 2 0 1 1 4 0v4a2 2 0 0 1-2 2zm-14.2 4.7L13 9.9a2 2 0 1 1 2.8-3l2.8 3a2 2 0 0 1-2.8 2.8zM20 34h10l-6 10h7L18 60l3.6-12H15z" fill="#298ca4"/></svg>