<svg data-name="Layer 1" xmlns="http://www.w3.org/2000/svg" viewBox="0 0 53.99 60"><path d="M52 25.99h-4a2 2 0 0 1 0-4h4a2 2 0 0 1 0 4zm-7.87-13.31a2.001 2.001 0 1 1-2.83-2.83l2.83-2.86A2.026 2.026 0 0 1 47 9.85zm-3 15.61a12 12 0 0 1 2.68 5.7 11.93 11.93 0 0 1-11.81 14h-1.07l3.58-4.41a8 8 0 0 0 5.22-9.59 8 8 0 0 0-12.07-4.7 12 12 0 0 0-23.48 4.7 12 12 0 0 0 8.44 9.51l-1.35 3.79A16 16 0 0 1 .13 33.99a16 16 0 0 1 20.38-17.34 12 12 0 0 1 20.67 11.64zM30 15.99a8 8 0 0 0-5.66 2.36A16.09 16.09 0 0 1 30 24.2a11.47 11.47 0 0 1 7.88 1.32A8 8 0 0 0 30 15.99zm0-8a2 2 0 0 1-2-2v-4a2 2 0 1 1 4 0v4a2 2 0 0 1-2 2zm-14.15 4.69L13 9.85a2.008 2.008 0 1 1 2.82-2.86l2.83 2.83a2.001 2.001 0 0 1-2.8 2.86zM20 33.99h10l-6 10h7l-13 16 3.6-12H15z" fill="#fff"/></svg>