<svg id="Layer_1" data-name="Layer 1" xmlns="http://www.w3.org/2000/svg" viewBox="0 0 49.2 46.46"><defs><style>.cls-1{fill:#fff}</style></defs><path class="cls-1" d="M38.2 26.09h-3a2 2 0 0 1 0-4h3a2 2 0 0 0 0-4 2 2 0 0 1 .4-4 6 6 0 1 1-.4 12zm-10-4h-22a2 2 0 1 0 0 4h22a6 6 0 1 1 .4 12 2 2 0 1 1-.4-4 2 2 0 0 0 0-4h-22a6 6 0 1 1-.4-12 2.07 2.07 0 0 1 .4 0h22a2 2 0 0 0 0-4 2 2 0 0 1 0-4 2.07 2.07 0 0 1 .4 0 6 6 0 1 1-.4 12zM10.39 34.39l3.53 3.53a5 5 0 1 1-7.07 0zM44.2 0l3.53 3.53a5 5 0 1 1-7.07 0z"/></svg>