<svg xmlns="http://www.w3.org/2000/svg" viewBox="0 0 51.4 50.6"><defs><style>.cls-1{fill:#298ca4}</style></defs><path class="cls-1" d="M38.2 28.2h-3a2 2 0 0 1 0-4h3a2 2 0 0 0 0-4 2 2 0 0 1 .4-4 6 6 0 1 1-.4 12zm-10-4h-22a2 2 0 0 0 0 4h22a6 6 0 1 1 .4 12 2 2 0 1 1-.4-4 2 2 0 1 0 0-4h-22a6 6 0 1 1-.4-12 2 2 0 0 1 .4 0h22a2 2 0 0 0 0-4 2 2 0 1 1 0-4 2 2 0 0 1 .4 0 6 6 0 1 1-.4 12z"/><path class="cls-1" d="M16.9 40.4l-1.3.7a5.3 5.3 0 0 1 0 2.9l1.3.7a1.4 1.4 0 0 1-1.4 2.4l-1.3-.8a5.4 5.4 0 0 1-2.5 1.5v1.4a1.4 1.4 0 1 1-2.7 0v-1.4a5.4 5.4 0 0 1-2.5-1.5l-1.3.8a1.3 1.3 0 1 1-1.3-2.3l1.3-.8a5.3 5.3 0 0 1 0-2.9l-1.3-.7A1.3 1.3 0 0 1 5.2 38l1.3.7A5.4 5.4 0 0 1 9 37.4v-1.5a1.3 1.3 0 1 1 2.7 0v1.5a5.4 5.4 0 0 1 2.5 1.4l1.3-.8a1.4 1.4 0 0 1 1.5 2.3zm-6.5-.5a2.7 2.7 0 1 0 2.7 2.7 2.7 2.7 0 0 0-2.7-2.7zm40.3-34l-1.3.8a5.3 5.3 0 0 1 0 3l1.3.7a1.3 1.3 0 0 1-1.4 2.3L48 12a5.4 5.4 0 0 1-2.5 1.5v1.5a1.4 1.4 0 1 1-2.7 0v-1.5a5.4 5.4 0 0 1-2.5-1.5l-1.3.8a1.3 1.3 0 0 1-1.3-2.3l1.3-.8a5.3 5.3 0 0 1 0-2.9L37.7 6A1.3 1.3 0 0 1 39 3.7l1.4.7A5.4 5.4 0 0 1 42.9 3V1.5a1.4 1.4 0 1 1 2.6 0V3A5.4 5.4 0 0 1 48 4.4l1.3-.7A1.3 1.3 0 0 1 50.7 6zm-6.5-.4a2.7 2.7 0 1 0 2.7 2.7 2.7 2.7 0 0 0-2.7-2.7z"/></svg>