<svg id="Layer_1" data-name="Layer 1" xmlns="http://www.w3.org/2000/svg" viewBox="0 0 51.36 50.58"><defs><style>.cls-1{fill:#fff;}</style></defs><title>vento-neve</title><path class="cls-1" d="M38.2,28.12h-3a2,2,0,0,1,0-4h3a2,2,0,0,0,0-4,2,2,0,0,1,.4-4A6,6,0,1,1,38.2,28.12Zm-10-4H6.2a2,2,0,0,0,0,4h22a6,6,0,1,1,.4,12,2,2,0,1,1-.4-4,2,2,0,1,0,0-4H6.2a6,6,0,1,1-.4-12,2.07,2.07,0,0,1,.4,0h22a2,2,0,0,0,0-4,2,2,0,1,1,0-4,2.07,2.07,0,0,1,.4,0A6,6,0,1,1,28.2,24.12Z" transform="translate(0 0.12)"/><path class="cls-1" d="M16.87,40.26L15.55,41a5.25,5.25,0,0,1,0,2.87l1.32,0.76A1.36,1.36,0,0,1,15.53,47l-1.33-.78a5.36,5.36,0,0,1-2.49,1.43v1.47a1.35,1.35,0,1,1-2.69,0V47.65a5.36,5.36,0,0,1-2.49-1.43L5.2,47a1.34,1.34,0,1,1-1.34-2.33h0l1.34-.78A5.25,5.25,0,0,1,5.2,41l-1.32-.76A1.34,1.34,0,0,1,5.2,37.93l1.31,0.76A5.36,5.36,0,0,1,9,37.26V35.74a1.34,1.34,0,1,1,2.69,0h0v1.52a5.36,5.36,0,0,1,2.51,1.43l1.31-.76A1.35,1.35,0,0,1,17,40.21l-0.09.05h0Zm-6.49-.49a2.69,2.69,0,1,0,2.69,2.69h0A2.69,2.69,0,0,0,10.38,39.77Z" transform="translate(0 0.12)"/><path class="cls-1" d="M50.68,5.87l-1.32.76a5.25,5.25,0,0,1,0,2.87l1.32,0.76a1.34,1.34,0,0,1-1.34,2.33L48,11.83a5.36,5.36,0,0,1-2.49,1.43v1.52a1.35,1.35,0,1,1-2.69,0V13.26a5.36,5.36,0,0,1-2.49-1.43L39,12.59a1.34,1.34,0,0,1-1.34-2.33h0L39,9.5a5.25,5.25,0,0,1,0-2.87l-1.32-.76A1.34,1.34,0,0,1,39,3.54h0L40.36,4.3a5.36,5.36,0,0,1,2.49-1.43V1.35a1.35,1.35,0,1,1,2.69,0V2.87A5.36,5.36,0,0,1,48,4.3l1.31-.76a1.34,1.34,0,0,1,1.34,2.33h0ZM44.2,5.38a2.69,2.69,0,1,0,2.69,2.69h0A2.69,2.69,0,0,0,44.2,5.38h0Z" transform="translate(0 0.12)"/></svg>