<svg id="Layer_1" data-name="Layer 1" xmlns="http://www.w3.org/2000/svg" viewBox="0 0 227.87 203.42"><title>img_biglietto</title>
<path class="cls-1" style="fill:#a9b0c0" d="M11.06,189.54a8.56,8.56,0,0,1-1.46.6,9.47,9.47,0,0,1-1.51.32,12.75,12.75,0,0,1-1.57.09,8.2,8.2,0,0,1-2.7-.41,5.88,5.88,0,0,1-2.07-1.23A5.19,5.19,0,0,1,.44,187,6.29,6.29,0,0,1,0,184.64,6.18,6.18,0,0,1,.51,182,5,5,0,0,1,2,180.18a6.14,6.14,0,0,1,2.11-1.09,8.76,8.76,0,0,1,2.5-.36,13.55,13.55,0,0,1,4.45.88v3.06a11.66,11.66,0,0,0-1.69-.88,5,5,0,0,0-2-.36,4.44,4.44,0,0,0-1.88.4A3.52,3.52,0,0,0,4.07,183,3,3,0,0,0,4,186.29a3.22,3.22,0,0,0,1.29,1.15,4,4,0,0,0,1.87.43,6,6,0,0,0,1.58-.2,7.06,7.06,0,0,0,1.26-.45,12,12,0,0,0,1-.59v2.92Z" transform="translate(0 0)"/>
<path class="cls-1" style="fill:#a9b0c0" d="M21.74,190c-0.43.17-.84,0.31-1.21,0.41a4.86,4.86,0,0,1-1.34.16,1.57,1.57,0,0,1-1-.26,1.5,1.5,0,0,1-.42-0.64,4.51,4.51,0,0,1-1.07.64,4,4,0,0,1-1.55.25,3,3,0,0,1-1.49-.32,1.87,1.87,0,0,1-.8-0.81,2.31,2.31,0,0,1-.23-1,2.06,2.06,0,0,1,.39-1.29,2.94,2.94,0,0,1,1.06-.84,14.35,14.35,0,0,1,1.76-.67l0.95-.3,0.47-.16a2.07,2.07,0,0,0,.33-0.15,1.63,1.63,0,0,0-.25-1,1.27,1.27,0,0,0-1.08-.35,3.91,3.91,0,0,0-1.82.43,6.37,6.37,0,0,0-1.54,1.11V183a5.38,5.38,0,0,1,1.21-.65,7.1,7.1,0,0,1,1.35-.38,8.36,8.36,0,0,1,1.43-.12,4.49,4.49,0,0,1,2.77.71,2.33,2.33,0,0,1,.93,2v3.26a2.09,2.09,0,0,0,.09.7,0.32,0.32,0,0,0,.32.23,1.83,1.83,0,0,0,.76-0.24V190Zm-4.16-1.62v-2a8.25,8.25,0,0,0-1.55.78,1.09,1.09,0,0,0-.49.93,0.84,0.84,0,0,0,.25.65,0.83,0.83,0,0,0,.57.22,1.22,1.22,0,0,0,.61-0.17A5.69,5.69,0,0,0,17.58,188.36Z" transform="translate(0 0)"/>
<path class="cls-1" style="fill:#a9b0c0" d="M30.44,182.4l-1.1,3a2,2,0,0,0-1.38-.65,1.55,1.55,0,0,0-1.09.43,4.16,4.16,0,0,0-.88,1.58v3.64H23v-8.46h3v2a4.22,4.22,0,0,1,1-1.48,2.3,2.3,0,0,1,1.68-.72,2.35,2.35,0,0,1,.88.15A6.56,6.56,0,0,1,30.44,182.4Z" transform="translate(0 0)"/>
<path class="cls-1" style="fill:#a9b0c0" d="M37.92,189.92a7.09,7.09,0,0,1-1.28.43,6.45,6.45,0,0,1-1.57.21q-3.23,0-3.23-3.15V184H30.48V183.5l4-4.09h0.34v2.53h2.86V184H34.83v2.7a3.81,3.81,0,0,0,.06.76,0.77,0.77,0,0,0,.33.49,1.4,1.4,0,0,0,.82.2,4.43,4.43,0,0,0,1.88-.6v2.34Z" transform="translate(0 0)"/>
<path class="cls-1" style="fill:#a9b0c0" d="M48.07,190c-0.44.17-.84,0.31-1.21,0.41a4.87,4.87,0,0,1-1.34.16,1.58,1.58,0,0,1-1-.26,1.53,1.53,0,0,1-.41-0.64,4.59,4.59,0,0,1-1.07.64,4,4,0,0,1-1.55.25,3.05,3.05,0,0,1-1.49-.32,1.83,1.83,0,0,1-.8-0.81,2.33,2.33,0,0,1-.23-1,2.06,2.06,0,0,1,.39-1.29,3,3,0,0,1,1.06-.84,14.37,14.37,0,0,1,1.76-.67l0.94-.3,0.48-.16a2.44,2.44,0,0,0,.33-0.15,1.65,1.65,0,0,0-.25-1,1.28,1.28,0,0,0-1.08-.35,3.91,3.91,0,0,0-1.82.43,6.32,6.32,0,0,0-1.54,1.11V183a5.33,5.33,0,0,1,1.2-.65,7.22,7.22,0,0,1,1.36-.38,8.32,8.32,0,0,1,1.43-.12,4.48,4.48,0,0,1,2.76.71,2.33,2.33,0,0,1,.92,2v3.26a2,2,0,0,0,.09.7,0.32,0.32,0,0,0,.32.23,1.85,1.85,0,0,0,.76-0.24V190Zm-4.16-1.62v-2a8.34,8.34,0,0,0-1.55.78,1.09,1.09,0,0,0-.49.93,0.85,0.85,0,0,0,.25.65,0.83,0.83,0,0,0,.57.22,1.22,1.22,0,0,0,.61-0.17A5.52,5.52,0,0,0,43.91,188.36Z" transform="translate(0 0)"/>
<path class="cls-1" style="fill:#a9b0c0" d="M63.52,186.23a4.72,4.72,0,0,1-.57,2.44,3.6,3.6,0,0,1-1.46,1.42,3.93,3.93,0,0,1-1.81.46,3.8,3.8,0,0,1-1.15-.15,3.17,3.17,0,0,1-.76-0.33,5.94,5.94,0,0,1-.56-0.43v0.76h-3V178.89h3v3.56a3.19,3.19,0,0,1,.91-0.45,4.65,4.65,0,0,1,3.15.17,3.49,3.49,0,0,1,1.28,1,4.29,4.29,0,0,1,.73,1.41A5.54,5.54,0,0,1,63.52,186.23Zm-3.15-.07a2.45,2.45,0,0,0-.49-1.66,1.48,1.48,0,0,0-1.16-.57,2.87,2.87,0,0,0-1.51.54v3.23a2.13,2.13,0,0,0,1.51.6,1.72,1.72,0,0,0,1.1-.46A2.1,2.1,0,0,0,60.37,186.17Z" transform="translate(0 0)"/>
<path class="cls-1" style="fill:#a9b0c0" d="M68.22,190.41h-3v-8.46h3v8.46ZM68,180a1.19,1.19,0,0,1-.37.89,1.22,1.22,0,0,1-.89.36,1.27,1.27,0,0,1-.63-0.16,1.22,1.22,0,0,1-.45-0.45,1.25,1.25,0,0,1-.17-0.64,1.23,1.23,0,0,1,.37-0.89,1.2,1.2,0,0,1,.89-0.38,1.22,1.22,0,0,1,.89.38A1.2,1.2,0,0,1,68,180Z" transform="translate(0 0)"/>
<path class="cls-1" style="fill:#a9b0c0" d="M79.06,190c-0.44.17-.84,0.31-1.22,0.41a4.84,4.84,0,0,1-1.34.16,1.57,1.57,0,0,1-1-.26,1.52,1.52,0,0,1-.42-0.64,4.47,4.47,0,0,1-1.07.64,4,4,0,0,1-1.55.25,3,3,0,0,1-1.49-.32,1.85,1.85,0,0,1-.8-0.81,2.27,2.27,0,0,1-.23-1,2.06,2.06,0,0,1,.39-1.29,3,3,0,0,1,1.06-.84,14.41,14.41,0,0,1,1.76-.67l0.94-.3,0.48-.16a2.39,2.39,0,0,0,.33-0.15,1.61,1.61,0,0,0-.25-1,1.26,1.26,0,0,0-1.08-.35,3.91,3.91,0,0,0-1.82.43,6.39,6.39,0,0,0-1.54,1.11V183a5.48,5.48,0,0,1,1.21-.65,7.19,7.19,0,0,1,1.35-.38,8.38,8.38,0,0,1,1.43-.12,4.47,4.47,0,0,1,2.76.71,2.33,2.33,0,0,1,.93,2v3.26a2.17,2.17,0,0,0,.09.7,0.32,0.32,0,0,0,.32.23,1.87,1.87,0,0,0,.77-0.24V190Zm-4.17-1.62v-2a8.34,8.34,0,0,0-1.55.78,1.09,1.09,0,0,0-.49.93,0.85,0.85,0,0,0,.24.65,0.84,0.84,0,0,0,.57.22,1.22,1.22,0,0,0,.61-0.17A5.42,5.42,0,0,0,74.89,188.36Z" transform="translate(0 0)"/>
<path class="cls-1" style="fill:#a9b0c0" d="M89.27,190.41h-3v-4.56a3,3,0,0,0-.23-1.22,1,1,0,0,0-1-.52,1.42,1.42,0,0,0-.64.14,1.78,1.78,0,0,0-.5.35,3.9,3.9,0,0,0-.37.41l-0.31.43v5h-3v-8.46h3v1.21a4.38,4.38,0,0,1,1.42-1.06,4,4,0,0,1,1.58-.3q3,0,3,3.64v5Z" transform="translate(0 0)"/>
<path class="cls-1" style="fill:#a9b0c0" d="M98.3,190c-0.25.09-.51,0.18-0.79,0.26a6.93,6.93,0,0,1-.93.2,7.47,7.47,0,0,1-1.13.08,5.35,5.35,0,0,1-2.35-.47,3.92,3.92,0,0,1-1.48-1.18,4.37,4.37,0,0,1-.72-1.45,5.09,5.09,0,0,1-.2-1.31,4.9,4.9,0,0,1,.2-1.3,4.32,4.32,0,0,1,.71-1.43,3.87,3.87,0,0,1,1.46-1.16,5.42,5.42,0,0,1,2.37-.46,7.09,7.09,0,0,1,1.53.13,10.16,10.16,0,0,1,1.19.36v2.35a8.14,8.14,0,0,0-2.28-.46,2.25,2.25,0,0,0-1.42.48,1.77,1.77,0,0,0-.62,1.49,2,2,0,0,0,.31,1.14,1.82,1.82,0,0,0,.78.67,2.24,2.24,0,0,0,.95.22,4.45,4.45,0,0,0,1-.13q0.58-.14,1.4-0.38V190Z" transform="translate(0 0)"/>
<path class="cls-1" style="fill:#a9b0c0" d="M108.53,190c-0.44.17-.84,0.31-1.21,0.41a4.87,4.87,0,0,1-1.34.16,1.58,1.58,0,0,1-1-.26,1.51,1.51,0,0,1-.41-0.64,4.54,4.54,0,0,1-1.07.64,4,4,0,0,1-1.54.25,3,3,0,0,1-1.49-.32,1.82,1.82,0,0,1-.79-0.81,2.27,2.27,0,0,1-.23-1,2,2,0,0,1,.39-1.29,2.94,2.94,0,0,1,1.06-.84,14.17,14.17,0,0,1,1.76-.67l0.94-.3,0.48-.16a2.36,2.36,0,0,0,.33-0.15,1.64,1.64,0,0,0-.25-1,1.28,1.28,0,0,0-1.08-.35,3.9,3.9,0,0,0-1.82.43,6.3,6.3,0,0,0-1.54,1.11V183a5.31,5.31,0,0,1,1.21-.65,7.11,7.11,0,0,1,1.35-.38,8.38,8.38,0,0,1,1.43-.12,4.48,4.48,0,0,1,2.76.71,2.33,2.33,0,0,1,.92,2v3.26a2.1,2.1,0,0,0,.09.7,0.32,0.32,0,0,0,.32.23,1.83,1.83,0,0,0,.76-0.24V190Zm-4.16-1.62v-2a8.33,8.33,0,0,0-1.55.78,1.09,1.09,0,0,0-.49.93,0.85,0.85,0,0,0,.24.65,0.84,0.84,0,0,0,.57.22,1.24,1.24,0,0,0,.61-0.17A5.61,5.61,0,0,0,104.37,188.36Z" transform="translate(0 0)"/>
<path class="cls-1" style="fill:#a9b0c0" d="M120.26,188.07a0.85,0.85,0,0,0,.25.65,0.84,0.84,0,0,0,.57.22,1.23,1.23,0,0,0,.61-0.17,5.51,5.51,0,0,0,.62-0.41v-2a8.34,8.34,0,0,0-1.55.78A1.09,1.09,0,0,0,120.26,188.07Z" transform="translate(0 0)"/>
<path class="cls-1" style="fill:#a9b0c0" d="M131.31,48.35c13.72,0,24.48-10.36,24.48-24.18S145,0,131.31,0s-24.48,10.36-24.48,24.17S117.59,48.35,131.31,48.35Z" transform="translate(0 0)"/>
<path class="cls-1" style="fill:#a9b0c0" d="M140.61,188.07a0.85,0.85,0,0,0,.24.65,0.84,0.84,0,0,0,.57.22,1.22,1.22,0,0,0,.61-0.17,5.89,5.89,0,0,0,.62-0.41v-2a8.18,8.18,0,0,0-1.55.78A1.09,1.09,0,0,0,140.61,188.07Z" transform="translate(0 0)"/>
<path class="cls-1" style="fill:#a9b0c0" d="M174.69,59.14a67.55,67.55,0,0,0-23.55,4.1V53.55H113.06V66.73a53.88,53.88,0,0,0-27.58-7.54c-7.32,0-12.14,1.14-15,2.29V89.64C72.77,88.31,76.62,87,83.36,87c12,0,21.2,8.56,21.2,20.74s-9.25,20.74-21.2,20.74c-14.64,0-21.77-10.27-21.77-24.54V26.18H30.76v85.14c0,29.68,25.82,44.9,53.18,44.9a54.87,54.87,0,0,0,29.12-7.93v55.12h39.28v-92c0-14.27,7.13-24.55,21.77-24.55,11.95,0,21.2,8.56,21.2,20.74s-9.25,20.74-21.2,20.74c-6.74,0-10.6-1.33-12.91-2.66v28.16c2.89,1.14,7.71,2.28,15,2.28,24.47,0,49.9-16.55,49.9-48.33C226.14,80.06,204.56,59.14,174.69,59.14ZM126.47,190c-0.44.17-.84,0.31-1.21,0.41a4.89,4.89,0,0,1-1.34.16,1.57,1.57,0,0,1-1-.26,1.54,1.54,0,0,1-.42-0.64,4.55,4.55,0,0,1-1.07.64,4,4,0,0,1-1.55.25,3.05,3.05,0,0,1-1.49-.32,1.85,1.85,0,0,1-.8-0.81,2.29,2.29,0,0,1-.23-1,2.06,2.06,0,0,1,.39-1.29,3,3,0,0,1,1.06-.84,14.76,14.76,0,0,1,1.76-.67l0.95-.3,0.47-.16a2.19,2.19,0,0,0,.33-0.15,1.62,1.62,0,0,0-.25-1,1.27,1.27,0,0,0-1.08-.35,3.91,3.91,0,0,0-1.82.43,6.31,6.31,0,0,0-1.54,1.11V183a5.41,5.41,0,0,1,1.2-.65,7.28,7.28,0,0,1,1.36-.38,8.36,8.36,0,0,1,1.43-.12,4.47,4.47,0,0,1,2.76.71,2.32,2.32,0,0,1,.92,2v3.26a2.08,2.08,0,0,0,.09.7,0.32,0.32,0,0,0,.32.23,1.84,1.84,0,0,0,.77-0.24V190Zm4.17,0.42h-3V178.89h3v11.52Zm5.28,0h-3V178.89h3v11.52Zm10.9-.42c-0.43.17-.84,0.31-1.21,0.41a4.85,4.85,0,0,1-1.34.16,1.58,1.58,0,0,1-1-.26,1.55,1.55,0,0,1-.42-0.64,4.52,4.52,0,0,1-1.07.64,4,4,0,0,1-1.55.25,3.05,3.05,0,0,1-1.49-.32,1.85,1.85,0,0,1-.8-0.81,2.35,2.35,0,0,1-.23-1,2,2,0,0,1,.4-1.29,2.9,2.9,0,0,1,1.06-.84,14.33,14.33,0,0,1,1.76-.67l0.94-.3,0.48-.16a2.35,2.35,0,0,0,.33-0.15,1.62,1.62,0,0,0-.25-1,1.27,1.27,0,0,0-1.08-.35,3.92,3.92,0,0,0-1.82.43,6.28,6.28,0,0,0-1.54,1.11V183a5.27,5.27,0,0,1,1.2-.65,7.21,7.21,0,0,1,1.35-.38,8.43,8.43,0,0,1,1.43-.12,4.48,4.48,0,0,1,2.76.71,2.33,2.33,0,0,1,.93,2v3.26a2.08,2.08,0,0,0,.09.7,0.32,0.32,0,0,0,.32.23,1.84,1.84,0,0,0,.76-0.24V190Z" transform="translate(0 0)"/>
<path class="cls-1" style="fill:#a9b0c0" d="M171.49,190.41h-3v-4.51a2.5,2.5,0,0,0-.29-1.35,1,1,0,0,0-.94-0.44,1.44,1.44,0,0,0-1,.38,6.19,6.19,0,0,0-.79,1v5h-3v-4.51a2.61,2.61,0,0,0-.27-1.32,1,1,0,0,0-1-.47,1.39,1.39,0,0,0-.61.13,1.73,1.73,0,0,0-.45.3,4,4,0,0,0-.42.49l-0.32.41v5h-3v-8.46h3v1.21a4.59,4.59,0,0,1,1.37-1,3.76,3.76,0,0,1,1.61-.32,4.31,4.31,0,0,1,.83.08,3.14,3.14,0,0,1,.76.27,2.39,2.39,0,0,1,.69.52,2.57,2.57,0,0,1,.49.77,5.5,5.5,0,0,1,1.5-1.23,3.71,3.71,0,0,1,1.79-.42,3.25,3.25,0,0,1,1.7.41,2.47,2.47,0,0,1,1,1.18,4.72,4.72,0,0,1,.33,1.86v5.16Z" transform="translate(0 0)"/>
<path class="cls-1" style="fill:#a9b0c0" d="M182.68,186.17a4.54,4.54,0,0,1-.55,2.25,3.89,3.89,0,0,1-1.64,1.56,6.5,6.5,0,0,1-5.32,0,3.88,3.88,0,0,1-1.64-1.56,4.62,4.62,0,0,1-.54-2.25,4.76,4.76,0,0,1,.3-1.74,3.79,3.79,0,0,1,.92-1.38,4.14,4.14,0,0,1,1.52-.93,6.95,6.95,0,0,1,4.21,0,4.13,4.13,0,0,1,1.52.92,3.84,3.84,0,0,1,.91,1.38A4.78,4.78,0,0,1,182.68,186.17Zm-3.15,0a2.51,2.51,0,0,0-.44-1.57,1.69,1.69,0,0,0-2.53,0,3.06,3.06,0,0,0,0,3.15,1.65,1.65,0,0,0,2.52,0A2.52,2.52,0,0,0,179.52,186.17Z" transform="translate(0 0)"/>
<path class="cls-1" style="fill:#a9b0c0" d="M193.59,186.23a4.69,4.69,0,0,1-.57,2.44,3.59,3.59,0,0,1-1.46,1.42,3.9,3.9,0,0,1-1.81.46,3.79,3.79,0,0,1-1.15-.15,3,3,0,0,1-.75-0.33,5.38,5.38,0,0,1-.56-0.43v0.76h-3V178.89h3v3.56a3.17,3.17,0,0,1,.92-0.45,4.65,4.65,0,0,1,3.15.17,3.54,3.54,0,0,1,1.27,1,4.25,4.25,0,0,1,.74,1.41A5.6,5.6,0,0,1,193.59,186.23Zm-3.15-.07a2.47,2.47,0,0,0-.49-1.66,1.48,1.48,0,0,0-1.16-.57,2.87,2.87,0,0,0-1.51.54v3.23a2.13,2.13,0,0,0,1.51.6,1.72,1.72,0,0,0,1.1-.46A2.1,2.1,0,0,0,190.44,186.17Z" transform="translate(0 0)"/>
<path class="cls-1" style="fill:#a9b0c0" d="M198.36,190.41h-3v-8.46h3v8.46ZM198.12,180a1.18,1.18,0,0,1-.37.89,1.22,1.22,0,0,1-.89.36,1.26,1.26,0,0,1-.63-0.16,1.25,1.25,0,0,1-.45-0.45,1.27,1.27,0,0,1-.17-0.64,1.23,1.23,0,0,1,.37-0.89,1.24,1.24,0,0,1,1.78,0A1.19,1.19,0,0,1,198.12,180Z" transform="translate(0 0)"/>
<path class="cls-1" style="fill:#a9b0c0" d="M203.64,190.41h-3V178.89h3v11.52Z" transform="translate(0 0)"/>
<path class="cls-1" style="fill:#a9b0c0" d="M208.91,190.41h-3v-8.46h3v8.46ZM208.67,180a1.21,1.21,0,0,1-.37.89,1.23,1.23,0,0,1-.89.36,1.28,1.28,0,0,1-.64-0.16,1.26,1.26,0,0,1-.45-0.45,1.29,1.29,0,0,1-.16-0.64,1.23,1.23,0,0,1,.36-0.89,1.22,1.22,0,0,1,.89-0.38,1.23,1.23,0,0,1,.89.38A1.22,1.22,0,0,1,208.67,180Z" transform="translate(0 0)"/>
<path class="cls-1" style="fill:#a9b0c0" d="M217.71,189.92a6.79,6.79,0,0,1-1.28.43,6.39,6.39,0,0,1-1.57.21c-2.15,0-3.23-1.05-3.23-3.15V184h-1.35V183.5l4-4.09h0.34v2.53h2.85V184h-2.85v2.7a4.09,4.09,0,0,0,.06.76,0.77,0.77,0,0,0,.33.49,1.38,1.38,0,0,0,.82.2,4.4,4.4,0,0,0,1.88-.6v2.34Z" transform="translate(0 0)"/>
<path class="cls-1" style="fill:#a9b0c0" d="M227.87,190c-0.44.17-.84,0.31-1.21,0.41a4.88,4.88,0,0,1-1.34.16,1.58,1.58,0,0,1-1-.26,1.53,1.53,0,0,1-.41-0.64,4.56,4.56,0,0,1-1.07.64,4,4,0,0,1-1.54.25,3,3,0,0,1-1.49-.32,1.83,1.83,0,0,1-.8-0.81,2.32,2.32,0,0,1-.23-1,2,2,0,0,1,.39-1.29,2.93,2.93,0,0,1,1.06-.84,14.15,14.15,0,0,1,1.76-.67l0.94-.3,0.48-.16a2.46,2.46,0,0,0,.33-0.15,1.63,1.63,0,0,0-.25-1,1.27,1.27,0,0,0-1.08-.35,3.92,3.92,0,0,0-1.82.43,6.33,6.33,0,0,0-1.53,1.11V183a5.43,5.43,0,0,1,1.2-.65,7.2,7.2,0,0,1,1.35-.38,8.37,8.37,0,0,1,1.43-.12,4.46,4.46,0,0,1,2.76.71,2.33,2.33,0,0,1,.93,2v3.26a2.12,2.12,0,0,0,.09.7,0.32,0.32,0,0,0,.32.23,1.83,1.83,0,0,0,.76-0.24V190Zm-3-9.16h-1.59l-3.06-2.64h3.23Zm-1.12,7.54v-2a8.29,8.29,0,0,0-1.56.78,1.1,1.1,0,0,0-.49.93,0.8,0.8,0,0,0,.82.88,1.22,1.22,0,0,0,.61-0.17A5.62,5.62,0,0,0,223.7,188.36Z" transform="translate(0 0)"/></svg>
