<svg xmlns="http://www.w3.org/2000/svg" viewBox="0 0 228 203"><path class="cls-1" d="M11 189.5a8.6 8.6 0 0 1-1.4.6 9.5 9.5 0 0 1-1.5.4 12.8 12.8 0 0 1-1.6 0 8.2 8.2 0 0 1-2.7-.4 5.9 5.9 0 0 1-2-1.2A5.2 5.2 0 0 1 .4 187a6.3 6.3 0 0 1-.4-2.4 6.2 6.2 0 0 1 .5-2.6 5 5 0 0 1 1.5-1.8 6.1 6.1 0 0 1 2.1-1.1 8.8 8.8 0 0 1 2.5-.4 13.6 13.6 0 0 1 4.5 1v3a11.7 11.7 0 0 0-1.7-1 5 5 0 0 0-2-.3 4.4 4.4 0 0 0-2 .4 3.5 3.5 0 0 0-1.3 1.2 3 3 0 0 0-.1 3.3 3.2 3.2 0 0 0 1.3 1.1 4 4 0 0 0 1.9.5 6 6 0 0 0 1.5-.2 7 7 0 0 0 1.3-.5 12 12 0 0 0 1-.6v3zm10.7.5l-1.2.4a4.9 4.9 0 0 1-1.3.2 1.6 1.6 0 0 1-1-.3 1.5 1.5 0 0 1-.4-.6 4.5 4.5 0 0 1-1.1.6 4 4 0 0 1-1.6.3 3 3 0 0 1-1.4-.4 1.9 1.9 0 0 1-.8-.8 2.3 2.3 0 0 1-.3-1 2 2 0 0 1 .4-1.3 3 3 0 0 1 1-.8 14.3 14.3 0 0 1 1.8-.7l1-.3.5-.1a2 2 0 0 0 .3-.2 1.6 1.6 0 0 0-.3-1 1.3 1.3 0 0 0-1-.3 4 4 0 0 0-1.9.4 6.4 6.4 0 0 0-1.5 1.1V183a5.4 5.4 0 0 1 1.2-.7 7.1 7.1 0 0 1 1.4-.3 8.4 8.4 0 0 1 1.4-.2 4.5 4.5 0 0 1 2.8.8 2.3 2.3 0 0 1 .9 2v3.2a2 2 0 0 0 0 .7.3.3 0 0 0 .4.2 1.8 1.8 0 0 0 .8-.2v1.5zm-4.1-1.6v-2a8.3 8.3 0 0 0-1.6.8 1 1 0 0 0-.5.9.8.8 0 0 0 .3.6.8.8 0 0 0 .6.3 1.2 1.2 0 0 0 .6-.2 5.7 5.7 0 0 0 .6-.4zm12.8-6l-1 3a2 2 0 0 0-1.4-.7 1.6 1.6 0 0 0-1.1.5 4.2 4.2 0 0 0-1 1.6v3.6H23v-8.5h3v2a4.2 4.2 0 0 1 1-1.4 2.3 2.3 0 0 1 1.7-.8 2.4 2.4 0 0 1 .9.2 6.6 6.6 0 0 1 .8.5zm7.5 7.5a7 7 0 0 1-1.3.4 6.5 6.5 0 0 1-1.5.3q-3.3 0-3.3-3.2V184h-1.3v-.5l4-4h.3v2.4h2.9v2.1h-2.9v2.7a3.8 3.8 0 0 0 0 .8.8.8 0 0 0 .4.4 1.4 1.4 0 0 0 .8.2 4.4 4.4 0 0 0 2-.6v2.4zm10.2.1l-1.2.4a4.9 4.9 0 0 1-1.4.2 1.6 1.6 0 0 1-1-.3 1.5 1.5 0 0 1-.4-.6 4.6 4.6 0 0 1-1 .6 4 4 0 0 1-1.6.3 3 3 0 0 1-1.5-.4 1.8 1.8 0 0 1-.8-.8 2.3 2.3 0 0 1-.2-1 2 2 0 0 1 .4-1.3 3 3 0 0 1 1-.8 14.4 14.4 0 0 1 1.8-.7l1-.3.4-.1a2.4 2.4 0 0 0 .3-.2 1.6 1.6 0 0 0-.2-1 1.3 1.3 0 0 0-1.1-.3 4 4 0 0 0-1.8.4 6.3 6.3 0 0 0-1.6 1.1V183a5.3 5.3 0 0 1 1.2-.7 7.2 7.2 0 0 1 1.4-.3 8.3 8.3 0 0 1 1.4-.2 4.5 4.5 0 0 1 2.8.8 2.3 2.3 0 0 1 1 2v3.2a2 2 0 0 0 0 .7.3.3 0 0 0 .3.2 1.9 1.9 0 0 0 .8-.2v1.5zm-4.2-1.6v-2a8.3 8.3 0 0 0-1.5.8 1 1 0 0 0-.5.9.8.8 0 0 0 .2.6.8.8 0 0 0 .6.3 1.2 1.2 0 0 0 .6-.2 5.5 5.5 0 0 0 .6-.4zm19.6-2.2a4.7 4.7 0 0 1-.5 2.5 3.6 3.6 0 0 1-1.5 1.4 4 4 0 0 1-1.8.4 3.8 3.8 0 0 1-1.2-.1 3.2 3.2 0 0 1-.7-.3 6 6 0 0 1-.6-.5v.8h-3v-11.5h3v3.5a3.2 3.2 0 0 1 1-.4 4.7 4.7 0 0 1 3 .2 3.5 3.5 0 0 1 1.3 1 4.3 4.3 0 0 1 .8 1.4 5.5 5.5 0 0 1 .2 1.6zm-3.1 0a2.5 2.5 0 0 0-.5-1.7 1.5 1.5 0 0 0-1.2-.6 2.9 2.9 0 0 0-1.5.6v3.2a2.1 2.1 0 0 0 1.5.6 1.7 1.7 0 0 0 1.1-.5 2.1 2.1 0 0 0 .6-1.6zm7.8 4.2h-3V182h3v8.5zM68 180a1.2 1.2 0 0 1-.4.9 1.2 1.2 0 0 1-.9.3 1.3 1.3 0 0 1-.6-.1 1.2 1.2 0 0 1-.4-.5 1.3 1.3 0 0 1-.2-.6 1.2 1.2 0 0 1 .4-.9 1.2 1.2 0 0 1 .8-.4 1.2 1.2 0 0 1 1 .4 1.2 1.2 0 0 1 .3.9zm11 10l-1.2.4a4.8 4.8 0 0 1-1.3.2 1.6 1.6 0 0 1-1-.3 1.5 1.5 0 0 1-.4-.6 4.5 4.5 0 0 1-1 .6 4 4 0 0 1-1.6.3 3 3 0 0 1-1.5-.4 1.9 1.9 0 0 1-.8-.8 2.3 2.3 0 0 1-.3-1 2 2 0 0 1 .4-1.3 3 3 0 0 1 1-.8 14.4 14.4 0 0 1 1.9-.7l.9-.3.5-.1a2.4 2.4 0 0 0 .3-.2 1.6 1.6 0 0 0-.2-1 1.3 1.3 0 0 0-1.1-.3 4 4 0 0 0-1.8.4 6.4 6.4 0 0 0-1.6 1.1V183a5.5 5.5 0 0 1 1.2-.7 7.2 7.2 0 0 1 1.4-.3 8.4 8.4 0 0 1 1.4-.2 4.5 4.5 0 0 1 2.8.8 2.3 2.3 0 0 1 .9 2v3.2a2.2 2.2 0 0 0 0 .7.3.3 0 0 0 .4.2 1.9 1.9 0 0 0 .8-.2v1.5zm-4.1-1.6v-2a8.3 8.3 0 0 0-1.6.8 1 1 0 0 0-.4.9.8.8 0 0 0 .2.6.8.8 0 0 0 .6.3 1.2 1.2 0 0 0 .6-.2 5.4 5.4 0 0 0 .6-.4zm14.4 2h-3v-4.6a3 3 0 0 0-.3-1.2 1 1 0 0 0-1-.5 1.4 1.4 0 0 0-.6.1 1.8 1.8 0 0 0-.5.4 3.9 3.9 0 0 0-.4.4l-.3.4v5h-3V182h3v1.2a4.4 4.4 0 0 1 1.4-1 4 4 0 0 1 1.6-.4q3 0 3 3.7v5zm9-.4c-.3 0-.5.2-.8.3a7 7 0 0 1-1 .2 7.5 7.5 0 0 1-1 0 5.3 5.3 0 0 1-2.4-.4 4 4 0 0 1-1.5-1.2 4.4 4.4 0 0 1-.7-1.5 5 5 0 0 1-.2-1.3 4.9 4.9 0 0 1 .2-1.3 4.3 4.3 0 0 1 .7-1.4 3.9 3.9 0 0 1 1.5-1.2 5.4 5.4 0 0 1 2.3-.4 7 7 0 0 1 1.6.1 10.2 10.2 0 0 1 1.2.4v2.3a8.1 8.1 0 0 0-2.3-.4 2.3 2.3 0 0 0-1.4.4 1.8 1.8 0 0 0-.7 1.5 2 2 0 0 0 .3 1.2 1.8 1.8 0 0 0 .8.6 2.2 2.2 0 0 0 1 .3 4.5 4.5 0 0 0 1-.2l1.4-.4v2.4zm10.2 0l-1.2.4a4.9 4.9 0 0 1-1.3.2 1.6 1.6 0 0 1-1-.3 1.5 1.5 0 0 1-.4-.6 4.5 4.5 0 0 1-1.1.6 4 4 0 0 1-1.5.3 3 3 0 0 1-1.5-.4 1.8 1.8 0 0 1-.8-.8 2.3 2.3 0 0 1-.2-1 2 2 0 0 1 .3-1.3 3 3 0 0 1 1.1-.8 14.2 14.2 0 0 1 1.8-.7l.9-.3.5-.1a2.4 2.4 0 0 0 .3-.2 1.6 1.6 0 0 0-.2-1 1.3 1.3 0 0 0-1.1-.3 3.9 3.9 0 0 0-1.8.4 6.3 6.3 0 0 0-1.6 1.1V183a5.3 5.3 0 0 1 1.2-.7 7.1 7.1 0 0 1 1.4-.3 8.4 8.4 0 0 1 1.4-.2 4.5 4.5 0 0 1 2.8.8 2.3 2.3 0 0 1 .9 2v3.2a2.1 2.1 0 0 0 0 .7.3.3 0 0 0 .4.2 1.8 1.8 0 0 0 .8-.2v1.5zm-4.1-1.6v-2a8.3 8.3 0 0 0-1.6.8 1 1 0 0 0-.5.9.8.8 0 0 0 .3.6.8.8 0 0 0 .5.3 1.2 1.2 0 0 0 .7-.2 5.6 5.6 0 0 0 .6-.4zm15.9-.3a.8.8 0 0 0 .2.6.8.8 0 0 0 .6.2 1.2 1.2 0 0 0 .6-.1 5.5 5.5 0 0 0 .6-.4v-2a8.3 8.3 0 0 0-1.5.7 1 1 0 0 0-.5 1zm11-139.8c13.7 0 24.5-10.3 24.5-24.1S145 0 131.3 0s-24.5 10.4-24.5 24.2 10.8 24.2 24.5 24.2zm9.3 139.8a.8.8 0 0 0 .3.6.8.8 0 0 0 .5.2 1.2 1.2 0 0 0 .6-.1 5.9 5.9 0 0 0 .7-.4v-2a8.2 8.2 0 0 0-1.6.7 1 1 0 0 0-.5 1z" fill="#a9b0c0"/><path class="cls-1" d="M174.7 59.1a67.5 67.5 0 0 0-23.6 4.1v-9.7h-38v13.2a53.9 53.9 0 0 0-27.6-7.5 41 41 0 0 0-15 2.3v28.1c2.3-1.3 6.1-2.6 12.9-2.6 12 0 21.2 8.6 21.2 20.7s-9.3 20.8-21.2 20.8c-14.7 0-21.8-10.3-21.8-24.6V26.2H30.8v85.1c0 29.7 25.8 45 53.1 45a54.9 54.9 0 0 0 29.2-8v55.1h39.2v-92c0-14.3 7.2-24.5 21.8-24.5 12 0 21.2 8.5 21.2 20.7s-9.2 20.7-21.2 20.7c-6.7 0-10.6-1.3-12.9-2.6v28.1c2.9 1.2 7.7 2.3 15 2.3 24.5 0 49.9-16.5 49.9-48.3 0-27.7-21.5-48.7-51.4-48.7zM126.5 190l-1.2.4a4.9 4.9 0 0 1-1.4.2 1.6 1.6 0 0 1-1-.3 1.5 1.5 0 0 1-.4-.6 4.5 4.5 0 0 1-1 .6 4 4 0 0 1-1.6.3 3 3 0 0 1-1.5-.4 1.9 1.9 0 0 1-.8-.8 2.3 2.3 0 0 1-.2-1 2 2 0 0 1 .4-1.3 3 3 0 0 1 1-.8 14.8 14.8 0 0 1 1.8-.7l1-.3.4-.1a2.2 2.2 0 0 0 .3-.2 1.6 1.6 0 0 0-.2-1 1.3 1.3 0 0 0-1.1-.3 4 4 0 0 0-1.8.4 6.3 6.3 0 0 0-1.6 1.1V183a5.4 5.4 0 0 1 1.2-.7 7.3 7.3 0 0 1 1.4-.3 8.4 8.4 0 0 1 1.4-.2 4.5 4.5 0 0 1 2.8.8 2.3 2.3 0 0 1 .9 2v3.2a2 2 0 0 0 0 .7.3.3 0 0 0 .4.2 1.8 1.8 0 0 0 .8-.2v1.5zm4.1.4h-3V179h3v11.5zm5.3 0h-3V179h3v11.5zm11-.4l-1.3.4a4.8 4.8 0 0 1-1.3.2 1.6 1.6 0 0 1-1-.3 1.6 1.6 0 0 1-.5-.6 4.5 4.5 0 0 1-1 .6 4 4 0 0 1-1.6.3 3 3 0 0 1-1.5-.4 1.9 1.9 0 0 1-.8-.8 2.4 2.4 0 0 1-.2-1 2 2 0 0 1 .4-1.3 2.9 2.9 0 0 1 1-.8 14.3 14.3 0 0 1 1.8-.7l1-.3.4-.1a2.4 2.4 0 0 0 .4-.2 1.6 1.6 0 0 0-.3-1 1.3 1.3 0 0 0-1-.3 4 4 0 0 0-1.9.4 6.3 6.3 0 0 0-1.5 1.1V183a5.3 5.3 0 0 1 1.2-.7 7.2 7.2 0 0 1 1.3-.3 8.4 8.4 0 0 1 1.5-.2 4.5 4.5 0 0 1 2.7.8 2.3 2.3 0 0 1 1 2v3.2a2 2 0 0 0 0 .7.3.3 0 0 0 .4.2 1.8 1.8 0 0 0 .7-.2v1.5z" fill="#a9b0c0"/><path class="cls-1" d="M171.5 190.4h-3V186a2.5 2.5 0 0 0-.3-1.4 1 1 0 0 0-1-.4 1.4 1.4 0 0 0-1 .4 6.2 6.2 0 0 0-.7 1v5h-3V186a2.6 2.6 0 0 0-.3-1.3 1 1 0 0 0-1-.5 1.4 1.4 0 0 0-.6.1 1.7 1.7 0 0 0-.5.3 4 4 0 0 0-.4.5l-.3.4v5h-3v-8.4h3v1.2a4.6 4.6 0 0 1 1.4-1 3.8 3.8 0 0 1 1.6-.3 4.3 4.3 0 0 1 .8 0 3.1 3.1 0 0 1 .8.3 2.4 2.4 0 0 1 .7.5 2.6 2.6 0 0 1 .5.8 5.5 5.5 0 0 1 1.5-1.2 3.7 3.7 0 0 1 1.7-.5 3.3 3.3 0 0 1 1.7.5 2.5 2.5 0 0 1 1 1.1 4.7 4.7 0 0 1 .4 1.9v5.2zm11.2-4.2a4.5 4.5 0 0 1-.6 2.2 3.9 3.9 0 0 1-1.6 1.6 6.5 6.5 0 0 1-5.3 0 3.9 3.9 0 0 1-1.7-1.6 4.6 4.6 0 0 1-.5-2.2 4.8 4.8 0 0 1 .3-1.8 3.8 3.8 0 0 1 1-1.4 4.1 4.1 0 0 1 1.4-.9 7 7 0 0 1 4.2 0 4.1 4.1 0 0 1 1.6 1 3.8 3.8 0 0 1 .9 1.3 4.8 4.8 0 0 1 .3 1.8zm-3.2 0a2.5 2.5 0 0 0-.4-1.6 1.7 1.7 0 0 0-2.5 0 3 3 0 0 0 0 3.1 1.6 1.6 0 0 0 2.5 0 2.5 2.5 0 0 0 .4-1.5zm14 0a4.7 4.7 0 0 1-.5 2.5 3.6 3.6 0 0 1-1.4 1.4 3.9 3.9 0 0 1-1.8.4 3.8 3.8 0 0 1-1.2-.1 3 3 0 0 1-.8-.3 5.4 5.4 0 0 1-.5-.5v.8h-3v-11.5h3v3.5a3.2 3.2 0 0 1 1-.4 4.7 4.7 0 0 1 3 .2 3.5 3.5 0 0 1 1.3 1 4.3 4.3 0 0 1 .8 1.4 5.6 5.6 0 0 1 .2 1.6zm-3 0a2.5 2.5 0 0 0-.6-1.7 1.5 1.5 0 0 0-1.1-.6 2.9 2.9 0 0 0-1.5.6v3.2a2.1 2.1 0 0 0 1.5.6 1.7 1.7 0 0 0 1-.5 2.1 2.1 0 0 0 .6-1.6zm7.9 4.2h-3V182h3v8.5zM198 180a1.2 1.2 0 0 1-.3.9 1.2 1.2 0 0 1-1 .3 1.3 1.3 0 0 1-.6-.1 1.3 1.3 0 0 1-.4-.5 1.3 1.3 0 0 1-.2-.6 1.2 1.2 0 0 1 .4-.9 1.2 1.2 0 0 1 1.8 0 1.2 1.2 0 0 1 .3.9zm5.5 10.4h-3V179h3v11.5zm5.3 0h-3V182h3v8.5zm-.2-10.4a1.2 1.2 0 0 1-.4.9 1.2 1.2 0 0 1-.9.3 1.3 1.3 0 0 1-.6-.1 1.3 1.3 0 0 1-.5-.5 1.3 1.3 0 0 1-.1-.6 1.2 1.2 0 0 1 .3-.9 1.2 1.2 0 0 1 1-.4 1.2 1.2 0 0 1 .8.4 1.2 1.2 0 0 1 .4.9zm9 10a6.8 6.8 0 0 1-1.3.3 6.4 6.4 0 0 1-1.5.3c-2.2 0-3.3-1-3.3-3.2V184h-1.3v-.5l4-4h.3v2.4h2.9v2.1h-2.9v2.7a4 4 0 0 0 0 .8.8.8 0 0 0 .4.4 1.4 1.4 0 0 0 .8.2 4.4 4.4 0 0 0 2-.6v2.4zm10.2 0l-1.2.4a4.9 4.9 0 0 1-1.4.2 1.6 1.6 0 0 1-1-.3 1.5 1.5 0 0 1-.4-.6 4.6 4.6 0 0 1-1 .6 4 4 0 0 1-1.6.3 3 3 0 0 1-1.5-.4 1.8 1.8 0 0 1-.8-.8 2.3 2.3 0 0 1-.2-1 2 2 0 0 1 .4-1.3 3 3 0 0 1 1-.8 14.2 14.2 0 0 1 1.8-.7l1-.3.4-.1a2.5 2.5 0 0 0 .3-.2 1.6 1.6 0 0 0-.2-1 1.3 1.3 0 0 0-1-.3 4 4 0 0 0-2 .4 6.3 6.3 0 0 0-1.4 1.1V183a5.4 5.4 0 0 1 1.2-.7 7.2 7.2 0 0 1 1.3-.3 8.4 8.4 0 0 1 1.4-.2 4.5 4.5 0 0 1 2.8.8 2.3 2.3 0 0 1 1 2v3.2a2.1 2.1 0 0 0 0 .7.3.3 0 0 0 .3.2 1.8 1.8 0 0 0 .8-.2v1.5zm-3-9.2h-1.6l-3-2.6h3.1zm-1.2 7.6v-2a8.3 8.3 0 0 0-1.5.8 1.1 1.1 0 0 0-.5.9.8.8 0 0 0 .8.9 1.2 1.2 0 0 0 .6-.2 5.6 5.6 0 0 0 .6-.4z" fill="#a9b0c0"/></svg>