<?xml version="1.0" encoding="UTF-8"?>
<!DOCTYPE svg PUBLIC "-//W3C//DTD SVG 1.1//EN" "http://www.w3.org/Graphics/SVG/1.1/DTD/svg11.dtd">
<!-- Creator: CorelDRAW X7 -->
<svg xmlns="http://www.w3.org/2000/svg" xml:space="preserve" width="2117px" height="642px" version="1.1" style="shape-rendering:geometricPrecision; text-rendering:geometricPrecision; image-rendering:optimizeQuality; fill-rule:evenodd; clip-rule:evenodd"
viewBox="0 0 2117 642"
 xmlns:xlink="http://www.w3.org/1999/xlink">
 <defs>
  <style type="text/css">
   <![CDATA[
    .str0 {stroke:#BCBDBD;stroke-width:10.6635}
    .str1 {stroke:#E31E24;stroke-width:7.99733}
    .str2 {stroke:#0079BF;stroke-width:7.99733}
    .fil3 {fill:none;fill-rule:nonzero}
    .fil0 {fill:#2B2A29}
    .fil2 {fill:#BCBDBD;fill-rule:nonzero}
    .fil1 {fill:#2B2A29;fill-rule:nonzero}
    .fil4 {fill:#E31E24;fill-rule:nonzero}
    .fil5 {fill:#0079BF;fill-rule:nonzero}
   ]]>
  </style>
 </defs>
 <g id="Livello_x0020_1">
  <metadata id="CorelCorpID_0Corel-Layer"/>
  <path class="fil0" d="M744 500l0 68c0,15 2,24 4,27 4,6 9,8 16,8l7 0 0 6 -80 0 0 -6 7 0c8,0 14,-3 17,-10 2,-3 3,-12 3,-25l0 -152c0,-15 -1,-24 -4,-27 -4,-5 -9,-8 -16,-8l-7 0 0 -6 69 0c17,0 30,2 39,6 10,5 18,12 25,22 7,10 10,23 10,37 0,19 -5,34 -15,46 -10,12 -25,18 -43,18 -5,0 -9,0 -15,-1 -5,-1 -11,-2 -17,-3zm0 -10c5,1 10,2 13,2 4,1 7,1 10,1 10,0 18,-5 25,-14 7,-9 10,-21 10,-36 0,-10 -1,-20 -5,-28 -3,-9 -8,-15 -14,-20 -6,-4 -13,-6 -21,-6 -4,0 -10,1 -18,3l0 98z"/>
  <path class="fil1" d="M932 603l0 6 -81 0 0 -6 7 0c7,0 13,-3 17,-8 2,-4 3,-13 3,-27l0 -152c0,-12 -1,-20 -2,-23 -1,-3 -3,-6 -6,-8 -4,-3 -8,-4 -12,-4l-7 0 0 -6 81 0 0 6 -7 0c-8,0 -14,3 -17,9 -2,3 -4,12 -4,26l0 152c0,12 1,20 2,23 1,3 3,6 6,8 4,3 8,4 13,4l7 0z"/>
  <path class="fil1" d="M998 387l0 93 41 0c11,0 18,-2 21,-6 5,-5 8,-14 9,-28l5 0 0 82 -5 0c-2,-12 -3,-19 -4,-22 -2,-4 -5,-7 -9,-10 -3,-2 -9,-3 -17,-3l-41 0 0 77c0,11 0,17 1,19 1,3 2,4 4,6 2,1 5,2 10,2l32 0c11,0 18,-1 23,-3 5,-2 10,-6 14,-11 6,-7 12,-18 18,-32l5 0 -16 58 -145 0 0 -6 7 0c4,0 9,-1 13,-4 2,-2 4,-5 5,-8 2,-4 2,-11 2,-23l0 -152c0,-15 -1,-25 -3,-28 -4,-5 -9,-7 -17,-7l-7 0 0 -6 145 0 2 51 -5 0c-2,-12 -4,-21 -7,-25 -2,-5 -6,-9 -10,-11 -4,-2 -10,-3 -20,-3l-51 0z"/>
  <path class="fil1" d="M1228 609l-73 -197 0 157c0,14 1,23 4,27 3,5 9,7 16,7l7 0 0 6 -66 0 0 -6 7 0c8,0 14,-3 17,-9 2,-4 3,-12 3,-25l0 -154c0,-10 -1,-18 -3,-22 -1,-4 -3,-6 -7,-8 -3,-3 -9,-4 -17,-4l0 -6 54 0 68 183 67 -183 53 0 0 6 -6 0c-9,0 -14,3 -18,9 -2,4 -3,12 -3,25l0 154c0,14 2,23 4,27 4,5 9,7 17,7l6 0 0 6 -80 0 0 -6 7 0c8,0 14,-3 17,-9 2,-4 3,-12 3,-25l0 -157 -73 197 -4 0z"/>
  <path class="fil0" d="M1468 369c24,0 45,12 63,35 18,23 27,52 27,87 0,35 -9,65 -27,89 -18,23 -40,35 -65,35 -26,0 -48,-12 -66,-35 -17,-23 -26,-52 -26,-89 0,-37 10,-68 30,-91 18,-21 39,-31 64,-31zm-3 13c-17,0 -30,8 -40,23 -13,20 -19,48 -19,85 0,39 6,68 19,89 10,16 24,24 40,24 18,0 32,-9 44,-26 11,-17 17,-45 17,-82 0,-40 -6,-70 -19,-90 -10,-15 -24,-23 -42,-23z"/>
  <path class="fil1" d="M1565 375l51 0 115 176 0 -136c0,-14 -1,-23 -4,-27 -3,-5 -9,-7 -16,-7l-7 0 0 -6 66 0 0 6 -7 0c-8,0 -13,3 -17,9 -2,4 -3,12 -3,25l0 198 -5 0 -124 -189 0 145c0,14 2,23 4,27 4,5 9,7 16,7l7 0 0 6 -65 0 0 -6 6 0c8,0 14,-3 17,-9 2,-4 3,-12 3,-25l0 -164c-5,-7 -9,-13 -12,-15 -3,-3 -7,-5 -13,-7 -2,-1 -6,-2 -12,-2l0 -6z"/>
  <path class="fil1" d="M1938 375l2 55 -5 0c-1,-10 -3,-17 -4,-21 -3,-7 -7,-12 -12,-15 -5,-3 -11,-5 -19,-5l-26 0 0 180c0,14 1,23 4,27 3,5 9,7 16,7l6 0 0 6 -79 0 0 -6 6 0c8,0 14,-3 17,-9 2,-4 3,-12 3,-25l0 -180 -22 0c-9,0 -15,1 -19,3 -5,2 -9,6 -12,12 -4,7 -6,15 -6,26l-6 0 3 -55 153 0z"/>
  <path class="fil1" d="M2006 387l0 93 42 0c10,0 18,-2 21,-6 5,-5 8,-14 8,-28l5 0 0 82 -5 0c-1,-12 -2,-19 -4,-22 -1,-4 -4,-7 -8,-10 -4,-2 -10,-3 -17,-3l-42 0 0 77c0,11 1,17 1,19 1,3 3,4 4,6 2,1 6,2 11,2l32 0c10,0 18,-1 23,-3 5,-2 9,-6 14,-11 5,-7 11,-18 17,-32l6 0 -16 58 -145 0 0 -6 7 0c4,0 8,-1 12,-4 3,-2 5,-5 6,-8 1,-4 2,-11 2,-23l0 -152c0,-15 -1,-25 -4,-28 -3,-5 -9,-7 -16,-7l-7 0 0 -6 145 0 2 51 -6 0c-2,-12 -4,-21 -6,-25 -2,-5 -6,-9 -11,-11 -3,-2 -10,-3 -19,-3l-52 0z"/>
  <path class="fil0" d="M907 306l-58 0 -73 -127c-5,1 -10,1 -13,1 -2,0 -3,0 -5,0 -1,0 -3,0 -5,-1l0 79c0,17 2,28 5,32 4,6 10,9 18,9l8 0 0 7 -92 0 0 -7 8 0c9,0 16,-4 20,-12 2,-4 3,-14 3,-29l0 -175c0,-17 -2,-27 -5,-31 -4,-6 -10,-9 -18,-9l-8 0 0 -8 79 0c23,0 40,2 50,7 11,4 21,12 28,23 8,11 12,24 12,40 0,17 -5,31 -13,43 -9,13 -22,21 -41,26l45 78c10,18 19,29 26,35 8,6 17,10 29,12l0 7zm-154 -139c2,0 4,0 6,0 1,0 2,0 3,0 21,0 36,-6 47,-17 10,-11 16,-25 16,-42 0,-17 -5,-31 -13,-42 -8,-10 -20,-15 -34,-15 -6,0 -14,1 -25,3l0 113z"/>
  <path class="fil1" d="M973 50l0 107 47 0c12,0 21,-2 25,-7 5,-6 8,-17 9,-32l6 0 0 94 -6 0c-1,-13 -3,-22 -4,-25 -2,-5 -5,-9 -10,-11 -4,-3 -11,-4 -20,-4l-47 0 0 89c0,12 0,19 1,22 1,2 2,4 4,6 2,1 6,2 12,2l37 0c12,0 21,-1 27,-3 5,-2 11,-6 16,-13 6,-8 13,-20 20,-37l6 0 -18 68 -167 0 0 -7 8 0c5,0 10,-2 14,-5 4,-2 6,-5 7,-10 1,-4 2,-13 2,-26l0 -176c0,-17 -2,-27 -4,-31 -4,-6 -10,-8 -19,-8l-8 0 0 -8 167 0 2 60 -6 0c-2,-15 -5,-24 -8,-30 -2,-5 -6,-9 -12,-12 -4,-2 -11,-3 -22,-3l-59 0z"/>
  <path class="fil1" d="M1305 29l5 86 -5 0c-6,-22 -13,-38 -22,-49 -13,-15 -30,-23 -50,-23 -28,0 -48,14 -63,41 -12,23 -18,50 -18,82 0,26 4,50 12,71 8,21 18,37 31,47 13,10 27,15 40,15 8,0 16,-2 23,-4 8,-3 15,-7 22,-11l0 -79c0,-13 -1,-22 -3,-26 -1,-4 -4,-8 -7,-10 -4,-2 -10,-3 -18,-3l0 -8 83 0 0 8 -4 0c-8,0 -14,3 -17,10 -2,5 -3,15 -3,29l0 83c-12,8 -24,14 -36,18 -12,4 -25,6 -40,6 -42,0 -73,-17 -95,-50 -16,-25 -25,-54 -25,-87 0,-24 5,-47 14,-69 11,-26 26,-46 45,-59 16,-12 34,-18 56,-18 8,0 15,1 21,3 7,1 16,5 28,10 6,3 10,4 12,4 2,0 4,-1 5,-3 1,-2 2,-7 3,-14l6 0z"/>
  <path class="fil1" d="M1441 299l0 7 -93 0 0 -7 8 0c9,0 15,-4 19,-10 3,-5 4,-15 4,-31l0 -175c0,-13 -1,-23 -2,-27 -1,-3 -3,-6 -7,-8 -4,-4 -9,-5 -14,-5l-8 0 0 -8 93 0 0 8 -8 0c-9,0 -15,3 -19,10 -3,4 -4,14 -4,30l0 175c0,14 0,23 2,27 1,3 3,6 7,9 4,3 9,5 14,5l8 0z"/>
  <path class="fil0" d="M1568 29c28,0 53,14 73,40 21,27 31,60 31,100 0,41 -10,75 -31,102 -21,28 -46,41 -75,41 -30,0 -55,-13 -75,-40 -21,-26 -31,-60 -31,-102 0,-43 12,-78 35,-106 21,-23 45,-35 73,-35zm-3 15c-19,0 -35,9 -46,27 -15,22 -22,55 -22,98 0,44 7,78 23,102 11,18 26,27 46,27 20,0 37,-10 50,-30 13,-20 20,-51 20,-94 0,-46 -8,-80 -22,-103 -12,-18 -28,-27 -49,-27z"/>
  <path class="fil1" d="M1681 35l58 0 133 203 0 -156c0,-16 -2,-27 -5,-31 -4,-5 -10,-8 -18,-8l-8 0 0 -8 75 0 0 8 -7 0c-9,0 -16,3 -20,10 -2,4 -3,14 -3,29l0 228 -6 0 -143 -218 0 167c0,17 2,27 5,31 4,6 10,9 18,9l8 0 0 7 -75 0 0 -7 7 0c9,0 16,-4 20,-11 2,-4 3,-14 3,-29l0 -188c-6,-9 -11,-15 -14,-18 -3,-3 -8,-6 -14,-8 -3,-2 -8,-2 -14,-2l0 -8z"/>
  <path class="fil1" d="M1989 50l0 107 48 0c12,0 20,-2 25,-7 5,-6 8,-17 9,-32l6 0 0 94 -6 0c-2,-13 -3,-22 -5,-25 -1,-5 -5,-9 -9,-11 -4,-3 -11,-4 -20,-4l-48 0 0 89c0,12 1,19 2,22 0,2 2,4 4,6 2,1 6,2 12,2l37 0c12,0 21,-1 27,-3 5,-2 10,-6 16,-13 6,-8 13,-20 20,-37l6 0 -18 68 -167 0 0 -7 7 0c5,0 10,-2 15,-5 3,-2 6,-5 7,-10 1,-4 2,-13 2,-26l0 -176c0,-17 -2,-27 -4,-31 -4,-6 -11,-8 -20,-8l-7 0 0 -8 167 0 2 60 -6 0c-3,-15 -5,-24 -8,-30 -2,-5 -6,-9 -12,-12 -4,-2 -12,-3 -22,-3l-60 0z"/>
  <polygon class="fil2" points="6,635 643,635 643,6 6,6 "/>
  <polygon class="fil3 str0" points="6,635 643,635 643,6 6,6 "/>
  <polygon class="fil4" points="403,605 613,605 613,400 403,400 "/>
  <polygon class="fil3 str1" points="403,605 613,605 613,400 403,400 "/>
  <polygon class="fil4" points="37,605 247,605 247,400 37,400 "/>
  <polygon class="fil3 str1" points="37,605 247,605 247,400 37,400 "/>
  <polygon class="fil4" points="37,242 247,242 247,38 37,38 "/>
  <polygon class="fil3 str1" points="37,242 247,242 247,38 37,38 "/>
  <polygon class="fil4" points="403,242 613,242 613,38 403,38 "/>
  <polygon class="fil3 str1" points="403,242 613,242 613,38 403,38 "/>
  <polygon class="fil5" points="166,74 485,74 505,134 446,134 456,106 194,106 204,134 145,134 "/>
  <polygon class="fil3 str2" points="166,74 485,74 505,134 446,134 456,106 194,106 204,134 145,134 "/>
  <polygon class="fil5" points="306,108 297,134 354,134 344,107 "/>
  <polygon class="fil3 str2" points="306,108 297,134 354,134 344,107 "/>
 </g>
</svg>
