<?xml version="1.0" encoding="UTF-8" standalone="no"?>
<!-- Creator: CorelDRAW X7 -->

<svg
   xmlns:dc="http://purl.org/dc/elements/1.1/"
   xmlns:cc="http://creativecommons.org/ns#"
   xmlns:rdf="http://www.w3.org/1999/02/22-rdf-syntax-ns#"
   xmlns:svg="http://www.w3.org/2000/svg"
   xmlns="http://www.w3.org/2000/svg"
   xmlns:sodipodi="http://sodipodi.sourceforge.net/DTD/sodipodi-0.dtd"
   xmlns:inkscape="http://www.inkscape.org/namespaces/inkscape"
   xml:space="preserve"
   width="2117px"
   height="642px"
   version="1.1"
   style="shape-rendering:geometricPrecision; text-rendering:geometricPrecision; image-rendering:optimizeQuality; fill-rule:evenodd; clip-rule:evenodd"
   viewBox="0 0 2117 642"
   id="svg4136"
   inkscape:version="0.91 r13725"
   sodipodi:docname="RegPie_white.svg"><metadata
     id="metadata4204"><rdf:RDF><cc:Work
         rdf:about=""><dc:format>image/svg+xml</dc:format><dc:type
           rdf:resource="http://purl.org/dc/dcmitype/StillImage" /><dc:title /></cc:Work></rdf:RDF></metadata><sodipodi:namedview
     pagecolor="#ffffff"
     bordercolor="#666666"
     borderopacity="1"
     objecttolerance="10"
     gridtolerance="10"
     guidetolerance="10"
     inkscape:pageopacity="0"
     inkscape:pageshadow="2"
     inkscape:window-width="1920"
     inkscape:window-height="1017"
     id="namedview4202"
     showgrid="false"
     inkscape:zoom="0.65753425"
     inkscape:cx="1089.6799"
     inkscape:cy="321"
     inkscape:window-x="-8"
     inkscape:window-y="-8"
     inkscape:window-maximized="1"
     inkscape:current-layer="svg4136" /><defs
     id="defs4138"><style
       type="text/css"
       id="style4140"><![CDATA[
    .str0 {stroke:#BCBDBD;stroke-width:10.6635}
    .str1 {stroke:#E31E24;stroke-width:7.99733}
    .str2 {stroke:#0079BF;stroke-width:7.99733}
    .fil3 {fill:none;fill-rule:nonzero}
    .fil0 {fill:#2B2A29}
    .fil2 {fill:#BCBDBD;fill-rule:nonzero}
    .fil1 {fill:#2B2A29;fill-rule:nonzero}
    .fil4 {fill:#E31E24;fill-rule:nonzero}
    .fil5 {fill:#0079BF;fill-rule:nonzero}
   ]]></style></defs><g
     id="g4229"><path
       class="fil0"
       d="m 744,500 0,68 c 0,15 2,24 4,27 4,6 9,8 16,8 l 7,0 0,6 -80,0 0,-6 7,0 c 8,0 14,-3 17,-10 2,-3 3,-12 3,-25 l 0,-152 c 0,-15 -1,-24 -4,-27 -4,-5 -9,-8 -16,-8 l -7,0 0,-6 69,0 c 17,0 30,2 39,6 10,5 18,12 25,22 7,10 10,23 10,37 0,19 -5,34 -15,46 -10,12 -25,18 -43,18 -5,0 -9,0 -15,-1 -5,-1 -11,-2 -17,-3 z m 0,-10 c 5,1 10,2 13,2 4,1 7,1 10,1 10,0 18,-5 25,-14 7,-9 10,-21 10,-36 0,-10 -1,-20 -5,-28 -3,-9 -8,-15 -14,-20 -6,-4 -13,-6 -21,-6 -4,0 -10,1 -18,3 l 0,98 z"
       id="path4144"
       inkscape:connector-curvature="0"
       style="fill:#ffffff;fill-opacity:1;stroke:none;stroke-opacity:1" /><path
       class="fil1"
       d="m 932,603 0,6 -81,0 0,-6 7,0 c 7,0 13,-3 17,-8 2,-4 3,-13 3,-27 l 0,-152 c 0,-12 -1,-20 -2,-23 -1,-3 -3,-6 -6,-8 -4,-3 -8,-4 -12,-4 l -7,0 0,-6 81,0 0,6 -7,0 c -8,0 -14,3 -17,9 -2,3 -4,12 -4,26 l 0,152 c 0,12 1,20 2,23 1,3 3,6 6,8 4,3 8,4 13,4 l 7,0 z"
       id="path4146"
       inkscape:connector-curvature="0"
       style="fill:#ffffff;fill-opacity:1;fill-rule:nonzero;stroke:none;stroke-opacity:1" /><path
       class="fil1"
       d="m 998,387 0,93 41,0 c 11,0 18,-2 21,-6 5,-5 8,-14 9,-28 l 5,0 0,82 -5,0 c -2,-12 -3,-19 -4,-22 -2,-4 -5,-7 -9,-10 -3,-2 -9,-3 -17,-3 l -41,0 0,77 c 0,11 0,17 1,19 1,3 2,4 4,6 2,1 5,2 10,2 l 32,0 c 11,0 18,-1 23,-3 5,-2 10,-6 14,-11 6,-7 12,-18 18,-32 l 5,0 -16,58 -145,0 0,-6 7,0 c 4,0 9,-1 13,-4 2,-2 4,-5 5,-8 2,-4 2,-11 2,-23 l 0,-152 c 0,-15 -1,-25 -3,-28 -4,-5 -9,-7 -17,-7 l -7,0 0,-6 145,0 2,51 -5,0 c -2,-12 -4,-21 -7,-25 -2,-5 -6,-9 -10,-11 -4,-2 -10,-3 -20,-3 l -51,0 z"
       id="path4148"
       inkscape:connector-curvature="0"
       style="fill:#ffffff;fill-opacity:1;fill-rule:nonzero;stroke:none;stroke-opacity:1" /><path
       class="fil1"
       d="m 1228,609 -73,-197 0,157 c 0,14 1,23 4,27 3,5 9,7 16,7 l 7,0 0,6 -66,0 0,-6 7,0 c 8,0 14,-3 17,-9 2,-4 3,-12 3,-25 l 0,-154 c 0,-10 -1,-18 -3,-22 -1,-4 -3,-6 -7,-8 -3,-3 -9,-4 -17,-4 l 0,-6 54,0 68,183 67,-183 53,0 0,6 -6,0 c -9,0 -14,3 -18,9 -2,4 -3,12 -3,25 l 0,154 c 0,14 2,23 4,27 4,5 9,7 17,7 l 6,0 0,6 -80,0 0,-6 7,0 c 8,0 14,-3 17,-9 2,-4 3,-12 3,-25 l 0,-157 -73,197 -4,0 z"
       id="path4150"
       inkscape:connector-curvature="0"
       style="fill:#ffffff;fill-opacity:1;fill-rule:nonzero;stroke:none;stroke-opacity:1" /><path
       class="fil0"
       d="m 1468,369 c 24,0 45,12 63,35 18,23 27,52 27,87 0,35 -9,65 -27,89 -18,23 -40,35 -65,35 -26,0 -48,-12 -66,-35 -17,-23 -26,-52 -26,-89 0,-37 10,-68 30,-91 18,-21 39,-31 64,-31 z m -3,13 c -17,0 -30,8 -40,23 -13,20 -19,48 -19,85 0,39 6,68 19,89 10,16 24,24 40,24 18,0 32,-9 44,-26 11,-17 17,-45 17,-82 0,-40 -6,-70 -19,-90 -10,-15 -24,-23 -42,-23 z"
       id="path4152"
       inkscape:connector-curvature="0"
       style="fill:#ffffff;fill-opacity:1;stroke:none;stroke-opacity:1" /><path
       class="fil1"
       d="m 1565,375 51,0 115,176 0,-136 c 0,-14 -1,-23 -4,-27 -3,-5 -9,-7 -16,-7 l -7,0 0,-6 66,0 0,6 -7,0 c -8,0 -13,3 -17,9 -2,4 -3,12 -3,25 l 0,198 -5,0 -124,-189 0,145 c 0,14 2,23 4,27 4,5 9,7 16,7 l 7,0 0,6 -65,0 0,-6 6,0 c 8,0 14,-3 17,-9 2,-4 3,-12 3,-25 l 0,-164 c -5,-7 -9,-13 -12,-15 -3,-3 -7,-5 -13,-7 -2,-1 -6,-2 -12,-2 l 0,-6 z"
       id="path4154"
       inkscape:connector-curvature="0"
       style="fill:#ffffff;fill-opacity:1;fill-rule:nonzero;stroke:none;stroke-opacity:1" /><path
       class="fil1"
       d="m 1938,375 2,55 -5,0 c -1,-10 -3,-17 -4,-21 -3,-7 -7,-12 -12,-15 -5,-3 -11,-5 -19,-5 l -26,0 0,180 c 0,14 1,23 4,27 3,5 9,7 16,7 l 6,0 0,6 -79,0 0,-6 6,0 c 8,0 14,-3 17,-9 2,-4 3,-12 3,-25 l 0,-180 -22,0 c -9,0 -15,1 -19,3 -5,2 -9,6 -12,12 -4,7 -6,15 -6,26 l -6,0 3,-55 153,0 z"
       id="path4156"
       inkscape:connector-curvature="0"
       style="fill:#ffffff;fill-opacity:1;fill-rule:nonzero;stroke:none;stroke-opacity:1" /><path
       class="fil1"
       d="m 2006,387 0,93 42,0 c 10,0 18,-2 21,-6 5,-5 8,-14 8,-28 l 5,0 0,82 -5,0 c -1,-12 -2,-19 -4,-22 -1,-4 -4,-7 -8,-10 -4,-2 -10,-3 -17,-3 l -42,0 0,77 c 0,11 1,17 1,19 1,3 3,4 4,6 2,1 6,2 11,2 l 32,0 c 10,0 18,-1 23,-3 5,-2 9,-6 14,-11 5,-7 11,-18 17,-32 l 6,0 -16,58 -145,0 0,-6 7,0 c 4,0 8,-1 12,-4 3,-2 5,-5 6,-8 1,-4 2,-11 2,-23 l 0,-152 c 0,-15 -1,-25 -4,-28 -3,-5 -9,-7 -16,-7 l -7,0 0,-6 145,0 2,51 -6,0 c -2,-12 -4,-21 -6,-25 -2,-5 -6,-9 -11,-11 -3,-2 -10,-3 -19,-3 l -52,0 z"
       id="path4158"
       inkscape:connector-curvature="0"
       style="fill:#ffffff;fill-opacity:1;fill-rule:nonzero;stroke:none;stroke-opacity:1" /><path
       class="fil0"
       d="m 907,306 -58,0 -73,-127 c -5,1 -10,1 -13,1 -2,0 -3,0 -5,0 -1,0 -3,0 -5,-1 l 0,79 c 0,17 2,28 5,32 4,6 10,9 18,9 l 8,0 0,7 -92,0 0,-7 8,0 c 9,0 16,-4 20,-12 2,-4 3,-14 3,-29 l 0,-175 c 0,-17 -2,-27 -5,-31 -4,-6 -10,-9 -18,-9 l -8,0 0,-8 79,0 c 23,0 40,2 50,7 11,4 21,12 28,23 8,11 12,24 12,40 0,17 -5,31 -13,43 -9,13 -22,21 -41,26 l 45,78 c 10,18 19,29 26,35 8,6 17,10 29,12 l 0,7 z M 753,167 c 2,0 4,0 6,0 1,0 2,0 3,0 21,0 36,-6 47,-17 10,-11 16,-25 16,-42 0,-17 -5,-31 -13,-42 -8,-10 -20,-15 -34,-15 -6,0 -14,1 -25,3 l 0,113 z"
       id="path4160"
       inkscape:connector-curvature="0"
       style="fill:#ffffff;fill-opacity:1;stroke:none;stroke-opacity:1" /><path
       class="fil1"
       d="m 973,50 0,107 47,0 c 12,0 21,-2 25,-7 5,-6 8,-17 9,-32 l 6,0 0,94 -6,0 c -1,-13 -3,-22 -4,-25 -2,-5 -5,-9 -10,-11 -4,-3 -11,-4 -20,-4 l -47,0 0,89 c 0,12 0,19 1,22 1,2 2,4 4,6 2,1 6,2 12,2 l 37,0 c 12,0 21,-1 27,-3 5,-2 11,-6 16,-13 6,-8 13,-20 20,-37 l 6,0 -18,68 -167,0 0,-7 8,0 c 5,0 10,-2 14,-5 4,-2 6,-5 7,-10 1,-4 2,-13 2,-26 l 0,-176 c 0,-17 -2,-27 -4,-31 -4,-6 -10,-8 -19,-8 l -8,0 0,-8 167,0 2,60 -6,0 c -2,-15 -5,-24 -8,-30 -2,-5 -6,-9 -12,-12 -4,-2 -11,-3 -22,-3 l -59,0 z"
       id="path4162"
       inkscape:connector-curvature="0"
       style="fill:#ffffff;fill-opacity:1;fill-rule:nonzero;stroke:none;stroke-opacity:1" /><path
       class="fil1"
       d="m 1305,29 5,86 -5,0 c -6,-22 -13,-38 -22,-49 -13,-15 -30,-23 -50,-23 -28,0 -48,14 -63,41 -12,23 -18,50 -18,82 0,26 4,50 12,71 8,21 18,37 31,47 13,10 27,15 40,15 8,0 16,-2 23,-4 8,-3 15,-7 22,-11 l 0,-79 c 0,-13 -1,-22 -3,-26 -1,-4 -4,-8 -7,-10 -4,-2 -10,-3 -18,-3 l 0,-8 83,0 0,8 -4,0 c -8,0 -14,3 -17,10 -2,5 -3,15 -3,29 l 0,83 c -12,8 -24,14 -36,18 -12,4 -25,6 -40,6 -42,0 -73,-17 -95,-50 -16,-25 -25,-54 -25,-87 0,-24 5,-47 14,-69 11,-26 26,-46 45,-59 16,-12 34,-18 56,-18 8,0 15,1 21,3 7,1 16,5 28,10 6,3 10,4 12,4 2,0 4,-1 5,-3 1,-2 2,-7 3,-14 l 6,0 z"
       id="path4164"
       inkscape:connector-curvature="0"
       style="fill:#ffffff;fill-opacity:1;fill-rule:nonzero;stroke:none;stroke-opacity:1" /><path
       class="fil1"
       d="m 1441,299 0,7 -93,0 0,-7 8,0 c 9,0 15,-4 19,-10 3,-5 4,-15 4,-31 l 0,-175 c 0,-13 -1,-23 -2,-27 -1,-3 -3,-6 -7,-8 -4,-4 -9,-5 -14,-5 l -8,0 0,-8 93,0 0,8 -8,0 c -9,0 -15,3 -19,10 -3,4 -4,14 -4,30 l 0,175 c 0,14 0,23 2,27 1,3 3,6 7,9 4,3 9,5 14,5 l 8,0 z"
       id="path4166"
       inkscape:connector-curvature="0"
       style="fill:#ffffff;fill-opacity:1;fill-rule:nonzero;stroke:none;stroke-opacity:1" /><path
       class="fil0"
       d="m 1568,29 c 28,0 53,14 73,40 21,27 31,60 31,100 0,41 -10,75 -31,102 -21,28 -46,41 -75,41 -30,0 -55,-13 -75,-40 -21,-26 -31,-60 -31,-102 0,-43 12,-78 35,-106 21,-23 45,-35 73,-35 z m -3,15 c -19,0 -35,9 -46,27 -15,22 -22,55 -22,98 0,44 7,78 23,102 11,18 26,27 46,27 20,0 37,-10 50,-30 13,-20 20,-51 20,-94 0,-46 -8,-80 -22,-103 -12,-18 -28,-27 -49,-27 z"
       id="path4168"
       inkscape:connector-curvature="0"
       style="fill:#ffffff;fill-opacity:1;stroke:none;stroke-opacity:1" /><path
       class="fil1"
       d="m 1681,35 58,0 133,203 0,-156 c 0,-16 -2,-27 -5,-31 -4,-5 -10,-8 -18,-8 l -8,0 0,-8 75,0 0,8 -7,0 c -9,0 -16,3 -20,10 -2,4 -3,14 -3,29 l 0,228 -6,0 -143,-218 0,167 c 0,17 2,27 5,31 4,6 10,9 18,9 l 8,0 0,7 -75,0 0,-7 7,0 c 9,0 16,-4 20,-11 2,-4 3,-14 3,-29 l 0,-188 c -6,-9 -11,-15 -14,-18 -3,-3 -8,-6 -14,-8 -3,-2 -8,-2 -14,-2 l 0,-8 z"
       id="path4170"
       inkscape:connector-curvature="0"
       style="fill:#ffffff;fill-opacity:1;fill-rule:nonzero;stroke:none;stroke-opacity:1" /><path
       class="fil1"
       d="m 1989,50 0,107 48,0 c 12,0 20,-2 25,-7 5,-6 8,-17 9,-32 l 6,0 0,94 -6,0 c -2,-13 -3,-22 -5,-25 -1,-5 -5,-9 -9,-11 -4,-3 -11,-4 -20,-4 l -48,0 0,89 c 0,12 1,19 2,22 0,2 2,4 4,6 2,1 6,2 12,2 l 37,0 c 12,0 21,-1 27,-3 5,-2 10,-6 16,-13 6,-8 13,-20 20,-37 l 6,0 -18,68 -167,0 0,-7 7,0 c 5,0 10,-2 15,-5 3,-2 6,-5 7,-10 1,-4 2,-13 2,-26 l 0,-176 c 0,-17 -2,-27 -4,-31 -4,-6 -11,-8 -20,-8 l -7,0 0,-8 167,0 2,60 -6,0 c -3,-15 -5,-24 -8,-30 -2,-5 -6,-9 -12,-12 -4,-2 -12,-3 -22,-3 l -60,0 z"
       id="path4172"
       inkscape:connector-curvature="0"
       style="fill:#ffffff;fill-opacity:1;fill-rule:nonzero;stroke:none;stroke-opacity:1" /><polygon
       class="fil2"
       points="6,635 643,635 643,6 6,6 "
       id="polygon4174"
       style="fill:#bcbdbd;fill-rule:nonzero" /><polygon
       class="fil3 str0"
       points="6,635 643,635 643,6 6,6 "
       id="polygon4176"
       style="fill:none;fill-rule:nonzero;stroke:#bcbdbd;stroke-width:10.66349983" /><polygon
       class="fil4"
       points="403,605 613,605 613,400 403,400 "
       id="polygon4178"
       style="fill:#e31e24;fill-rule:nonzero" /><polygon
       class="fil3 str1"
       points="403,605 613,605 613,400 403,400 "
       id="polygon4180"
       style="fill:none;fill-rule:nonzero;stroke:#e31e24;stroke-width:7.99733019" /><polygon
       class="fil4"
       points="37,605 247,605 247,400 37,400 "
       id="polygon4182"
       style="fill:#e31e24;fill-rule:nonzero" /><polygon
       class="fil3 str1"
       points="37,605 247,605 247,400 37,400 "
       id="polygon4184"
       style="fill:none;fill-rule:nonzero;stroke:#e31e24;stroke-width:7.99733019" /><polygon
       class="fil4"
       points="37,242 247,242 247,38 37,38 "
       id="polygon4186"
       style="fill:#e31e24;fill-rule:nonzero" /><polygon
       class="fil3 str1"
       points="37,242 247,242 247,38 37,38 "
       id="polygon4188"
       style="fill:none;fill-rule:nonzero;stroke:#e31e24;stroke-width:7.99733019" /><polygon
       class="fil4"
       points="403,242 613,242 613,38 403,38 "
       id="polygon4190"
       style="fill:#e31e24;fill-rule:nonzero" /><polygon
       class="fil3 str1"
       points="403,242 613,242 613,38 403,38 "
       id="polygon4192"
       style="fill:none;fill-rule:nonzero;stroke:#e31e24;stroke-width:7.99733019" /><polygon
       class="fil5"
       points="456,106 194,106 204,134 145,134 166,74 485,74 505,134 446,134 "
       id="polygon4194"
       style="fill:#0079bf;fill-rule:nonzero" /><polygon
       class="fil3 str2"
       points="456,106 194,106 204,134 145,134 166,74 485,74 505,134 446,134 "
       id="polygon4196"
       style="fill:none;fill-rule:nonzero;stroke:#0079bf;stroke-width:7.99733019" /><polygon
       class="fil5"
       points="306,108 297,134 354,134 344,107 "
       id="polygon4198"
       style="fill:#0079bf;fill-rule:nonzero" /><polygon
       class="fil3 str2"
       points="306,108 297,134 354,134 344,107 "
       id="polygon4200"
       style="fill:none;fill-rule:nonzero;stroke:#0079bf;stroke-width:7.99733019" /></g></svg>