<svg xmlns="http://www.w3.org/2000/svg" width="2548" height="776" shape-rendering="geometricPrecision" text-rendering="geometricPrecision" image-rendering="optimizeQuality" fill-rule="evenodd" clip-rule="evenodd" viewBox="0 0 2618 797"><path fill="#C6C6C6" d="M656 616a37 37 0 1 0 0-74c-21 0-38 16-38 37s17 37 38 37zM479 75c21 0 37-17 37-38a37 37 0 1 0-74 0c0 21 16 38 37 38zm0 90c21 0 37-17 37-37 0-21-16-38-37-38s-37 17-37 37c0 21 16 38 37 38zm0 90c21 0 37-17 37-38a37 37 0 1 0-74 0c0 21 16 38 37 38zm0 90c21 0 37-16 37-37s-16-37-37-37-37 16-37 37 16 37 37 37zm-88 0a37 37 0 1 0 0-74c-21 0-38 16-38 37s17 37 38 37zm88 91c21 0 37-17 37-38a37 37 0 1 0-74 0c0 21 16 38 37 38zm-88 0a38 38 0 1 0-38-38c0 21 17 38 38 38zm88 180c21 0 37-16 37-37s-16-37-37-37-37 16-37 37 16 37 37 37zm0 90c21 0 37-16 37-37a37 37 0 1 0-74 0c0 21 16 37 37 37zm-88-541a38 38 0 0 0 0-75c-21 0-38 17-38 37 0 21 17 38 38 38zm0 90a38 38 0 1 0-38-38c0 21 17 38 38 38zM37 526c21 0 38-17 38-37 0-21-17-38-38-38a38 38 0 0 0 0 75zm265 271c21 0 37-17 37-38a37 37 0 1 0-74 0c0 21 16 38 37 38zm-88-361a38 38 0 1 0-38-38c0 21 17 38 38 38zm0 180a37 37 0 1 0 0-74c-21 0-38 16-38 37s17 37 38 37zm88 0c21 0 37-17 37-37 0-21-16-37-37-37s-37 16-37 37 16 37 37 37zm-88 90a37 37 0 1 0 0-74c-21 0-38 17-38 37 0 21 17 37 38 37zm88 0c21 0 37-16 37-37a37 37 0 1 0-74 0c0 21 16 37 37 37zm-88 91a38 38 0 1 0-38-38c0 21 17 38 38 38zm-88-361a38 38 0 1 0-38-38c0 21 17 38 38 38zm0 180a37 37 0 1 0 0-74c-21 0-38 16-38 37s17 37 38 37zm0 90a37 37 0 1 0 0-74c-21 0-38 17-38 37 0 21 17 37 38 37zm0 91a38 38 0 1 0-38-38c0 21 17 38 38 38zm441-452c21 0 38-16 38-37s-17-37-38-37a37 37 0 1 0 0 74zm0 91c21 0 38-17 38-38a38 38 0 1 0-38 38zm0 180c21 0 38-16 38-37s-17-37-38-37a37 37 0 1 0 0 74zm0 90c21 0 38-16 38-37a38 38 0 0 0-75 0c0 21 17 37 37 37z"/><path fill="#1961AC" d="M337 275h-68v160c0 11-9 20-20 21H90v68h192c14-1 55-11 55-65V275z"/><path fill="#C61532" d="M357 705h68V545c0-11 9-20 20-21h159v-68H412c-14 1-55 11-55 65v184z"/><path d="M794 437v-5c0-5 2-8 5-11 2-3 6-4 11-4h17c4 0 8 1 11 4s4 6 4 11v5c0 4-1 8-4 11s-7 4-11 4h-17c-5 0-9-1-11-4-3-3-5-7-5-11zm1 166V476l2-6 6-2h30l6 2c2 2 2 4 2 6v127c0 3 0 5-2 6-2 2-3 3-6 3h-30l-6-3-2-6zm83 0V473l2-6c2-2 4-2 6-2h30c2 0 4 0 6 2l2 6v8c16-12 32-19 49-19 18 0 32 5 43 16s16 27 16 49v76l-2 6-6 3h-30l-6-3-2-6v-76c0-22-9-33-26-33-11 0-23 7-36 20v89l-2 6-6 3h-30l-6-3-2-6zm267-4V432l3-9c3-2 6-4 9-4h103c54 0 81 25 81 75s-27 75-81 75h-65v30c0 4-1 7-3 9-3 2-6 4-9 4h-26c-3 0-6-2-9-4-2-2-3-5-3-9zm50-68h49c15 0 27-3 34-8 8-5 12-14 12-29 0-14-4-24-12-29-7-5-19-8-34-8h-49v74zm170-94v-5c0-5 2-8 5-11 2-3 6-4 11-4h17c4 0 8 1 11 4s4 6 4 11v5c0 4-1 8-4 11s-7 4-11 4h-17c-5 0-9-1-11-4-3-3-5-7-5-11zm1 166V476l2-6 6-2h30l6 2c2 2 2 4 2 6v127c0 3 0 5-2 6-1 2-3 3-6 3h-30l-6-3-2-6zm95-8c-14-13-20-32-20-57 0-24 6-43 20-56s33-20 58-20 44 6 58 19c13 13 20 32 20 55v8l-2 6c-2 2-4 2-6 2h-101c1 11 4 19 9 24 6 5 14 8 26 8s20-3 25-8c4-5 9-8 16-8h20c2 0 4 0 6 2l2 6c0 26-24 38-73 38-25 0-44-6-58-19zm27-71h62c-1-21-11-32-31-32s-30 11-31 32zm137 79V473c0-2 0-4 2-6s4-2 6-2h30c2 0 4 0 6 2l2 6v8c7-6 13-11 19-14s14-5 23-5c20 0 36 9 47 26 17-17 34-26 51-26 18 0 31 5 41 16 11 10 16 27 16 49v76c0 3-1 5-3 6-1 2-3 3-5 3h-30c-3 0-5-1-6-3-2-1-3-3-3-6v-76c0-22-7-33-23-33-10 0-19 7-29 21v88c0 3 0 5-2 6-2 2-3 3-6 3h-30l-6-3-2-6v-76c0-22-8-33-23-33-10 0-20 7-29 20v89l-2 6-6 3h-30c-3 0-5-1-6-3-2-1-2-3-2-6zm291-8c-14-13-21-32-21-57s7-44 21-57 34-19 60-19 46 6 60 19 21 32 21 57-7 44-21 57-34 19-60 19-46-6-60-19zm34-92c-5 8-8 19-8 35s3 28 8 35c6 7 14 11 26 11s21-4 27-11c5-7 8-19 8-35s-3-27-8-35c-6-7-15-11-27-11s-20 4-26 11zm135 100V473l2-6c2-2 4-2 6-2h30c2 0 4 0 6 2s2 4 2 6v8c16-12 32-19 49-19 18 0 32 5 43 16s16 27 16 49v76l-2 6-6 3h-30l-6-3-2-6v-76c0-22-9-33-26-33-11 0-23 7-36 20v89c0 3 0 5-2 6l-6 3h-30l-6-3-2-6zm260-20l18-2h5l6 2 3 6v14l-3 6-6 3-35 2c-39 0-58-20-58-60V428l2-6 6-3h30c3 0 5 1 6 3 2 1 3 3 3 6v44h37l6 3 2 6v16l-2 6-6 2h-37v49c0 9 2 16 6 21s10 8 17 8zm68 12c-14-13-21-32-21-57 0-24 7-43 21-56s33-20 57-20c25 0 44 6 58 19s21 32 21 55v8c0 3-1 5-3 6-1 2-3 2-6 2h-101c1 11 4 19 10 24 5 5 14 8 26 8s20-3 24-8c5-5 10-8 16-8h20c3 0 5 0 6 2l3 6c0 26-25 38-74 38-24 0-44-6-57-19zm26-71h62c0-21-11-32-31-32-19 0-30 11-31 32zM802 352V175c0-4 1-7 3-10 3-3 6-4 10-4h58c4 0 7 1 10 4 4 3 6 6 7 9l42 122 42-122c1-3 4-6 7-9s7-4 10-4h58c4 0 7 1 10 4 2 3 4 6 4 10v177c0 4-2 7-4 9-3 3-6 4-10 4h-26c-3 0-6-1-9-4-3-2-4-5-4-9V212l-50 141-7 9c-4 2-7 3-11 3h-20c-4 0-7-1-11-3l-7-9-50-141v140c0 4-1 7-4 9-2 3-6 4-9 4h-26c-4 0-7-1-9-4-3-2-4-5-4-9zm299-52v-82c0-3 0-5 2-6l6-3h32c3 0 5 1 6 3 2 1 3 3 3 6v82c0 22 9 34 27 34 12 0 25-7 38-21v-95c0-3 1-5 3-6l6-3h32c2 0 5 1 6 3 2 1 3 3 3 6v139l-3 6c-1 2-4 2-6 2h-32c-2 0-4 0-6-2l-3-6v-9a81 81 0 0 1-52 20c-18 0-33-5-45-17-12-11-17-28-17-51zm212 48c-15-14-22-34-22-61 0-26 7-47 22-60 15-14 36-21 64-21s49 7 64 21c15 13 22 34 22 60 0 27-7 47-22 61-15 13-36 20-64 20s-49-7-64-20zm36-98c-6 8-9 20-9 37s3 29 9 37 15 12 28 12 22-4 28-12 9-20 9-37-3-29-9-37-15-11-28-11-22 3-28 11zm130-41h28c4 0 8 1 11 4 4 2 6 5 8 9l39 88 39-88c1-4 4-7 7-9 4-3 8-4 12-4h27c4 0 6 1 7 4l1 3-2 6-61 131c-2 4-5 7-8 9l-12 3h-21c-4 0-7-1-11-3s-6-5-8-9l-61-131-2-6c0-4 2-7 7-7zm209 138c-14-13-22-33-22-60 0-26 8-46 23-60 14-14 35-21 61-21s46 7 61 21c15 13 22 33 22 58v8c0 3-1 5-3 7-1 2-3 2-6 2h-107c1 12 4 21 10 26s15 8 27 8c13 0 22-3 26-9 5-5 11-8 18-8h21c2 0 4 0 6 2l3 6c0 28-26 41-78 41-27 0-47-7-62-21zm28-75h67c-1-22-12-33-33-33s-32 11-34 33zm251-27l-22-1c-13 0-25 7-37 22v91c0 2 0 4-2 6s-4 2-6 2h-32c-3 0-5 0-6-2l-3-6V218c0-3 1-5 3-6 1-2 3-3 6-3h32l6 3c2 1 2 3 2 6v9c10-7 19-12 28-16 9-3 21-5 36-5l6 3c2 1 3 3 3 6v22l-3 6c-2 2-4 2-6 2h-5zm25 7c0-30 25-46 74-46 52 0 79 14 79 41 0 3-1 5-3 6-1 2-4 3-6 3h-21c-7 0-13-3-18-9-4-5-13-8-27-8-19 0-28 4-28 13 0 5 3 8 11 11 7 3 16 5 27 7 10 3 21 5 31 9 11 3 20 8 27 16 8 7 11 16 11 27 0 31-26 46-78 46s-79-13-79-41l3-6c2-2 4-2 6-2h22c6 0 12 2 17 8 4 6 14 9 27 9 22 0 33-5 33-14 0-4-4-8-11-11l-27-7-32-8c-10-4-19-9-27-16-7-8-11-17-11-28zm184-73v-5c0-5 1-9 4-12 3-2 7-4 12-4h18c5 0 9 2 12 4 3 3 4 7 4 12v5c0 5-1 9-4 12s-7 5-12 5h-18c-5 0-9-2-12-5s-4-7-4-12zm0 178V221l3-6c1-2 3-2 6-2h32c2 0 4 0 6 2l3 6v136l-3 6c-2 2-4 2-6 2h-32c-3 0-5 0-6-2l-3-6z" fill="#1961AC" fill-rule="nonzero"/><path fill="none" d="M0 0h2618v797H0z"/></svg>