<svg id="Livello_1" data-name="Livello 1" xmlns="http://www.w3.org/2000/svg" viewBox="0 0 260 81.3"><title>logo_MIP</title>
<path class="cls-1" style="fill:#1961ac"  d="M81.68,45.59a1.56,1.56,0,0,0,1.17.44h1.73a1.56,1.56,0,0,0,1.18-.44,1.65,1.65,0,0,0,.42-1.2V43.91a1.63,1.63,0,0,0-.43-1.2,1.58,1.58,0,0,0-1.17-.43H82.85a1.56,1.56,0,0,0-1.18.44,1.65,1.65,0,0,0-.42,1.2V44.4a1.64,1.64,0,0,0,.43,1.2h0Zm-0.14,16.7a0.83,0.83,0,0,0,.61.24h3.12a0.84,0.84,0,0,0,.61-0.24,0.81,0.81,0,0,0,.24-0.61V48.53a0.83,0.83,0,0,0-.24-0.6,0.82,0.82,0,0,0-.61-0.24H82.15a0.84,0.84,0,0,0-.61.24,0.81,0.81,0,0,0-.24.61V61.68a0.82,0.82,0,0,0,.24.61h0Zm8.3,0a0.83,0.83,0,0,0,.61.24h3.12a0.84,0.84,0,0,0,.61-0.24,0.82,0.82,0,0,0,.24-0.61V52.35a5.57,5.57,0,0,1,3.73-2q2.66,0,2.66,3.33v8a0.83,0.83,0,0,0,.24.61,0.82,0.82,0,0,0,.61.24h3.11a0.85,0.85,0,0,0,.62-0.24,0.82,0.82,0,0,0,.24-0.61v-8a6.75,6.75,0,0,0-1.7-5A6.37,6.37,0,0,0,99.3,47a7.55,7.55,0,0,0-4.87,2V48.13a0.85,0.85,0,0,0-.24-0.62,0.82,0.82,0,0,0-.61-0.24H90.45a0.82,0.82,0,0,0-.61.24,0.84,0.84,0,0,0-.24.62V61.68a0.83,0.83,0,0,0,.24.61h0Zm27-.15a1.29,1.29,0,0,0,.93.38h2.62a1.31,1.31,0,0,0,1.31-1.31V58.08h6.67q8.43,0,8.42-7.77t-8.42-7.77H117.74a1.23,1.23,0,0,0-.92.39,1.3,1.3,0,0,0-.38.93V61.22a1.25,1.25,0,0,0,.39.93h0ZM121.7,46.5h5.08a6.56,6.56,0,0,1,3.55.79q1.21,0.79,1.21,3t-1.21,3a6.56,6.56,0,0,1-3.55.79H121.7V46.5h0Zm17.8-.9a1.56,1.56,0,0,0,1.17.44h1.73a1.55,1.55,0,0,0,1.18-.44,1.65,1.65,0,0,0,.42-1.2V43.91a1.63,1.63,0,0,0-.43-1.2,1.58,1.58,0,0,0-1.17-.43h-1.73a1.56,1.56,0,0,0-1.18.44,1.65,1.65,0,0,0-.42,1.2V44.4a1.64,1.64,0,0,0,.43,1.2h0Zm-0.14,16.7a0.83,0.83,0,0,0,.61.24h3.12a0.84,0.84,0,0,0,.61-0.24,0.81,0.81,0,0,0,.24-0.61V48.53a0.83,0.83,0,0,0-.24-0.6,0.82,0.82,0,0,0-.61-0.24H140a0.84,0.84,0,0,0-.61.24,0.81,0.81,0,0,0-.24.61V61.68a0.82,0.82,0,0,0,.24.61h0Zm15.34,0.51q7.62,0,7.62-3.93a0.92,0.92,0,0,0-.24-0.66,0.81,0.81,0,0,0-.62-0.26h-2.08a2,2,0,0,0-1.6.75,3.37,3.37,0,0,1-2.73.93,3.88,3.88,0,0,1-2.58-.73,3.31,3.31,0,0,1-1-2.32H162a0.83,0.83,0,0,0,.62-0.25,0.87,0.87,0,0,0,.24-0.64V54.9A7.73,7.73,0,0,0,160.69,49a9.75,9.75,0,0,0-12,0,7.77,7.77,0,0,0-2.16,5.91,7.63,7.63,0,0,0,2.15,5.86,8.44,8.44,0,0,0,6,2h0Zm0-12.66q3.08,0,3.22,3.29h-6.48q0.17-3.29,3.25-3.29h0Zm10.93,12.15a0.83,0.83,0,0,0,.61.24h3.12a0.84,0.84,0,0,0,.61-0.24,0.82,0.82,0,0,0,.24-0.61V52.35q1.42-2,3-2,2.42,0,2.42,3.33v8a0.82,0.82,0,0,0,.24.61,0.84,0.84,0,0,0,.62.24h3.11a0.84,0.84,0,0,0,.61-0.24,0.82,0.82,0,0,0,.24-0.61v-8a8.62,8.62,0,0,0-.08-1.2q1.57-2.13,3.05-2.13,2.42,0,2.42,3.33v8a0.82,0.82,0,0,0,.24.61,0.84,0.84,0,0,0,.62.24h3.11a0.81,0.81,0,0,0,.85-0.85v-8q0-3.43-1.58-5.06A5.73,5.73,0,0,0,184.73,47q-2.7,0-5.29,2.67A5.44,5.44,0,0,0,174.52,47a4.85,4.85,0,0,0-2.33.52,9,9,0,0,0-2,1.5V48.13a0.85,0.85,0,0,0-.24-0.62,0.82,0.82,0,0,0-.61-0.24h-3.12a0.82,0.82,0,0,0-.61.24,0.84,0.84,0,0,0-.24.62V61.68a0.83,0.83,0,0,0,.24.61h0Zm36,0.52a8.9,8.9,0,0,0,6.25-2A7.65,7.65,0,0,0,210,54.89,7.63,7.63,0,0,0,207.86,49a10.77,10.77,0,0,0-12.5,0,7.64,7.64,0,0,0-2.17,5.91,7.66,7.66,0,0,0,2.17,5.91,8.87,8.87,0,0,0,6.25,2h0Zm0-12.66a3.24,3.24,0,0,1,2.74,1.13,5.93,5.93,0,0,1,.87,3.61,6,6,0,0,1-.87,3.62,3.84,3.84,0,0,1-5.46,0,6,6,0,0,1-.87-3.62,6,6,0,0,1,.87-3.61,3.22,3.22,0,0,1,2.73-1.13h0Zm11.23,12.15a0.83,0.83,0,0,0,.61.24h3.12a0.84,0.84,0,0,0,.61-0.24,0.82,0.82,0,0,0,.24-0.61V52.35a5.57,5.57,0,0,1,3.73-2q2.66,0,2.66,3.33v8a0.83,0.83,0,0,0,.24.61,0.82,0.82,0,0,0,.61.24h3.11a0.85,0.85,0,0,0,.62-0.24,0.82,0.82,0,0,0,.24-0.61v-8a6.75,6.75,0,0,0-1.7-5A6.37,6.37,0,0,0,222.29,47a7.55,7.55,0,0,0-4.87,2V48.13a0.85,0.85,0,0,0-.24-0.62,0.82,0.82,0,0,0-.61-0.24h-3.12a0.82,0.82,0,0,0-.61.24,0.84,0.84,0,0,0-.24.62V61.68a0.83,0.83,0,0,0,.24.61h0ZM238,62.81a20.51,20.51,0,0,0,3.71-.27,1.1,1.1,0,0,0,.62-0.28,0.72,0.72,0,0,0,.24-0.54V60.26a0.78,0.78,0,0,0-.24-0.6,0.87,0.87,0,0,0-.62-0.23h-0.52a7.8,7.8,0,0,0-.91.08,8,8,0,0,1-1,.08,2.23,2.23,0,0,1-1.78-.78,3.32,3.32,0,0,1-.67-2.22V51.43h3.89a0.83,0.83,0,0,0,.61-0.24,0.82,0.82,0,0,0,.24-0.62V48.91a0.81,0.81,0,0,0-.85-0.85h-3.89V43.42a0.85,0.85,0,0,0-.24-0.62,0.82,0.82,0,0,0-.61-0.24h-3.12a0.82,0.82,0,0,0-.61.24,0.84,0.84,0,0,0-.24.62V56.54q0,6.28,6,6.27h0Zm13.83,0q7.62,0,7.62-3.93a0.93,0.93,0,0,0-.24-0.66,0.81,0.81,0,0,0-.62-0.26h-2.08a2,2,0,0,0-1.6.75,3.37,3.37,0,0,1-2.73.93,3.88,3.88,0,0,1-2.58-.73,3.31,3.31,0,0,1-1-2.32h10.49a0.83,0.83,0,0,0,.62-0.25,0.87,0.87,0,0,0,.24-0.64V54.9A7.73,7.73,0,0,0,257.85,49a9.75,9.75,0,0,0-12,0,7.77,7.77,0,0,0-2.16,5.91,7.63,7.63,0,0,0,2.15,5.86,8.44,8.44,0,0,0,6,2h0Zm0-12.66q3.08,0,3.22,3.29h-6.48q0.17-3.29,3.25-3.29h0Z"/>
<path class="cls-1" style="fill:#1961ac"  d="M82,36.92a1.39,1.39,0,0,0,1,.4h2.68a1.36,1.36,0,0,0,1-.4,1.34,1.34,0,0,0,.41-1V21.68L92.24,36a2.2,2.2,0,0,0,.72.93,1.72,1.72,0,0,0,1.07.39h2.08a1.76,1.76,0,0,0,1.08-.39A2.07,2.07,0,0,0,97.9,36L103,21.68V35.92a1.34,1.34,0,0,0,.41,1,1.37,1.37,0,0,0,1,.4h2.69a1.37,1.37,0,0,0,1-.4,1.34,1.34,0,0,0,.41-1V17.83a1.4,1.4,0,0,0-.39-1,1.28,1.28,0,0,0-1-.41h-6a1.73,1.73,0,0,0-1.09.41,2,2,0,0,0-.69,1L95.08,30.25,90.74,17.8a2,2,0,0,0-.69-1A1.72,1.72,0,0,0,89,16.41H83a1.3,1.3,0,0,0-1,.41,1.39,1.39,0,0,0-.4,1V35.92a1.33,1.33,0,0,0,.42,1h0Zm31.93-1a6.67,6.67,0,0,0,4.85,1.73,7.88,7.88,0,0,0,5.1-2.12v0.94a0.88,0.88,0,0,0,.25.64,0.85,0.85,0,0,0,.64.26h3.25a0.89,0.89,0,0,0,.65-0.25,0.86,0.86,0,0,0,.26-0.64V22.25a0.87,0.87,0,0,0-.9-0.9h-3.25a0.86,0.86,0,0,0-.63.25,0.88,0.88,0,0,0-.26.65V32q-2.1,2.1-3.92,2.1-2.77,0-2.77-3.49V22.24A0.89,0.89,0,0,0,117,21.6a0.85,0.85,0,0,0-.64-0.25h-3.27a0.86,0.86,0,0,0-.63.26,0.88,0.88,0,0,0-.26.65V30.6q0,3.56,1.78,5.28h0Zm26.47,1.73q4.27,0,6.54-2.1t2.27-6.19q0-4.09-2.27-6.18t-6.54-2.09q-4.27,0-6.54,2.09t-2.27,6.18q0,4.09,2.27,6.19t6.54,2.1h0Zm0-13.25a3.39,3.39,0,0,1,2.86,1.18,6.21,6.21,0,0,1,.91,3.78,6.28,6.28,0,0,1-.91,3.79,4,4,0,0,1-5.72,0,6.32,6.32,0,0,1-.91-3.79,6.25,6.25,0,0,1,.91-3.78,3.37,3.37,0,0,1,2.86-1.18h0Zm9.42-2.3a1.4,1.4,0,0,0,.15.57L156.29,36a2.16,2.16,0,0,0,.82.93,2.09,2.09,0,0,0,1.15.36h2.14a2.13,2.13,0,0,0,1.16-.36,2.16,2.16,0,0,0,.82-0.93l6.3-13.41a1.46,1.46,0,0,0,.13-0.57,0.63,0.63,0,0,0-.06-0.34,0.65,0.65,0,0,0-.67-0.38h-2.81a2.14,2.14,0,0,0-1.18.36,2,2,0,0,0-.79.93l-4,9.08-4-9.08a2,2,0,0,0-.79-0.93,2.14,2.14,0,0,0-1.18-.36h-2.8a0.65,0.65,0,0,0-.67.38,0.74,0.74,0,0,0-.07.34h0Zm28.08,15.55q8,0,8-4.11a1,1,0,0,0-.26-0.69,0.85,0.85,0,0,0-.65-0.27h-2.17a2.09,2.09,0,0,0-1.68.79,3.53,3.53,0,0,1-2.86,1,4.06,4.06,0,0,1-2.7-.76,3.47,3.47,0,0,1-1-2.43h11a0.87,0.87,0,0,0,.65-0.26,0.91,0.91,0,0,0,.26-0.66V29.33a8.09,8.09,0,0,0-2.25-6.14,10.21,10.21,0,0,0-12.52,0,8.13,8.13,0,0,0-2.26,6.18,8,8,0,0,0,2.24,6.13,8.83,8.83,0,0,0,6.27,2.1h0Zm0-13.25q3.23,0,3.37,3.44h-6.78q0.18-3.44,3.4-3.44h0Zm11.44,12.71a0.87,0.87,0,0,0,.64.25h3.27a0.87,0.87,0,0,0,.63-0.25,0.86,0.86,0,0,0,.26-0.64V27.07a5,5,0,0,1,3.76-2.17l1.15,0,1.09,0h0.47a0.9,0.9,0,0,0,.65-0.24,0.84,0.84,0,0,0,.26-0.63V21.93a0.84,0.84,0,0,0-.26-0.62,0.89,0.89,0,0,0-.65-0.25,10.59,10.59,0,0,0-3.61.51,12.37,12.37,0,0,0-2.86,1.57v-0.9a0.85,0.85,0,0,0-.89-0.89H190a0.86,0.86,0,0,0-.63.26,0.88,0.88,0,0,0-.26.65V36.43a0.87,0.87,0,0,0,.25.64h0Zm14.49-8.51a6.66,6.66,0,0,0,2.74,1.63q1.61,0.5,3.24.85a18.09,18.09,0,0,1,2.77.78,1.38,1.38,0,0,1,1.13,1.09q0,1.4-3.35,1.4a3.54,3.54,0,0,1-2.91-1,2,2,0,0,0-1.67-.79h-2.17a0.87,0.87,0,0,0-.9.9q0,4.17,8,4.17t8-4.71a3.8,3.8,0,0,0-1.13-2.82,6.72,6.72,0,0,0-2.75-1.63,31.45,31.45,0,0,0-3.25-.84,17.18,17.18,0,0,1-2.76-.77,1.38,1.38,0,0,1-1.13-1.09q0-1.4,2.89-1.4a3.57,3.57,0,0,1,2.9,1,2.05,2.05,0,0,0,1.68.77h2.18a0.85,0.85,0,0,0,.89-0.89q0-4.18-8-4.18-7.59,0-7.59,4.71a3.78,3.78,0,0,0,1.13,2.8h0Zm18.06-9a1.63,1.63,0,0,0,1.22.46H225a1.63,1.63,0,0,0,1.23-.46,1.73,1.73,0,0,0,.44-1.25V17.84a1.71,1.71,0,0,0-.45-1.26,1.65,1.65,0,0,0-1.22-.45h-1.81a1.63,1.63,0,0,0-1.23.46,1.73,1.73,0,0,0-.44,1.25v0.51a1.71,1.71,0,0,0,.45,1.25h0Zm-0.15,17.47a0.87,0.87,0,0,0,.64.25h3.27a0.88,0.88,0,0,0,.63-0.25,0.85,0.85,0,0,0,.26-0.64V22.67a0.87,0.87,0,0,0-.25-0.63,0.86,0.86,0,0,0-.64-0.25h-3.27a0.88,0.88,0,0,0-.63.25,0.85,0.85,0,0,0-.26.64V36.43a0.86,0.86,0,0,0,.25.64h0Z"/>
<path class="cls-2" style="fill:#c6c6c6"  d="M66.9,62.88a3.81,3.81,0,1,0-3.81-3.81,3.81,3.81,0,0,0,3.81,3.81h0Z"/>
<path class="cls-2" style="fill:#c6c6c6"  d="M48.87,7.62a3.81,3.81,0,1,0-3.81-3.81,3.81,3.81,0,0,0,3.81,3.81h0Z"/>
<path class="cls-2" style="fill:#c6c6c6"  d="M48.87,16.83A3.81,3.81,0,1,0,45.06,13a3.81,3.81,0,0,0,3.81,3.81h0Z"/>
<path class="cls-2" style="fill:#c6c6c6"  d="M48.87,26a3.81,3.81,0,1,0-3.81-3.81A3.81,3.81,0,0,0,48.87,26h0Z"/>
<path class="cls-2" style="fill:#c6c6c6"  d="M48.87,35.25a3.81,3.81,0,1,0-3.81-3.81,3.81,3.81,0,0,0,3.81,3.81h0Z"/>
<path class="cls-2" style="fill:#c6c6c6" d="M39.86,35.25a3.81,3.81,0,1,0-3.81-3.81,3.81,3.81,0,0,0,3.81,3.81h0Z"/>
<path class="cls-2" style="fill:#c6c6c6"  d="M48.87,44.46a3.81,3.81,0,1,0-3.81-3.81,3.81,3.81,0,0,0,3.81,3.81h0Z"/>
<path class="cls-2" style="fill:#c6c6c6"  d="M39.86,44.46a3.81,3.81,0,1,0-3.81-3.81,3.81,3.81,0,0,0,3.81,3.81h0Z"/>
<path class="cls-2" style="fill:#c6c6c6" d="M48.87,62.88a3.81,3.81,0,1,0-3.81-3.81,3.81,3.81,0,0,0,3.81,3.81h0Z"/>
<path class="cls-2" style="fill:#c6c6c6"  d="M48.87,72.09a3.81,3.81,0,1,0-3.81-3.81,3.81,3.81,0,0,0,3.81,3.81h0Z"/>
<path class="cls-2" style="fill:#c6c6c6" d="M39.86,16.83A3.81,3.81,0,1,0,36.05,13a3.81,3.81,0,0,0,3.81,3.81h0Z"/>
<path class="cls-2" style="fill:#c6c6c6"  d="M39.86,26a3.81,3.81,0,1,0-3.81-3.81A3.81,3.81,0,0,0,39.86,26h0Z"/>
<path class="cls-2" style="fill:#c6c6c6"  d="M3.81,53.67A3.81,3.81,0,1,0,0,49.86a3.81,3.81,0,0,0,3.81,3.81h0Z"/>
<path class="cls-2" style="fill:#c6c6c6"  d="M30.85,81.3A3.81,3.81,0,1,0,27,77.49a3.81,3.81,0,0,0,3.81,3.81h0Z"/>
<path class="cls-2" style="fill:#c6c6c6"  d="M21.83,44.46A3.81,3.81,0,1,0,18,40.65a3.81,3.81,0,0,0,3.81,3.81h0Z"/>
<path class="cls-2" style="fill:#c6c6c6"  d="M21.83,62.88A3.81,3.81,0,1,0,18,59.07a3.81,3.81,0,0,0,3.81,3.81h0Z"/>
<path class="cls-2" style="fill:#c6c6c6" d="M30.85,62.88A3.81,3.81,0,1,0,27,59.07a3.81,3.81,0,0,0,3.81,3.81h0Z"/>
<path class="cls-2" style="fill:#c6c6c6"  d="M21.83,72.09A3.81,3.81,0,1,0,18,68.28a3.81,3.81,0,0,0,3.81,3.81h0Z"/>
<path class="cls-2" style="fill:#c6c6c6"  d="M30.85,72.09A3.81,3.81,0,1,0,27,68.28a3.81,3.81,0,0,0,3.81,3.81h0Z"/>
<path class="cls-2" style="fill:#c6c6c6"  d="M21.83,81.3A3.81,3.81,0,1,0,18,77.49a3.81,3.81,0,0,0,3.81,3.81h0Z"/>
<path class="cls-2" style="fill:#c6c6c6" d="M12.82,44.46A3.81,3.81,0,1,0,9,40.65a3.81,3.81,0,0,0,3.81,3.81h0Z"/>
<path class="cls-2" style="fill:#c6c6c6"  d="M12.82,62.88A3.81,3.81,0,1,0,9,59.07a3.81,3.81,0,0,0,3.81,3.81h0Z"/>
<path class="cls-2" style="fill:#c6c6c6"  d="M12.82,72.09A3.81,3.81,0,1,0,9,68.28a3.81,3.81,0,0,0,3.81,3.81h0Z"/>
<path class="cls-2" style="fill:#c6c6c6"  d="M12.82,81.3A3.81,3.81,0,1,0,9,77.49a3.81,3.81,0,0,0,3.81,3.81h0Z"/>
<path class="cls-2" style="fill:#c6c6c6"  d="M57.89,35.25a3.81,3.81,0,1,0-3.81-3.81,3.81,3.81,0,0,0,3.81,3.81h0Z"/>
<path class="cls-2" style="fill:#c6c6c6"  d="M57.89,44.46a3.81,3.81,0,1,0-3.81-3.81,3.81,3.81,0,0,0,3.81,3.81h0Z"/>
<path class="cls-2" style="fill:#c6c6c6"  d="M57.89,62.88a3.81,3.81,0,1,0-3.81-3.81,3.81,3.81,0,0,0,3.81,3.81h0Z"/>
<path class="cls-2" style="fill:#c6c6c6"  d="M57.89,72.09a3.81,3.81,0,1,0-3.81-3.81,3.81,3.81,0,0,0,3.81,3.81h0Z"/>
<path class="cls-1" style="fill:#1961ac" d="M34.37,28.06H27.5V43.71s0,0.41,0,.66a2.27,2.27,0,0,1-2.07,2.12c-0.17,0-.74,0-0.84,0H9.21v7H27.67a8,8,0,0,0,1.14,0c1.42-.17,5.56-1.18,5.56-6.63,0-6.74,0-18.81,0-18.81h0Z"/>
<path class="cls-3" style="fill:#c61532"  d="M36.47,71.93h6.87V56.28s0-.41,0-0.66a2.27,2.27,0,0,1,2.07-2.12c0.17,0,.74,0,0.84,0H61.62v-7H43.17a8,8,0,0,0-1.14,0c-1.42.17-5.56,1.18-5.56,6.63,0,6.74,0,18.81,0,18.81h0Z"/></svg>
