<svg xmlns="http://www.w3.org/2000/svg" width="6604" height="1999" shape-rendering="geometricPrecision" text-rendering="geometricPrecision" image-rendering="optimizeQuality" fill-rule="evenodd" clip-rule="evenodd" viewBox="0 0 6597 1997"><path fill="#2B2A29" d="M2320 1559v212c0 47 7 75 13 84 12 19 28 25 50 25h22v19h-250v-19h22c25 0 43-9 53-31 6-9 9-38 9-78v-475c0-46-3-74-12-84-13-15-28-25-50-25h-22v-19h215c53 0 94 7 122 19 31 16 56 38 78 69s31 72 31 115c0 60-15 106-47 144-31 37-78 56-134 56-15 0-28 0-47-3-15-3-34-6-53-9zm0-32c16 4 32 7 41 7 12 3 22 3 31 3 31 0 56-16 78-44s31-65 31-112c0-31-3-63-15-88-10-28-25-46-44-62-19-13-41-19-66-19-12 0-31 3-56 10v305z"/><path fill="#2B2A29" fill-rule="nonzero" d="M2907 1880v19h-253v-19h22c22 0 41-9 53-25 6-12 10-40 10-84v-475c0-37-4-62-7-71-3-10-9-19-18-25-13-10-25-13-38-13h-22v-19h253v19h-22c-25 0-43 10-53 28-6 10-12 38-12 81v475c0 37 3 62 6 72 3 9 9 18 19 25 12 9 25 12 40 12h22zM3113 1206v290h128c34 0 56-6 66-19 15-15 25-43 28-87h15v256h-15c-6-37-10-59-13-69-6-12-15-21-28-31-9-6-28-9-53-9h-128v240c0 34 0 53 3 59 3 10 7 13 13 19 6 3 15 6 31 6h100c34 0 56-3 72-9 15-6 31-19 43-34 19-22 38-56 57-100h15l-50 181h-452v-19h21c13 0 29-3 41-12 6-7 13-16 16-25 6-13 6-35 6-72v-475c0-46-3-78-9-87-13-16-29-22-54-22h-21v-19h452l6 160h-15c-6-38-13-66-22-78-6-16-19-28-31-35-13-6-31-9-63-9h-159zM3831 1899l-228-615v490c0 44 3 72 13 84 9 16 28 22 50 22h22v19h-207v-19h22c25 0 44-9 53-28 7-12 10-37 10-78v-481c0-31-3-56-10-68-3-13-9-19-21-25-10-10-29-13-54-13v-19h169l212 572 209-572h166v19h-19c-28 0-44 10-56 28-6 13-9 38-9 78v481c0 44 6 72 12 84 13 16 28 22 53 22h19v19h-250v-19h22c25 0 44-9 53-28 6-12 9-37 9-78v-490l-227 615h-13z"/><path fill="#2B2A29" d="M4580 1150c75 0 141 37 197 109s84 162 84 272c0 109-28 202-84 277-56 72-125 110-203 110-81 0-150-38-206-110-53-71-81-162-81-277 0-116 31-213 93-284 57-66 122-97 200-97zm-9 40c-53 0-94 25-125 72-41 63-59 150-59 265 0 122 18 213 59 278 31 50 75 75 125 75 56 0 100-28 137-81 35-53 53-140 53-256 0-125-18-218-59-281-31-47-75-72-131-72z"/><path fill="#2B2A29" fill-rule="nonzero" d="M4883 1168h159l359 550v-425c0-43-3-71-12-84-10-16-28-22-50-22h-22v-19h206v19h-22c-25 0-40 10-53 28-6 13-9 38-9 78v618h-16l-387-590v453c0 44 6 72 12 84 13 16 29 22 50 22h22v19h-203v-19h19c25 0 44-9 53-28 6-12 10-37 10-78v-512c-16-22-29-40-38-47-9-9-22-15-41-22-6-3-18-6-37-6v-19zM6047 1168l7 172h-16c-3-31-9-53-13-65-9-22-21-38-37-47-16-10-34-16-59-16h-81v562c0 44 3 72 12 84 9 16 28 22 50 22h19v19h-247v-19h19c25 0 44-9 53-28 6-12 9-37 9-78v-562h-68c-28 0-47 3-60 10-15 6-28 18-37 37-13 22-19 47-19 81h-19l10-172h477zM6260 1206v290h131c31 0 56-6 65-19 16-15 25-43 25-87h16v256h-16c-3-37-6-59-12-69-3-12-13-21-25-31-13-6-31-9-53-9h-131v240c0 34 3 53 3 59 3 10 9 13 12 19 6 3 19 6 35 6h99c32 0 57-3 72-9 16-6 28-19 44-34 16-22 34-56 53-100h19l-50 181h-453v-19h22c13 0 25-3 37-12 10-7 16-16 19-25 3-13 6-35 6-72v-475c0-46-3-78-12-87-9-16-28-22-50-22h-22v-19h453l6 160h-19c-6-38-12-66-18-78-7-16-19-28-35-35-9-6-31-9-59-9h-162z"/><path fill="#2B2A29" d="M2829 953h-181l-228-396c-15 3-31 3-40 3h-16c-3 0-9 0-16-3v246c0 53 7 88 16 100 12 19 31 28 56 28h25v22h-287v-22h25c28 0 50-12 62-37 7-13 10-44 10-91V257c0-53-6-84-16-97-12-18-31-28-56-28h-25v-25h247c71 0 124 6 156 22 34 13 65 37 87 72 25 34 38 75 38 125 0 53-16 96-41 134-28 40-69 65-128 81l140 244c32 56 60 90 82 109 25 19 53 31 90 37v22zm-481-434h28c66 0 113-19 147-53 31-34 50-78 50-131s-15-97-40-131c-25-31-63-47-107-47-18 0-43 3-78 9v353z"/><path fill="#2B2A29" fill-rule="nonzero" d="M3035 154v334h147c37 0 65-6 78-22 15-19 25-53 28-100h19v294h-19c-3-41-9-69-13-78-6-16-15-28-31-35-12-9-34-12-62-12h-147v278c0 37 0 59 3 68 3 7 6 13 13 19 6 3 18 6 37 6h116c37 0 65-3 84-9 16-6 34-19 50-41 19-25 40-62 62-115h19l-56 212h-521v-22h25c15 0 31-6 43-15 13-7 19-16 22-32 3-12 6-40 6-81V254c0-53-6-84-12-97-13-19-31-25-59-25h-25v-25h521l6 187h-19c-6-46-15-74-25-93-6-16-18-28-37-38-13-6-34-9-69-9h-184zM4071 88l16 269h-16c-18-69-40-119-68-153-41-47-94-72-156-72-88 0-150 44-197 128-37 72-56 156-56 256 0 81 12 156 37 222 25 65 57 115 97 146 41 32 84 47 125 47 25 0 50-6 72-12 25-10 47-22 68-35V638c0-41-3-69-9-81-3-13-12-25-22-32-12-6-31-9-56-9v-25h259v25h-12c-25 0-44 9-53 31-7 16-10 47-10 91v259c-37 25-75 44-112 56-38 13-78 19-125 19-131 0-228-53-297-156-50-78-78-169-78-272 0-75 16-147 44-215 34-81 81-144 141-184 49-38 106-57 174-57 25 0 47 4 66 10 22 3 50 15 87 31 19 9 32 13 38 13s12-4 15-10 7-22 10-44h18zM4496 931v22h-290v-22h25c28 0 46-12 59-31 9-16 12-47 12-97V257c0-41-3-72-6-84-3-10-9-19-22-25-12-13-28-16-43-16h-25v-25h290v25h-25c-28 0-47 10-59 31-10 13-13 44-13 94v546c0 44 0 72 6 85 4 9 10 18 22 28 13 9 28 15 44 15h25z"/><path fill="#2B2A29" d="M4892 88c88 0 166 44 228 125 66 85 97 188 97 312 0 128-31 235-97 319-65 87-143 128-234 128-93 0-172-41-234-125-66-81-97-187-97-318 0-135 38-244 110-331 65-72 140-110 227-110zm-9 47c-59 0-109 28-144 85-46 68-68 171-68 305 0 138 22 244 72 319 34 56 81 84 143 84 63 0 116-31 156-94 41-62 63-159 63-293 0-144-25-250-69-321-37-57-87-85-153-85z"/><path fill="#2B2A29" fill-rule="nonzero" d="M5245 107h181l415 634V254c0-50-6-84-15-97-13-15-31-25-56-25h-25v-25h234v25h-22c-28 0-50 10-63 31-6 13-9 44-9 91v712h-19l-446-681v521c0 53 6 85 16 97 12 19 31 28 56 28h25v22h-234v-22h21c29 0 50-12 63-34 6-13 9-44 9-91V220c-19-29-34-47-43-57-10-9-25-18-44-25-10-6-25-6-44-6v-25zM6207 154v334h149c38 0 63-6 78-22 16-19 25-53 28-100h19v294h-19c-6-41-9-69-15-78-3-16-16-28-28-35-13-9-35-12-63-12h-149v278c0 37 3 59 6 68 0 7 6 13 12 19 7 3 19 6 38 6h115c38 0 66-3 84-9 16-6 32-19 50-41 19-25 41-62 63-115h19l-57 212h-521v-22h22c16 0 31-6 47-15 9-7 19-16 22-32 3-12 6-40 6-81V254c0-53-6-84-13-97-12-19-34-25-62-25h-22v-25h521l7 187h-19c-9-46-16-74-25-93-6-16-19-28-38-38-12-6-37-9-68-9h-187z"/><path fill="#BCBDBD" fill-rule="nonzero" d="M17 1980h1988V17H17z"/><path fill="none" stroke="#BCBDBD" stroke-width="33.286" d="M17 1980h1988V17H17z"/><path fill="#E31E24" fill-rule="nonzero" d="M1256 1886h655v-639h-655z"/><path fill="none" stroke="#E31E24" stroke-width="24.964" d="M1256 1886h655v-639h-655z"/><path fill="#E31E24" fill-rule="nonzero" d="M113 1886h656v-639H113z"/><path fill="none" stroke="#E31E24" stroke-width="24.964" d="M113 1886h656v-639H113z"/><path fill="#E31E24" fill-rule="nonzero" d="M113 753h656V117H113z"/><path fill="none" stroke="#E31E24" stroke-width="24.964" d="M113 753h656V117H113z"/><path fill="#E31E24" fill-rule="nonzero" d="M1256 753h655V117h-655z"/><path fill="none" stroke="#E31E24" stroke-width="24.964" d="M1256 753h655V117h-655z"/><path fill="#0079BF" fill-rule="nonzero" d="M516 229h996l62 187h-184l31-87H603l32 87H451z"/><path fill="none" stroke="#0079BF" stroke-width="24.964" d="M516 229h996l62 187h-184l31-87H603l32 87H451z"/><path fill="#0079BF" fill-rule="nonzero" d="M953 335l-28 81h178l-31-84z"/><path fill="none" stroke="#0079BF" stroke-width="24.964" d="M953 335l-28 81h178l-31-84z"/></svg>