<svg xmlns="http://www.w3.org/2000/svg" width="2117" height="642" id="svg4136" shape-rendering="geometricPrecision" text-rendering="geometricPrecision" image-rendering="optimizeQuality" fill-rule="evenodd" clip-rule="evenodd"><defs id="defs4138"/><g id="g4229"><path class="fil0" d="M744 500v68c0 15 2 24 4 27 4 6 9 8 16 8h7v6h-80v-6h7c8 0 14-3 17-10 2-3 3-12 3-25V416c0-15-1-24-4-27-4-5-9-8-16-8h-7v-6h69c17 0 30 2 39 6 10 5 18 12 25 22s10 23 10 37c0 19-5 34-15 46s-25 18-43 18c-5 0-9 0-15-1-5-1-11-2-17-3zm0-10c5 1 10 2 13 2 4 1 7 1 10 1 10 0 18-5 25-14s10-21 10-36c0-10-1-20-5-28-3-9-8-15-14-20-6-4-13-6-21-6-4 0-10 1-18 3v98z" id="path4144" fill="#fff"/><path class="fil1" d="M932 603v6h-81v-6h7c7 0 13-3 17-8 2-4 3-13 3-27V416c0-12-1-20-2-23s-3-6-6-8c-4-3-8-4-12-4h-7v-6h81v6h-7c-8 0-14 3-17 9-2 3-4 12-4 26v152c0 12 1 20 2 23s3 6 6 8c4 3 8 4 13 4h7z" id="path4146" fill="#fff" fill-rule="nonzero"/><path class="fil1" d="M998 387v93h41c11 0 18-2 21-6 5-5 8-14 9-28h5v82h-5c-2-12-3-19-4-22-2-4-5-7-9-10-3-2-9-3-17-3h-41v77c0 11 0 17 1 19 1 3 2 4 4 6 2 1 5 2 10 2h32c11 0 18-1 23-3s10-6 14-11c6-7 12-18 18-32h5l-16 58H944v-6h7c4 0 9-1 13-4 2-2 4-5 5-8 2-4 2-11 2-23V416c0-15-1-25-3-28-4-5-9-7-17-7h-7v-6h145l2 51h-5c-2-12-4-21-7-25-2-5-6-9-10-11s-10-3-20-3h-51z" id="path4148" fill="#fff" fill-rule="nonzero"/><path class="fil1" d="M1228 609l-73-197v157c0 14 1 23 4 27 3 5 9 7 16 7h7v6h-66v-6h7c8 0 14-3 17-9 2-4 3-12 3-25V415c0-10-1-18-3-22-1-4-3-6-7-8-3-3-9-4-17-4v-6h54l68 183 67-183h53v6h-6c-9 0-14 3-18 9-2 4-3 12-3 25v154c0 14 2 23 4 27 4 5 9 7 17 7h6v6h-80v-6h7c8 0 14-3 17-9 2-4 3-12 3-25V412l-73 197h-4z" id="path4150" fill="#fff" fill-rule="nonzero"/><path class="fil0" d="M1468 369c24 0 45 12 63 35s27 52 27 87-9 65-27 89c-18 23-40 35-65 35-26 0-48-12-66-35-17-23-26-52-26-89s10-68 30-91c18-21 39-31 64-31zm-3 13c-17 0-30 8-40 23-13 20-19 48-19 85 0 39 6 68 19 89 10 16 24 24 40 24 18 0 32-9 44-26 11-17 17-45 17-82 0-40-6-70-19-90-10-15-24-23-42-23z" id="path4152" fill="#fff"/><path class="fil1" d="M1565 375h51l115 176V415c0-14-1-23-4-27-3-5-9-7-16-7h-7v-6h66v6h-7c-8 0-13 3-17 9-2 4-3 12-3 25v198h-5l-124-189v145c0 14 2 23 4 27 4 5 9 7 16 7h7v6h-65v-6h6c8 0 14-3 17-9 2-4 3-12 3-25V405c-5-7-9-13-12-15-3-3-7-5-13-7-2-1-6-2-12-2v-6z" id="path4154" fill="#fff" fill-rule="nonzero"/><path class="fil1" d="M1938 375l2 55h-5c-1-10-3-17-4-21-3-7-7-12-12-15s-11-5-19-5h-26v180c0 14 1 23 4 27 3 5 9 7 16 7h6v6h-79v-6h6c8 0 14-3 17-9 2-4 3-12 3-25V389h-22c-9 0-15 1-19 3-5 2-9 6-12 12-4 7-6 15-6 26h-6l3-55h153z" id="path4156" fill="#fff" fill-rule="nonzero"/><path class="fil1" d="M2006 387v93h42c10 0 18-2 21-6 5-5 8-14 8-28h5v82h-5c-1-12-2-19-4-22-1-4-4-7-8-10-4-2-10-3-17-3h-42v77c0 11 1 17 1 19 1 3 3 4 4 6 2 1 6 2 11 2h32c10 0 18-1 23-3s9-6 14-11c5-7 11-18 17-32h6l-16 58h-145v-6h7c4 0 8-1 12-4 3-2 5-5 6-8 1-4 2-11 2-23V416c0-15-1-25-4-28-3-5-9-7-16-7h-7v-6h145l2 51h-6c-2-12-4-21-6-25-2-5-6-9-11-11-3-2-10-3-19-3h-52z" id="path4158" fill="#fff" fill-rule="nonzero"/><path class="fil0" d="M907 306h-58l-73-127c-5 1-10 1-13 1h-5c-1 0-3 0-5-1v79c0 17 2 28 5 32 4 6 10 9 18 9h8v7h-92v-7h8c9 0 16-4 20-12 2-4 3-14 3-29V83c0-17-2-27-5-31-4-6-10-9-18-9h-8v-8h79c23 0 40 2 50 7 11 4 21 12 28 23 8 11 12 24 12 40 0 17-5 31-13 43-9 13-22 21-41 26l45 78c10 18 19 29 26 35 8 6 17 10 29 12v7zM753 167h9c21 0 36-6 47-17 10-11 16-25 16-42s-5-31-13-42c-8-10-20-15-34-15-6 0-14 1-25 3v113z" id="path4160" fill="#fff"/><path class="fil1" d="M973 50v107h47c12 0 21-2 25-7 5-6 8-17 9-32h6v94h-6c-1-13-3-22-4-25-2-5-5-9-10-11-4-3-11-4-20-4h-47v89c0 12 0 19 1 22 1 2 2 4 4 6 2 1 6 2 12 2h37c12 0 21-1 27-3 5-2 11-6 16-13 6-8 13-20 20-37h6l-18 68H911v-7h8c5 0 10-2 14-5 4-2 6-5 7-10 1-4 2-13 2-26V82c0-17-2-27-4-31-4-6-10-8-19-8h-8v-8h167l2 60h-6c-2-15-5-24-8-30-2-5-6-9-12-12-4-2-11-3-22-3h-59z" id="path4162" fill="#fff" fill-rule="nonzero"/><path class="fil1" d="M1305 29l5 86h-5c-6-22-13-38-22-49-13-15-30-23-50-23-28 0-48 14-63 41-12 23-18 50-18 82 0 26 4 50 12 71s18 37 31 47 27 15 40 15c8 0 16-2 23-4 8-3 15-7 22-11v-79c0-13-1-22-3-26-1-4-4-8-7-10-4-2-10-3-18-3v-8h83v8h-4c-8 0-14 3-17 10-2 5-3 15-3 29v83c-12 8-24 14-36 18s-25 6-40 6c-42 0-73-17-95-50-16-25-25-54-25-87 0-24 5-47 14-69 11-26 26-46 45-59 16-12 34-18 56-18 8 0 15 1 21 3 7 1 16 5 28 10 6 3 10 4 12 4s4-1 5-3 2-7 3-14h6z" id="path4164" fill="#fff" fill-rule="nonzero"/><path class="fil1" d="M1441 299v7h-93v-7h8c9 0 15-4 19-10 3-5 4-15 4-31V83c0-13-1-23-2-27-1-3-3-6-7-8-4-4-9-5-14-5h-8v-8h93v8h-8c-9 0-15 3-19 10-3 4-4 14-4 30v175c0 14 0 23 2 27 1 3 3 6 7 9s9 5 14 5h8z" id="path4166" fill="#fff" fill-rule="nonzero"/><path class="fil0" d="M1568 29c28 0 53 14 73 40 21 27 31 60 31 100 0 41-10 75-31 102-21 28-46 41-75 41-30 0-55-13-75-40-21-26-31-60-31-102 0-43 12-78 35-106 21-23 45-35 73-35zm-3 15c-19 0-35 9-46 27-15 22-22 55-22 98 0 44 7 78 23 102 11 18 26 27 46 27s37-10 50-30 20-51 20-94c0-46-8-80-22-103-12-18-28-27-49-27z" id="path4168" fill="#fff"/><path class="fil1" d="M1681 35h58l133 203V82c0-16-2-27-5-31-4-5-10-8-18-8h-8v-8h75v8h-7c-9 0-16 3-20 10-2 4-3 14-3 29v228h-6L1737 92v167c0 17 2 27 5 31 4 6 10 9 18 9h8v7h-75v-7h7c9 0 16-4 20-11 2-4 3-14 3-29V71c-6-9-11-15-14-18s-8-6-14-8c-3-2-8-2-14-2v-8z" id="path4170" fill="#fff" fill-rule="nonzero"/><path class="fil1" d="M1989 50v107h48c12 0 20-2 25-7 5-6 8-17 9-32h6v94h-6c-2-13-3-22-5-25-1-5-5-9-9-11-4-3-11-4-20-4h-48v89c0 12 1 19 2 22 0 2 2 4 4 6 2 1 6 2 12 2h37c12 0 21-1 27-3 5-2 10-6 16-13 6-8 13-20 20-37h6l-18 68h-167v-7h7c5 0 10-2 15-5 3-2 6-5 7-10 1-4 2-13 2-26V82c0-17-2-27-4-31-4-6-11-8-20-8h-7v-8h167l2 60h-6c-3-15-5-24-8-30-2-5-6-9-12-12-4-2-12-3-22-3h-60z" id="path4172" fill="#fff" fill-rule="nonzero"/><path id="polygon4174" fill="#bcbdbd" fill-rule="nonzero" d="M6 635h637V6H6z"/><path class="fil3" id="polygon4176" fill="none" fill-rule="nonzero" stroke="#bcbdbd" stroke-width="10.663" d="M6 635h637V6H6z"/><path class="fil4" id="polygon4178" fill="#e31e24" fill-rule="nonzero" d="M403 605h210V400H403z"/><path class="fil3 str1" id="polygon4180" fill="none" fill-rule="nonzero" stroke="#e31e24" stroke-width="7.997" d="M403 605h210V400H403z"/><path class="fil4" id="polygon4182" fill="#e31e24" fill-rule="nonzero" d="M37 605h210V400H37z"/><path class="fil3 str1" id="polygon4184" fill="none" fill-rule="nonzero" stroke="#e31e24" stroke-width="7.997" d="M37 605h210V400H37z"/><path class="fil4" id="polygon4186" fill="#e31e24" fill-rule="nonzero" d="M37 242h210V38H37z"/><path class="fil3 str1" id="polygon4188" fill="none" fill-rule="nonzero" stroke="#e31e24" stroke-width="7.997" d="M37 242h210V38H37z"/><path class="fil4" id="polygon4190" fill="#e31e24" fill-rule="nonzero" d="M403 242h210V38H403z"/><path class="fil3 str1" id="polygon4192" fill="none" fill-rule="nonzero" stroke="#e31e24" stroke-width="7.997" d="M403 242h210V38H403z"/><path class="fil5" id="polygon4194" fill="#0079bf" fill-rule="nonzero" d="M456 106H194l10 28h-59l21-60h319l20 60h-59z"/><path class="fil3 str2" id="polygon4196" fill="none" fill-rule="nonzero" stroke="#0079bf" stroke-width="7.997" d="M456 106H194l10 28h-59l21-60h319l20 60h-59z"/><path class="fil5" id="polygon4198" fill="#0079bf" fill-rule="nonzero" d="M306 108l-9 26h57l-10-27z"/><path class="fil3 str2" id="polygon4200" fill="none" fill-rule="nonzero" stroke="#0079bf" stroke-width="7.997" d="M306 108l-9 26h57l-10-27z"/></g></svg>