<?xml version="1.0" encoding="UTF-8"?>
<!DOCTYPE svg PUBLIC "-//W3C//DTD SVG 1.1//EN" "http://www.w3.org/Graphics/SVG/1.1/DTD/svg11.dtd">
<!-- Creator: CorelDRAW X7 -->
<svg xmlns="http://www.w3.org/2000/svg" xml:space="preserve" width="2548px" height="776px" version="1.1" shape-rendering="geometricPrecision" text-rendering="geometricPrecision" image-rendering="optimizeQuality" fill-rule="evenodd" clip-rule="evenodd"
viewBox="0 0 2618 797"
 xmlns:xlink="http://www.w3.org/1999/xlink">
 <g id="Livello_x0020_1">
  <metadata id="CorelCorpID_0Corel-Layer"/>
  <path fill="#C6C6C6" d="M656 616c20,0 37,-16 37,-37 0,-21 -17,-37 -37,-37 -21,0 -38,16 -38,37 0,21 17,37 38,37l0 0z"/>
  <path fill="#C6C6C6" d="M479 75c21,0 37,-17 37,-38 0,-20 -16,-37 -37,-37 -21,0 -37,17 -37,37 0,21 16,38 37,38l0 0z"/>
  <path fill="#C6C6C6" d="M479 165c21,0 37,-17 37,-37 0,-21 -16,-38 -37,-38 -21,0 -37,17 -37,37 0,21 16,38 37,38l0 0 0 0z"/>
  <path fill="#C6C6C6" d="M479 255c21,0 37,-17 37,-38 0,-20 -16,-37 -37,-37 -21,0 -37,17 -37,37 0,21 16,38 37,38l0 0z"/>
  <path fill="#C6C6C6" d="M479 345c21,0 37,-16 37,-37 0,-21 -16,-37 -37,-37 -21,0 -37,16 -37,37 0,21 16,37 37,37l0 0z"/>
  <path fill="#C6C6C6" d="M391 345c20,0 37,-16 37,-37 0,-21 -17,-37 -37,-37 -21,0 -38,16 -38,37 0,21 17,37 38,37l0 0z"/>
  <path fill="#C6C6C6" d="M479 436c21,0 37,-17 37,-38 0,-20 -16,-37 -37,-37 -21,0 -37,17 -37,37 0,21 16,38 37,38l0 0z"/>
  <path fill="#C6C6C6" d="M391 436c20,0 37,-17 37,-38 0,-20 -17,-37 -37,-37 -21,0 -38,17 -38,37 0,21 17,38 38,38l0 0z"/>
  <path fill="#C6C6C6" d="M479 616c21,0 37,-16 37,-37 0,-21 -16,-37 -37,-37 -21,0 -37,16 -37,37 0,21 16,37 37,37l0 0z"/>
  <path fill="#C6C6C6" d="M479 706c21,0 37,-16 37,-37 0,-20 -16,-37 -37,-37 -21,0 -37,17 -37,37 0,21 16,37 37,37l0 0z"/>
  <path fill="#C6C6C6" d="M391 165c20,0 37,-17 37,-37 0,-21 -17,-38 -37,-38 -21,0 -38,17 -38,37 0,21 17,38 38,38l0 0 0 0z"/>
  <path fill="#C6C6C6" d="M391 255c20,0 37,-17 37,-38 0,-20 -17,-37 -37,-37 -21,0 -38,17 -38,37 0,21 17,38 38,38l0 0z"/>
  <path fill="#C6C6C6" d="M37 526c21,0 38,-17 38,-37 0,-21 -17,-38 -38,-38 -20,0 -37,17 -37,38 0,20 17,37 37,37l0 0z"/>
  <path fill="#C6C6C6" d="M302 797c21,0 37,-17 37,-38 0,-20 -16,-37 -37,-37 -21,0 -37,17 -37,37 0,21 16,38 37,38l0 0 0 0z"/>
  <path fill="#C6C6C6" d="M214 436c20,0 37,-17 37,-38 0,-20 -17,-37 -37,-37 -21,0 -38,17 -38,37 0,21 17,38 38,38l0 0 0 0z"/>
  <path fill="#C6C6C6" d="M214 616c20,0 37,-17 37,-37 0,-21 -17,-37 -37,-37 -21,0 -38,16 -38,37 0,21 17,37 38,37l0 0 0 0z"/>
  <path fill="#C6C6C6" d="M302 616c21,0 37,-17 37,-37 0,-21 -16,-37 -37,-37 -21,0 -37,16 -37,37 0,21 16,37 37,37l0 0 0 0z"/>
  <path fill="#C6C6C6" d="M214 706c20,0 37,-16 37,-37 0,-20 -17,-37 -37,-37 -21,0 -38,17 -38,37 0,21 17,37 38,37l0 0 0 0z"/>
  <path fill="#C6C6C6" d="M302 706c21,0 37,-16 37,-37 0,-20 -16,-37 -37,-37 -21,0 -37,17 -37,37 0,21 16,37 37,37l0 0 0 0z"/>
  <path fill="#C6C6C6" d="M214 797c20,0 37,-17 37,-38 0,-20 -17,-37 -37,-37 -21,0 -38,17 -38,37 0,21 17,38 38,38l0 0 0 0z"/>
  <path fill="#C6C6C6" d="M126 436c20,0 37,-17 37,-38 0,-20 -17,-37 -37,-37 -21,0 -38,17 -38,37 0,21 17,38 38,38l0 0 0 0z"/>
  <path fill="#C6C6C6" d="M126 616c20,0 37,-17 37,-37 0,-21 -17,-37 -37,-37 -21,0 -38,16 -38,37 0,21 17,37 38,37l0 0 0 0z"/>
  <path fill="#C6C6C6" d="M126 706c20,0 37,-16 37,-37 0,-20 -17,-37 -37,-37 -21,0 -38,17 -38,37 0,21 17,37 38,37l0 0 0 0z"/>
  <path fill="#C6C6C6" d="M126 797c20,0 37,-17 37,-38 0,-20 -17,-37 -37,-37 -21,0 -38,17 -38,37 0,21 17,38 38,38l0 0 0 0z"/>
  <path fill="#C6C6C6" d="M567 345c21,0 38,-16 38,-37 0,-21 -17,-37 -38,-37 -20,0 -37,16 -37,37 0,21 17,37 37,37l0 0z"/>
  <path fill="#C6C6C6" d="M567 436c21,0 38,-17 38,-38 0,-20 -17,-37 -38,-37 -20,0 -37,17 -37,37 0,21 17,38 37,38l0 0z"/>
  <path fill="#C6C6C6" d="M567 616c21,0 38,-16 38,-37 0,-21 -17,-37 -38,-37 -20,0 -37,16 -37,37 0,21 17,37 37,37l0 0z"/>
  <path fill="#C6C6C6" d="M567 706c21,0 38,-16 38,-37 0,-20 -17,-37 -38,-37 -20,0 -37,17 -37,37 0,21 17,37 37,37l0 0z"/>
  <path fill="#1961AC" d="M337 275l-68 0 0 153c0,0 0,4 0,7 0,11 -9,20 -20,21 -1,0 -7,0 -8,0l-151 0 0 68 181 0c2,0 4,0 6,0 2,0 3,0 5,0 14,-1 55,-11 55,-65 0,-66 0,-184 0,-184l0 0 0 0z"/>
  <path fill="#C61532" d="M357 705l68 0 0 -153c0,0 0,-4 0,-7 0,-11 9,-20 20,-21 2,0 7,0 8,0l151 0 0 -68 -181 0c-2,0 -4,0 -6,0 -1,0 -3,0 -5,0 -14,1 -55,11 -55,65 0,66 0,184 0,184l0 0 0 0z"/>
  <g id="_2280557314016">
   <path fill="#1961AC" fill-rule="nonzero" d="M794 437l0 -5c0,-5 2,-8 5,-11 2,-3 6,-4 11,-4l17 0c4,0 8,1 11,4 3,3 4,6 4,11l0 5c0,4 -1,8 -4,11 -3,3 -7,4 -11,4l-17 0c-5,0 -9,-1 -11,-4 -3,-3 -5,-7 -5,-11zm1 166l0 -127c0,-2 1,-4 2,-6 2,-1 4,-2 6,-2l30 0c3,0 5,1 6,2 2,2 2,4 2,6l0 127c0,3 0,5 -2,6 -2,2 -3,3 -6,3l-30 0c-2,0 -4,-1 -6,-3 -1,-1 -2,-3 -2,-6z"/>
   <path id="1" fill="#1961AC" fill-rule="nonzero" d="M878 603l0 -130c0,-2 1,-4 2,-6 2,-2 4,-2 6,-2l30 0c2,0 4,0 6,2 1,2 2,4 2,6l0 8c16,-12 32,-19 49,-19 18,0 32,5 43,16 11,11 16,27 16,49l0 76c0,3 -1,5 -2,6 -2,2 -4,3 -6,3l-30 0c-2,0 -4,-1 -6,-3 -1,-1 -2,-3 -2,-6l0 -76c0,-22 -9,-33 -26,-33 -11,0 -23,7 -36,20l0 89c0,3 -1,5 -2,6 -2,2 -4,3 -6,3l-30 0c-2,0 -4,-1 -6,-3 -1,-1 -2,-3 -2,-6z"/>
   <path id="2" fill="#1961AC" fill-rule="nonzero" d="M1145 599l0 -167c0,-3 1,-6 3,-9 3,-2 6,-4 9,-4l103 0c54,0 81,25 81,75 0,50 -27,75 -81,75l-65 0 0 30c0,4 -1,7 -3,9 -3,2 -6,4 -9,4l-26 0c-3,0 -6,-2 -9,-4 -2,-2 -3,-5 -3,-9zm50 -68l49 0c15,0 27,-3 34,-8 8,-5 12,-14 12,-29 0,-14 -4,-24 -12,-29 -7,-5 -19,-8 -34,-8l-49 0 0 74z"/>
   <path id="3" fill="#1961AC" fill-rule="nonzero" d="M1365 437l0 -5c0,-5 2,-8 5,-11 2,-3 6,-4 11,-4l17 0c4,0 8,1 11,4 3,3 4,6 4,11l0 5c0,4 -1,8 -4,11 -3,3 -7,4 -11,4l-17 0c-5,0 -9,-1 -11,-4 -3,-3 -5,-7 -5,-11zm1 166l0 -127c0,-2 1,-4 2,-6 2,-1 4,-2 6,-2l30 0c3,0 5,1 6,2 2,2 2,4 2,6l0 127c0,3 0,5 -2,6 -1,2 -3,3 -6,3l-30 0c-2,0 -4,-1 -6,-3 -1,-1 -2,-3 -2,-6z"/>
   <path id="4" fill="#1961AC" fill-rule="nonzero" d="M1461 595c-14,-13 -20,-32 -20,-57 0,-24 6,-43 20,-56 14,-13 33,-20 58,-20 25,0 44,6 58,19 13,13 20,32 20,55l0 8c0,3 -1,5 -2,6 -2,2 -4,2 -6,2l-101 0c1,11 4,19 9,24 6,5 14,8 26,8 12,0 20,-3 25,-8 4,-5 9,-8 16,-8l20 0c2,0 4,0 6,2 1,2 2,4 2,6 0,26 -24,38 -73,38 -25,0 -44,-6 -58,-19zm27 -71l62 0c-1,-21 -11,-32 -31,-32 -20,0 -30,11 -31,32z"/>
   <path id="5" fill="#1961AC" fill-rule="nonzero" d="M1625 603l0 -130c0,-2 0,-4 2,-6 2,-2 4,-2 6,-2l30 0c2,0 4,0 6,2 1,2 2,4 2,6l0 8c7,-6 13,-11 19,-14 6,-3 14,-5 23,-5 20,0 36,9 47,26 17,-17 34,-26 51,-26 18,0 31,5 41,16 11,10 16,27 16,49l0 76c0,3 -1,5 -3,6 -1,2 -3,3 -5,3l-30 0c-3,0 -5,-1 -6,-3 -2,-1 -3,-3 -3,-6l0 -76c0,-22 -7,-33 -23,-33 -10,0 -19,7 -29,21 0,4 0,8 0,12l0 76c0,3 0,5 -2,6 -2,2 -3,3 -6,3l-30 0c-2,0 -4,-1 -6,-3 -1,-1 -2,-3 -2,-6l0 -76c0,-22 -8,-33 -23,-33 -10,0 -20,7 -29,20l0 89c0,3 -1,5 -2,6 -2,2 -4,3 -6,3l-30 0c-3,0 -5,-1 -6,-3 -2,-1 -2,-3 -2,-6z"/>
   <path id="6" fill="#1961AC" fill-rule="nonzero" d="M1916 595c-14,-13 -21,-32 -21,-57 0,-25 7,-44 21,-57 14,-13 34,-19 60,-19 26,0 46,6 60,19 14,13 21,32 21,57 0,25 -7,44 -21,57 -14,13 -34,19 -60,19 -26,0 -46,-6 -60,-19zm34 -92c-5,8 -8,19 -8,35 0,16 3,28 8,35 6,7 14,11 26,11 12,0 21,-4 27,-11 5,-7 8,-19 8,-35 0,-16 -3,-27 -8,-35 -6,-7 -15,-11 -27,-11 -12,0 -20,4 -26,11z"/>
   <path id="7" fill="#1961AC" fill-rule="nonzero" d="M2085 603l0 -130c0,-2 1,-4 2,-6 2,-2 4,-2 6,-2l30 0c2,0 4,0 6,2 2,2 2,4 2,6l0 8c16,-12 32,-19 49,-19 18,0 32,5 43,16 11,11 16,27 16,49l0 76c0,3 -1,5 -2,6 -2,2 -4,3 -6,3l-30 0c-2,0 -4,-1 -6,-3 -1,-1 -2,-3 -2,-6l0 -76c0,-22 -9,-33 -26,-33 -11,0 -23,7 -36,20l0 89c0,3 0,5 -2,6 -2,2 -4,3 -6,3l-30 0c-2,0 -4,-1 -6,-3 -1,-1 -2,-3 -2,-6z"/>
   <path id="8" fill="#1961AC" fill-rule="nonzero" d="M2345 583l18 -2 5 0c3,0 5,1 6,2 2,2 3,4 3,6l0 14c0,2 -1,4 -3,6 -1,1 -3,2 -6,3 -9,1 -21,2 -35,2 -39,0 -58,-20 -58,-60l0 -126c0,-3 1,-5 2,-6 2,-2 4,-3 6,-3l30 0c3,0 5,1 6,3 2,1 3,3 3,6l0 44 37 0c2,0 4,1 6,3 1,1 2,3 2,6l0 16c0,2 -1,4 -2,6 -2,1 -4,2 -6,2l-37 0 0 49c0,9 2,16 6,21 4,5 10,8 17,8z"/>
   <path id="9" fill="#1961AC" fill-rule="nonzero" d="M2413 595c-14,-13 -21,-32 -21,-57 0,-24 7,-43 21,-56 14,-13 33,-20 57,-20 25,0 44,6 58,19 14,13 21,32 21,55l0 8c0,3 -1,5 -3,6 -1,2 -3,2 -6,2l-101 0c1,11 4,19 10,24 5,5 14,8 26,8 12,0 20,-3 24,-8 5,-5 10,-8 16,-8l20 0c3,0 5,0 6,2 2,2 3,4 3,6 0,26 -25,38 -74,38 -24,0 -44,-6 -57,-19zm26 -71l62 0c0,-21 -11,-32 -31,-32 -19,0 -30,11 -31,32z"/>
   <path fill="#1961AC" fill-rule="nonzero" d="M802 352l0 -177c0,-4 1,-7 3,-10 3,-3 6,-4 10,-4l58 0c4,0 7,1 10,4 4,3 6,6 7,9l42 122 42 -122c1,-3 4,-6 7,-9 3,-3 7,-4 10,-4l58 0c4,0 7,1 10,4 2,3 4,6 4,10l0 177c0,4 -2,7 -4,9 -3,3 -6,4 -10,4l-26 0c-3,0 -6,-1 -9,-4 -3,-2 -4,-5 -4,-9l0 -140 -50 141c-2,3 -4,6 -7,9 -4,2 -7,3 -11,3l-20 0c-4,0 -7,-1 -11,-3 -3,-3 -5,-6 -7,-9l-50 -141 0 140c0,4 -1,7 -4,9 -2,3 -6,4 -9,4l-26 0c-4,0 -7,-1 -9,-4 -3,-2 -4,-5 -4,-9z"/>
   <path id="1" fill="#1961AC" fill-rule="nonzero" d="M1101 300l0 -82c0,-3 0,-5 2,-6 2,-2 4,-3 6,-3l32 0c3,0 5,1 6,3 2,1 3,3 3,6l0 82c0,22 9,34 27,34 12,0 25,-7 38,-21l0 -95c0,-3 1,-5 3,-6 2,-2 4,-3 6,-3l32 0c2,0 5,1 6,3 2,1 3,3 3,6l0 139c0,2 -1,4 -3,6 -1,2 -4,2 -6,2l-32 0c-2,0 -4,0 -6,-2 -2,-2 -3,-4 -3,-6l0 -9c-16,13 -33,20 -52,20 -18,0 -33,-5 -45,-17 -12,-11 -17,-28 -17,-51z"/>
   <path id="2" fill="#1961AC" fill-rule="nonzero" d="M1313 348c-15,-14 -22,-34 -22,-61 0,-26 7,-47 22,-60 15,-14 36,-21 64,-21 28,0 49,7 64,21 15,13 22,34 22,60 0,27 -7,47 -22,61 -15,13 -36,20 -64,20 -28,0 -49,-7 -64,-20zm36 -98c-6,8 -9,20 -9,37 0,17 3,29 9,37 6,8 15,12 28,12 13,0 22,-4 28,-12 6,-8 9,-20 9,-37 0,-17 -3,-29 -9,-37 -6,-8 -15,-11 -28,-11 -13,0 -22,3 -28,11z"/>
   <path id="3" fill="#1961AC" fill-rule="nonzero" d="M1479 209l28 0c4,0 8,1 11,4 4,2 6,5 8,9l39 88 39 -88c1,-4 4,-7 7,-9 4,-3 8,-4 12,-4l27 0c4,0 6,1 7,4 0,1 1,2 1,3 0,2 -1,4 -2,6l-61 131c-2,4 -5,7 -8,9 -4,2 -8,3 -12,3l-21 0c-4,0 -7,-1 -11,-3 -4,-2 -6,-5 -8,-9l-61 -131c-1,-2 -2,-4 -2,-6 0,-4 2,-7 7,-7z"/>
   <path id="4" fill="#1961AC" fill-rule="nonzero" d="M1688 347c-14,-13 -22,-33 -22,-60 0,-26 8,-46 23,-60 14,-14 35,-21 61,-21 26,0 46,7 61,21 15,13 22,33 22,58l0 8c0,3 -1,5 -3,7 -1,2 -3,2 -6,2l-107 0c1,12 4,21 10,26 6,5 15,8 27,8 13,0 22,-3 26,-9 5,-5 11,-8 18,-8l21 0c2,0 4,0 6,2 2,2 3,4 3,6 0,28 -26,41 -78,41 -27,0 -47,-7 -62,-21zm28 -75l67 0c-1,-22 -12,-33 -33,-33 -21,0 -32,11 -34,33z"/>
   <path id="5" fill="#1961AC" fill-rule="nonzero" d="M1967 245l-22 -1c-13,0 -25,7 -37,22l0 91c0,2 0,4 -2,6 -2,2 -4,2 -6,2l-32 0c-3,0 -5,0 -6,-2 -2,-2 -3,-4 -3,-6l0 -139c0,-3 1,-5 3,-6 1,-2 3,-3 6,-3l32 0c2,0 4,1 6,3 2,1 2,3 2,6l0 9c10,-7 19,-12 28,-16 9,-3 21,-5 36,-5 2,0 4,1 6,3 2,1 3,3 3,6l0 22c0,2 -1,4 -3,6 -2,2 -4,2 -6,2l-5 0z"/>
   <path id="6" fill="#1961AC" fill-rule="nonzero" d="M1992 252c0,-30 25,-46 74,-46 52,0 79,14 79,41 0,3 -1,5 -3,6 -1,2 -4,3 -6,3l-21 0c-7,0 -13,-3 -18,-9 -4,-5 -13,-8 -27,-8 -19,0 -28,4 -28,13 0,5 3,8 11,11 7,3 16,5 27,7 10,3 21,5 31,9 11,3 20,8 27,16 8,7 11,16 11,27 0,31 -26,46 -78,46 -52,0 -79,-13 -79,-41 0,-2 1,-4 3,-6 2,-2 4,-2 6,-2l22 0c6,0 12,2 17,8 4,6 14,9 27,9 22,0 33,-5 33,-14 0,-4 -4,-8 -11,-11 -8,-2 -17,-5 -27,-7 -11,-2 -21,-5 -32,-8 -10,-4 -19,-9 -27,-16 -7,-8 -11,-17 -11,-28z"/>
   <path id="7" fill="#1961AC" fill-rule="nonzero" d="M2176 179l0 -5c0,-5 1,-9 4,-12 3,-2 7,-4 12,-4l18 0c5,0 9,2 12,4 3,3 4,7 4,12l0 5c0,5 -1,9 -4,12 -3,3 -7,5 -12,5l-18 0c-5,0 -9,-2 -12,-5 -3,-3 -4,-7 -4,-12zm0 178l0 -136c0,-2 1,-4 3,-6 1,-2 3,-2 6,-2l32 0c2,0 4,0 6,2 2,2 3,4 3,6l0 136c0,2 -1,4 -3,6 -2,2 -4,2 -6,2l-32 0c-3,0 -5,0 -6,-2 -2,-2 -3,-4 -3,-6z"/>
  </g>
  <rect fill="none" width="2618" height="797"/>
 </g>
</svg>
