<?xml version="1.0" encoding="UTF-8"?>
<!DOCTYPE svg PUBLIC "-//W3C//DTD SVG 1.1//EN" "http://www.w3.org/Graphics/SVG/1.1/DTD/svg11.dtd">
<!-- Creator: CorelDRAW X7 -->
<svg xmlns="http://www.w3.org/2000/svg" xml:space="preserve" width="6604px" height="1999px" version="1.1" shape-rendering="geometricPrecision" text-rendering="geometricPrecision" image-rendering="optimizeQuality" fill-rule="evenodd" clip-rule="evenodd"
viewBox="0 0 6597 1997"
 xmlns:xlink="http://www.w3.org/1999/xlink">
 <g id="Livello_x0020_1">
  <metadata id="CorelCorpID_0Corel-Layer"/>
  <path fill="#2B2A29" d="M2320 1559l0 212c0,47 7,75 13,84 12,19 28,25 50,25l22 0 0 19 -250 0 0 -19 22 0c25,0 43,-9 53,-31 6,-9 9,-38 9,-78l0 -475c0,-46 -3,-74 -12,-84 -13,-15 -28,-25 -50,-25l-22 0 0 -19 215 0c53,0 94,7 122,19 31,16 56,38 78,69 22,31 31,72 31,115 0,60 -15,106 -47,144 -31,37 -78,56 -134,56 -15,0 -28,0 -47,-3 -15,-3 -34,-6 -53,-9l0 0zm0 -32c16,4 32,7 41,7 12,3 22,3 31,3 31,0 56,-16 78,-44 22,-28 31,-65 31,-112 0,-31 -3,-63 -15,-88 -10,-28 -25,-46 -44,-62 -19,-13 -41,-19 -66,-19 -12,0 -31,3 -56,10l0 305 0 0z"/>
  <path fill="#2B2A29" fill-rule="nonzero" d="M2907 1880l0 19 -253 0 0 -19 22 0c22,0 41,-9 53,-25 6,-12 10,-40 10,-84l0 -475c0,-37 -4,-62 -7,-71 -3,-10 -9,-19 -18,-25 -13,-10 -25,-13 -38,-13l-22 0 0 -19 253 0 0 19 -22 0c-25,0 -43,10 -53,28 -6,10 -12,38 -12,81l0 475c0,37 3,62 6,72 3,9 9,18 19,25 12,9 25,12 40,12l22 0 0 0z"/>
  <path fill="#2B2A29" fill-rule="nonzero" d="M3113 1206l0 290 128 0c34,0 56,-6 66,-19 15,-15 25,-43 28,-87l15 0 0 256 -15 0c-6,-37 -10,-59 -13,-69 -6,-12 -15,-21 -28,-31 -9,-6 -28,-9 -53,-9l-128 0 0 240c0,34 0,53 3,59 3,10 7,13 13,19 6,3 15,6 31,6l100 0c34,0 56,-3 72,-9 15,-6 31,-19 43,-34 19,-22 38,-56 57,-100l15 0 -50 181 -452 0 0 -19 21 0c13,0 29,-3 41,-12 6,-7 13,-16 16,-25 6,-13 6,-35 6,-72l0 -475c0,-46 -3,-78 -9,-87 -13,-16 -29,-22 -54,-22l-21 0 0 -19 452 0 6 160 -15 0c-6,-38 -13,-66 -22,-78 -6,-16 -19,-28 -31,-35 -13,-6 -31,-9 -63,-9l-159 0 0 0z"/>
  <path fill="#2B2A29" fill-rule="nonzero" d="M3831 1899l-228 -615 0 490c0,44 3,72 13,84 9,16 28,22 50,22l22 0 0 19 -207 0 0 -19 22 0c25,0 44,-9 53,-28 7,-12 10,-37 10,-78l0 -481c0,-31 -3,-56 -10,-68 -3,-13 -9,-19 -21,-25 -10,-10 -29,-13 -54,-13l0 -19 169 0 212 572 209 -572 166 0 0 19 -19 0c-28,0 -44,10 -56,28 -6,13 -9,38 -9,78l0 481c0,44 6,72 12,84 13,16 28,22 53,22l19 0 0 19 -250 0 0 -19 22 0c25,0 44,-9 53,-28 6,-12 9,-37 9,-78l0 -490 -227 615 -13 0 0 0z"/>
  <path fill="#2B2A29" d="M4580 1150c75,0 141,37 197,109 56,72 84,162 84,272 0,109 -28,202 -84,277 -56,72 -125,110 -203,110 -81,0 -150,-38 -206,-110 -53,-71 -81,-162 -81,-277 0,-116 31,-213 93,-284 57,-66 122,-97 200,-97zm-9 40c-53,0 -94,25 -125,72 -41,63 -59,150 -59,265 0,122 18,213 59,278 31,50 75,75 125,75 56,0 100,-28 137,-81 35,-53 53,-140 53,-256 0,-125 -18,-218 -59,-281 -31,-47 -75,-72 -131,-72z"/>
  <path fill="#2B2A29" fill-rule="nonzero" d="M4883 1168l159 0 359 550 0 -425c0,-43 -3,-71 -12,-84 -10,-16 -28,-22 -50,-22l-22 0 0 -19 206 0 0 19 -22 0c-25,0 -40,10 -53,28 -6,13 -9,38 -9,78l0 618 -16 0 -387 -590 0 453c0,44 6,72 12,84 13,16 29,22 50,22l22 0 0 19 -203 0 0 -19 19 0c25,0 44,-9 53,-28 6,-12 10,-37 10,-78l0 -512c-16,-22 -29,-40 -38,-47 -9,-9 -22,-15 -41,-22 -6,-3 -18,-6 -37,-6l0 -19 0 0z"/>
  <path fill="#2B2A29" fill-rule="nonzero" d="M6047 1168l7 172 -16 0c-3,-31 -9,-53 -13,-65 -9,-22 -21,-38 -37,-47 -16,-10 -34,-16 -59,-16l-81 0 0 562c0,44 3,72 12,84 9,16 28,22 50,22l19 0 0 19 -247 0 0 -19 19 0c25,0 44,-9 53,-28 6,-12 9,-37 9,-78l0 -562 -68 0c-28,0 -47,3 -60,10 -15,6 -28,18 -37,37 -13,22 -19,47 -19,81l-19 0 10 -172 477 0 0 0z"/>
  <path fill="#2B2A29" fill-rule="nonzero" d="M6260 1206l0 290 131 0c31,0 56,-6 65,-19 16,-15 25,-43 25,-87l16 0 0 256 -16 0c-3,-37 -6,-59 -12,-69 -3,-12 -13,-21 -25,-31 -13,-6 -31,-9 -53,-9l-131 0 0 240c0,34 3,53 3,59 3,10 9,13 12,19 6,3 19,6 35,6l99 0c32,0 57,-3 72,-9 16,-6 28,-19 44,-34 16,-22 34,-56 53,-100l19 0 -50 181 -453 0 0 -19 22 0c13,0 25,-3 37,-12 10,-7 16,-16 19,-25 3,-13 6,-35 6,-72l0 -475c0,-46 -3,-78 -12,-87 -9,-16 -28,-22 -50,-22l-22 0 0 -19 453 0 6 160 -19 0c-6,-38 -12,-66 -18,-78 -7,-16 -19,-28 -35,-35 -9,-6 -31,-9 -59,-9l-162 0 0 0z"/>
  <path fill="#2B2A29" d="M2829 953l-181 0 -228 -396c-15,3 -31,3 -40,3 -7,0 -10,0 -16,0 -3,0 -9,0 -16,-3l0 246c0,53 7,88 16,100 12,19 31,28 56,28l25 0 0 22 -287 0 0 -22 25 0c28,0 50,-12 62,-37 7,-13 10,-44 10,-91l0 -546c0,-53 -6,-84 -16,-97 -12,-18 -31,-28 -56,-28l-25 0 0 -25 247 0c71,0 124,6 156,22 34,13 65,37 87,72 25,34 38,75 38,125 0,53 -16,96 -41,134 -28,40 -69,65 -128,81l140 244c32,56 60,90 82,109 25,19 53,31 90,37l0 22 0 0zm-481 -434c7,0 13,0 19,0 3,0 6,0 9,0 66,0 113,-19 147,-53 31,-34 50,-78 50,-131 0,-53 -15,-97 -40,-131 -25,-31 -63,-47 -107,-47 -18,0 -43,3 -78,9l0 353z"/>
  <path fill="#2B2A29" fill-rule="nonzero" d="M3035 154l0 334 147 0c37,0 65,-6 78,-22 15,-19 25,-53 28,-100l19 0 0 294 -19 0c-3,-41 -9,-69 -13,-78 -6,-16 -15,-28 -31,-35 -12,-9 -34,-12 -62,-12l-147 0 0 278c0,37 0,59 3,68 3,7 6,13 13,19 6,3 18,6 37,6l116 0c37,0 65,-3 84,-9 16,-6 34,-19 50,-41 19,-25 40,-62 62,-115l19 0 -56 212 -521 0 0 -22 25 0c15,0 31,-6 43,-15 13,-7 19,-16 22,-32 3,-12 6,-40 6,-81l0 -549c0,-53 -6,-84 -12,-97 -13,-19 -31,-25 -59,-25l-25 0 0 -25 521 0 6 187 -19 0c-6,-46 -15,-74 -25,-93 -6,-16 -18,-28 -37,-38 -13,-6 -34,-9 -69,-9l-184 0 0 0z"/>
  <path fill="#2B2A29" fill-rule="nonzero" d="M4071 88l16 269 -16 0c-18,-69 -40,-119 -68,-153 -41,-47 -94,-72 -156,-72 -88,0 -150,44 -197,128 -37,72 -56,156 -56,256 0,81 12,156 37,222 25,65 57,115 97,146 41,32 84,47 125,47 25,0 50,-6 72,-12 25,-10 47,-22 68,-35l0 -246c0,-41 -3,-69 -9,-81 -3,-13 -12,-25 -22,-32 -12,-6 -31,-9 -56,-9l0 -25 259 0 0 25 -12 0c-25,0 -44,9 -53,31 -7,16 -10,47 -10,91l0 259c-37,25 -75,44 -112,56 -38,13 -78,19 -125,19 -131,0 -228,-53 -297,-156 -50,-78 -78,-169 -78,-272 0,-75 16,-147 44,-215 34,-81 81,-144 141,-184 49,-38 106,-57 174,-57 25,0 47,4 66,10 22,3 50,15 87,31 19,9 32,13 38,13 6,0 12,-4 15,-10 3,-6 7,-22 10,-44l18 0 0 0z"/>
  <path fill="#2B2A29" fill-rule="nonzero" d="M4496 931l0 22 -290 0 0 -22 25 0c28,0 46,-12 59,-31 9,-16 12,-47 12,-97l0 -546c0,-41 -3,-72 -6,-84 -3,-10 -9,-19 -22,-25 -12,-13 -28,-16 -43,-16l-25 0 0 -25 290 0 0 25 -25 0c-28,0 -47,10 -59,31 -10,13 -13,44 -13,94l0 546c0,44 0,72 6,85 4,9 10,18 22,28 13,9 28,15 44,15l25 0z"/>
  <path fill="#2B2A29" d="M4892 88c88,0 166,44 228,125 66,85 97,188 97,312 0,128 -31,235 -97,319 -65,87 -143,128 -234,128 -93,0 -172,-41 -234,-125 -66,-81 -97,-187 -97,-318 0,-135 38,-244 110,-331 65,-72 140,-110 227,-110l0 0zm-9 47c-59,0 -109,28 -144,85 -46,68 -68,171 -68,305 0,138 22,244 72,319 34,56 81,84 143,84 63,0 116,-31 156,-94 41,-62 63,-159 63,-293 0,-144 -25,-250 -69,-321 -37,-57 -87,-85 -153,-85l0 0z"/>
  <path fill="#2B2A29" fill-rule="nonzero" d="M5245 107l181 0 415 634 0 -487c0,-50 -6,-84 -15,-97 -13,-15 -31,-25 -56,-25l-25 0 0 -25 234 0 0 25 -22 0c-28,0 -50,10 -63,31 -6,13 -9,44 -9,91l0 712 -19 0 -446 -681 0 521c0,53 6,85 16,97 12,19 31,28 56,28l25 0 0 22 -234 0 0 -22 21 0c29,0 50,-12 63,-34 6,-13 9,-44 9,-91l0 -586c-19,-29 -34,-47 -43,-57 -10,-9 -25,-18 -44,-25 -10,-6 -25,-6 -44,-6l0 -25 0 0z"/>
  <path fill="#2B2A29" fill-rule="nonzero" d="M6207 154l0 334 149 0c38,0 63,-6 78,-22 16,-19 25,-53 28,-100l19 0 0 294 -19 0c-6,-41 -9,-69 -15,-78 -3,-16 -16,-28 -28,-35 -13,-9 -35,-12 -63,-12l-149 0 0 278c0,37 3,59 6,68 0,7 6,13 12,19 7,3 19,6 38,6l115 0c38,0 66,-3 84,-9 16,-6 32,-19 50,-41 19,-25 41,-62 63,-115l19 0 -57 212 -521 0 0 -22 22 0c16,0 31,-6 47,-15 9,-7 19,-16 22,-32 3,-12 6,-40 6,-81l0 -549c0,-53 -6,-84 -13,-97 -12,-19 -34,-25 -62,-25l-22 0 0 -25 521 0 7 187 -19 0c-9,-46 -16,-74 -25,-93 -6,-16 -19,-28 -38,-38 -12,-6 -37,-9 -68,-9l-187 0 0 0z"/>
  <polygon fill="#BCBDBD" fill-rule="nonzero" points="17,1980 2005,1980 2005,17 17,17 "/>
  <polygon fill="none" fill-rule="nonzero" stroke="#BCBDBD" stroke-width="33.2861" points="17,1980 2005,1980 2005,17 17,17 "/>
  <polygon fill="#E31E24" fill-rule="nonzero" points="1256,1886 1911,1886 1911,1247 1256,1247 "/>
  <polygon fill="none" fill-rule="nonzero" stroke="#E31E24" stroke-width="24.964" points="1256,1886 1911,1886 1911,1247 1256,1247 "/>
  <polygon fill="#E31E24" fill-rule="nonzero" points="113,1886 769,1886 769,1247 113,1247 "/>
  <polygon fill="none" fill-rule="nonzero" stroke="#E31E24" stroke-width="24.964" points="113,1886 769,1886 769,1247 113,1247 "/>
  <polygon fill="#E31E24" fill-rule="nonzero" points="113,753 769,753 769,117 113,117 "/>
  <polygon fill="none" fill-rule="nonzero" stroke="#E31E24" stroke-width="24.964" points="113,753 769,753 769,117 113,117 "/>
  <polygon fill="#E31E24" fill-rule="nonzero" points="1256,753 1911,753 1911,117 1256,117 "/>
  <polygon fill="none" fill-rule="nonzero" stroke="#E31E24" stroke-width="24.964" points="1256,753 1911,753 1911,117 1256,117 "/>
  <polygon fill="#0079BF" fill-rule="nonzero" points="516,229 1512,229 1574,416 1390,416 1421,329 603,329 635,416 451,416 "/>
  <polygon fill="none" fill-rule="nonzero" stroke="#0079BF" stroke-width="24.964" points="516,229 1512,229 1574,416 1390,416 1421,329 603,329 635,416 451,416 "/>
  <polygon fill="#0079BF" fill-rule="nonzero" points="953,335 925,416 1103,416 1072,332 "/>
  <polygon fill="none" fill-rule="nonzero" stroke="#0079BF" stroke-width="24.964" points="953,335 925,416 1103,416 1072,332 "/>
 </g>
</svg>
