<svg xmlns="http://www.w3.org/2000/svg" viewBox="0 0 109 100"><path d="M0 95.024a12.4 12.4 0 0 1 .7-1.4 3.9 3.9 0 0 1 3-1.9 10.5 10.5 0 0 1 1.3-.1h98.6a4.4 4.4 0 0 1 3.9 1.7 11.7 11.7 0 0 1 1 1.9v1.3a5 5 0 0 1-3.8 3.4H3.6a4.9 4.9 0 0 1-3.6-3.6zm55.1-60.9l-1.3.6a213.2 213.2 0 0 1-22.1 8.9 62.3 62.3 0 0 1-13.2 3 16.3 16.3 0 0 1-7-.6 5.4 5.4 0 0 1-3.3-3c-2.5-5.8-5.1-11.5-7.7-17.2a2.3 2.3 0 0 1 1.8-3.6 5.2 5.2 0 0 1 4.7.8c2.9 2.2 5.9 4.4 8.9 6.7a5.1 5.1 0 0 0 5.7.6q30.8-13.9 61.6-27.6a27.6 27.6 0 0 1 13.1-2.7 16.3 16.3 0 0 1 9.8 3.3c3 2.6 2.7 3.4 0 5.3a108.1 108.1 0 0 1-10.6 6.5c-5.9 3.1-12 5.9-18.1 8.9a3.1 3.1 0 0 0-1.5 1.6l-16.2 35a34.1 34.1 0 0 1-2.7 4.4c-1.6 2.5-4.3 3.5-6.9 4.5-.7.3-1.2-.1-1.1-1.1.2-1.6.4-3.1.7-4.6q2.6-14.3 5.4-28.6v-1.1zm-1.3-23.1l-3.6 1.6c-3.7 1.7-7.4 3.4-11.2 5a1.8 1.8 0 0 1-1.4 0c-5-3-9.9-6-14.8-9a3.7 3.7 0 0 1-.9-.7c-.7-.7-.6-1.1.3-1.7a14.9 14.9 0 0 1 12.7-1c6.2 2 12.5 3.8 18.9 5.8z" fill="#de5b00"/></svg>
