<svg xmlns="http://www.w3.org/2000/svg" viewBox="0 0 105 100"><path d="M69.2 61.804a5.2 5.2 0 1 0 5.2-5.3 5.2 5.2 0 0 0-5.2 5.3zM58 27.304a3.1 3.1 0 0 0-.1-.4q-4.7-8.5-9.5-17a14 14 0 0 0-9.2-7.2c-1-.2-1.4.1-1.4 1.1a3.5 3.5 0 0 0 .1.9c1.5 5.4 2.9 10.9 4.4 16.4a1.3 1.3 0 0 0 .6.8c5 1.8 10 3.6 15.1 5.4zm-14.4 17.2l-1.4 1-25.2 18a5.7 5.7 0 0 0-1.1 1.2c-.4.4-.4 1 .2 1.2 2 .7 3.8 1.7 6 1.7a19.1 19.1 0 0 0 6.7-1.4q17.6-7 35.3-13.9a2.7 2.7 0 0 1 1.6 0c5.8 1.7 11.4 3.6 17.1 5.4a74.5 74.5 0 0 0 14.3 3.2c2.4.3 3.1-.3 3.1-2.7a13.9 13.9 0 0 0-2.7-7.5 24.8 24.8 0 0 0-12.8-9.3q-31-11.1-62.1-22.2a5 5 0 0 1-3.7-4.3c-.5-3.6-1.2-7.1-1.7-10.6a5.1 5.1 0 0 0-2.7-3.8c-1.9-1-3.1-.5-3.8 1.4q-3.1 8.6-6.1 17.1a6.5 6.5 0 0 0-.3 2.1 7.1 7.1 0 0 0 2.2 4.7 34.4 34.4 0 0 0 9.4 7.1 147.6 147.6 0 0 0 23.5 10.1zM0 95.304v1.3a4.7 4.7 0 0 0 3.5 3.4h97.3a4.8 4.8 0 0 0 3.7-3.2v-1.3a11.2 11.2 0 0 0-.9-1.9 4.2 4.2 0 0 0-3.8-1.6h-95a10.1 10.1 0 0 0-1.3.1 3.8 3.8 0 0 0-2.9 1.8 12.7 12.7 0 0 0-.6 1.4z" fill="#de5b00"/></svg>
