<svg xmlns="http://www.w3.org/2000/svg" viewBox="0 0 109 100"><path d="M0 95a12 12 0 0 1 1-1 4 4 0 0 1 3-2 11 11 0 0 1 1 0h99a4 4 0 0 1 3 1 12 12 0 0 1 2 2v2a5 5 0 0 1-4 3H4a5 5 0 0 1-4-4zm55-61l-1 1a213 213 0 0 1-22 9 62 62 0 0 1-13 3 16 16 0 0 1-7-1 5 5 0 0 1-4-3L1 26a2 2 0 0 1 1-4 5 5 0 0 1 5 1l9 7a5 5 0 0 0 6 0L83 3a28 28 0 0 1 13-3 16 16 0 0 1 10 3c3 3 3 4 0 6a108 108 0 0 1-11 6l-18 9a3 3 0 0 0-1 2L60 61a34 34 0 0 1-3 4c-2 3-4 4-7 5l-1-2 1-4 5-29v-1zm-1-23l-4 2-11 5a2 2 0 0 1-1 0L23 9a4 4 0 0 1-1-1V6a15 15 0 0 1 13-1l19 6z" fill="currentColor"/></svg>
