<svg xmlns="http://www.w3.org/2000/svg" viewBox="0 0 105 100"><path d="M69 62a5 5 0 1 0 5-5 5 5 0 0 0-5 5zM58 27L48 10a14 14 0 0 0-9-7l-1 1a4 4 0 0 0 0 1l4 16a1 1 0 0 0 1 1l15 5zM44 45l-2 1-25 18a6 6 0 0 0-1 1v1l6 2a19 19 0 0 0 7-2l35-14a3 3 0 0 1 2 0l17 6a75 75 0 0 0 14 3c2 0 3 0 3-3a14 14 0 0 0-3-7 25 25 0 0 0-12-10L23 19a5 5 0 0 1-4-4L17 4a5 5 0 0 0-3-3c-1-1-3-1-3 1L5 19a7 7 0 0 0-1 2 7 7 0 0 0 2 5 34 34 0 0 0 10 7 148 148 0 0 0 23 10zM0 95v2a5 5 0 0 0 4 3h97a5 5 0 0 0 3-3v-1a11 11 0 0 0 0-2 4 4 0 0 0-4-2H5a10 10 0 0 0-2 0 4 4 0 0 0-2 2 13 13 0 0 0-1 1z" fill="currentColor"/></svg>
