<svg id="Livello_1" data-name="Livello 1" xmlns="http://www.w3.org/2000/svg" viewBox="0 0 53.82 52.5"><defs><style>.cls-1{fill:#fff;}</style></defs><title>player_default</title><path class="cls-1" d="M49.65,22.77h0.71s26.56,0,26.56,28.33c0,12.75-2.83,17-4.25,18.41,0,0-4.25,2.84-2.83-1.06a75.75,75.75,0,0,1,1.41-10.27s1.42,0,1.42-7.08c0-8.5-5.66-23.37-21.25-23.37H48.58C33,27.73,27.34,42.61,27.34,51.11c0,7.08,1.42,7.08,1.42,7.08a75.64,75.64,0,0,1,1.42,10.27c1.42,3.9-2.83,1.06-2.83,1.06-1.42-1.42-4.25-5.66-4.25-18.41C23.09,22.77,49.65,22.77,49.65,22.77ZM33.78,51.34A4.25,4.25,0,0,1,38.58,55v0l2.17,15.43a4.25,4.25,0,0,1-3.62,4.8h0c-2.33.32-5.18-1.29-5.51-3.62L29.46,56.14C29.13,53.81,31.46,51.67,33.78,51.34Zm32.43,0c2.32,0.33,4.65,2.47,4.33,4.8L68.37,71.57c-0.33,2.32-3.18,3.94-5.51,3.62a4.25,4.25,0,0,1-3.62-4.8h0L61.41,55a4.25,4.25,0,0,1,4.76-3.66h0Z" transform="translate(-23.1 -22.77)"/></svg>