<svg xmlns="http://www.w3.org/2000/svg" viewBox="0 0 54 52"><path d="M26.55 0h.71s26.56 0 26.56 28.33c0 12.75-2.83 17-4.25 18.41 0 0-4.25 2.84-2.83-1.06a75.75 75.75 0 0 1 1.41-10.27s1.42 0 1.42-7.08c0-8.5-5.66-23.37-21.25-23.37h-2.84C9.9 4.96 4.24 19.84 4.24 28.34c0 7.08 1.42 7.08 1.42 7.08a75.64 75.64 0 0 1 1.42 10.27c1.42 3.9-2.83 1.06-2.83 1.06C2.83 45.33 0 41.09 0 28.34-.01 0 26.55 0 26.55 0zM10.68 28.57a4.25 4.25 0 0 1 4.8 3.66l2.17 15.43a4.25 4.25 0 0 1-3.62 4.8c-2.33.32-5.18-1.29-5.51-3.62L6.36 33.37c-.33-2.33 2-4.47 4.32-4.8zm32.43 0c2.32.33 4.65 2.47 4.33 4.8L45.27 48.8c-.33 2.32-3.18 3.94-5.51 3.62a4.25 4.25 0 0 1-3.62-4.8l2.17-15.39a4.25 4.25 0 0 1 4.76-3.66z" fill="#fff"/></svg>
