<?xml version="1.0" encoding="UTF-8" standalone="no"?>
<svg
   xmlns:dc="http://purl.org/dc/elements/1.1/"
   xmlns:cc="http://creativecommons.org/ns#"
   xmlns:rdf="http://www.w3.org/1999/02/22-rdf-syntax-ns#"
   xmlns:svg="http://www.w3.org/2000/svg"
   xmlns="http://www.w3.org/2000/svg"
   xmlns:sodipodi="http://sodipodi.sourceforge.net/DTD/sodipodi-0.dtd"
   xmlns:inkscape="http://www.inkscape.org/namespaces/inkscape"
   viewBox="0 0 55 52"
   version="1.1"
   id="svg4"
   sodipodi:docname="player_default.svg"
   width="54"
   height="52"
   inkscape:version="0.92.3 (2405546, 2018-03-11)">
  <metadata
     id="metadata10">
    <rdf:RDF>
      <cc:Work
         rdf:about="">
        <dc:format>image/svg+xml</dc:format>
        <dc:type
           rdf:resource="http://purl.org/dc/dcmitype/StillImage" />
        <dc:title />
      </cc:Work>
    </rdf:RDF>
  </metadata>
  <defs
     id="defs8" />
  <sodipodi:namedview
     pagecolor="#ffffff"
     bordercolor="#666666"
     borderopacity="1"
     objecttolerance="10"
     gridtolerance="10"
     guidetolerance="10"
     inkscape:pageopacity="0"
     inkscape:pageshadow="2"
     inkscape:window-width="1920"
     inkscape:window-height="1015"
     id="namedview6"
     showgrid="false"
     inkscape:pagecheckerboard="true"
     inkscape:showpageshadow="false"
     borderlayer="false"
     scale-x="1.1"
     fit-margin-top="0"
     fit-margin-left="0"
     fit-margin-right="0"
     fit-margin-bottom="0"
     inkscape:zoom="4.5"
     inkscape:cx="-39"
     inkscape:cy="25"
     inkscape:window-x="0"
     inkscape:window-y="0"
     inkscape:window-maximized="1"
     inkscape:current-layer="svg4"
     viewbox-width="50" />
  <path
     d="m 28,0 c 0,0 27,0 27,28 0,13 -3,17 -4,19 0,0 -5,3 -3,-1 a 76,76 0 0 1 1,-11 c 0,0 2,0 2,-7 C 51,20 45,5 29,5 H 26 C 11,5 4,20 4,28 c 0,7 2,7 2,7 A 76,76 0 0 1 7,46 C 8,50 4,47 4,47 3,45 0,41 0,28 0,0 28,0 28,0 Z M 12,29 a 4,4 0 0 1 4,3 l 3,16 a 4,4 0 0 1 -4,4 C 13,53 9,51 9,49 L 6,33 c 0,-2 2,-4 6,-4 z m 32,0 c 2,0 5,2 4,4 l -2,16 c 0,2 -3,4 -5,3 a 4,4 0 0 1 -4,-4 l 2,-16 a 4,4 0 0 1 5,-3 z"
     id="path2"
     inkscape:connector-curvature="0"
     style="fill:#00ffff" />
</svg>
