<svg xmlns="http://www.w3.org/2000/svg" viewBox="0 0 116 100"><path d="M74.89 19.58a9.708 9.79 0 1 0-9.61-9.69 9.708 9.79 0 0 0 9.61 9.69zM24.17 51.248a24.17 24.376 0 1 0 24.171 24.376 24.17 24.376 0 0 0-24.17-24.376zm0 41.459a16.94 17.083 0 1 1 16.94-17.083 16.94 17.083 0 0 1-16.94 17.083zm28.035-48.751l11.59-11.689 3.863 3.896a33.878 34.166 0 0 0 24.666 10.19v-9.69a23.973 24.176 0 0 1-17.435-7.293l-9.212-9.29a11.887 11.988 0 0 0-7.727-2.898 8.123 8.192 0 0 0-6.736 2.897L37.742 33.766a9.708 9.79 0 0 0-2.972 6.793 8.123 8.192 0 0 0 2.972 6.793L53.195 61.04v24.375h9.609v-30.27zm39.624 7.292a24.17 24.376 0 1 0 24.17 24.376 23.973 24.176 0 0 0-23.675-24.376zm0 41.459a16.94 17.083 0 1 1 16.939-17.083 17.137 17.283 0 0 1-16.94 17.083z"/></svg>
