<svg xmlns="http://www.w3.org/2000/svg" viewBox="0 0 100 89"><path d="M84.603 13.416a7.517 7.517 0 0 0-7.123-4.971H22.52a7.517 7.517 0 0 0-7.114 4.971L5 43.416v40.072a5.04 5.04 0 0 0 5.04 4.962h4.963a5.04 5.04 0 0 0 5.04-4.962v-5.04h60v5.04a5.04 5.04 0 0 0 4.954 4.962h5.04A5.04 5.04 0 0 0 95 83.488v-40.08zM22.52 63.405a7.517 7.517 0 1 1 7.517-7.44 7.517 7.517 0 0 1-7.517 7.44zm54.96 0a7.517 7.517 0 1 1 7.517-7.44 7.517 7.517 0 0 1-7.517 7.44zm-62.485-24.96l7.525-22.474h54.96l7.517 22.474z" fill="#26527b"/></svg>