<svg id="Livello_1" data-name="Livello 1" xmlns="http://www.w3.org/2000/svg" viewBox="0 0 100 69.85"><defs><style>.cls-1{fill:#86abce;}.cls-2{fill:#fff;}</style></defs><title>traffico</title><path class="cls-1" d="M88,18.83H50.67a12,12,0,0,0-12,12V53.5L62,57.5l5.14,22.67H84.88v3a5.5,5.5,0,0,0,11,0v-6a12,12,0,0,0,4.13-9V30.83A12,12,0,0,0,88,18.83Zm-42.83,33V30.5h48V51.83h-48ZM80,67.33A6.67,6.67,0,1,1,86.67,74,6.67,6.67,0,0,1,80,67.33Z" transform="translate(0 -18.83)"/><path class="cls-2" d="M69.35,52.18L58.6,28.81a3,3,0,0,0-2.73-1.75H13.13a3,3,0,0,0-2.75,1.81L0.25,52.25A3,3,0,0,0,0,53.44V83.19a5.5,5.5,0,0,0,11,0V80.94H58.63v2.25a5.5,5.5,0,0,0,11,0V53.44A3,3,0,0,0,69.35,52.18ZM15.09,33.06H54L62,50.63H7.49ZM13.88,70.5a6.5,6.5,0,1,1,6.5-6.5A6.5,6.5,0,0,1,13.88,70.5Zm41.75,0a6.5,6.5,0,1,1,6.5-6.5A6.5,6.5,0,0,1,55.63,70.5Z" transform="translate(0 -18.83)"/></svg>