<svg xmlns="http://www.w3.org/2000/svg" width="100" height="70" viewBox="0 0 100 70"><path d="M88 0H50.67a12 12 0 0 0-12 12v22.67l23.33 4 5.14 22.67h17.74v3a5.5 5.5 0 0 0 11 0v-6a12 12 0 0 0 4.13-9V12A12 12 0 0 0 88 0zM45.17 33V11.67h48V33h-48zM80 48.5a6.67 6.67 0 1 1 6.67 6.67A6.67 6.67 0 0 1 80 48.5z" fill="#86abce"/><path d="M69.35 33.35L58.6 9.98a3 3 0 0 0-2.73-1.75H13.13a3 3 0 0 0-2.75 1.81L.25 33.42A3 3 0 0 0 0 34.61v29.75a5.5 5.5 0 0 0 11 0v-2.25h47.63v2.25a5.5 5.5 0 0 0 11 0V34.61a3 3 0 0 0-.28-1.26zM15.09 14.23H54l8 17.57H7.49zm-1.21 37.44a6.5 6.5 0 1 1 6.5-6.5 6.5 6.5 0 0 1-6.5 6.5zm41.75 0a6.5 6.5 0 1 1 6.5-6.5 6.5 6.5 0 0 1-6.5 6.5z" fill="#fff"/></svg>
