<svg xmlns="http://www.w3.org/2000/svg" height="170" width="170"><path d="M21 126" fill="#fff"/><path d="M1 152c0-5 0-6 7-12 10-8 15-12 30-18l3-3-2-8-4-3c-5-2-8-5-10-12l-2-18 1-19c3-12 7-28 10-33 1-3 4-6 6-7l4-2 3-1h18c21 0 25 0 28 2 3 1 6 4 7 6l4 14c8 26 11 34 18 41 5 5 9 8 19 11l9 2 5 1 1 9v9l-1 4-1 2h14l-12 1-47 1c-6 1-17 6-22 9a65 65 0 0 0-19 26l-7 1h-7l8-13 12-13a129 129 0 0 1 16-10H74l-26 5c-13 5-28 16-36 28l-2 3H1v-3zm152-51l1-4v-4h-5l-21-7c-5-2-13-12-16-18-1-2-2-2-2 0v21l3 2c9 6 15 8 26 10h14zM40 93c6-3 7-10 2-14-3-2-8-1-11 1-3 4-2 11 2 13h7zm54-1c4-3 4-10 0-13l-5-1-4 1c-2 2-3 4-3 7l1 4c2 3 3 4 7 4l4-2zM62 54l1-10V34H34l-2 5-3 15h33zm34 0l1-1-1-15-1-4H66l-2 19v1h32zM68 31l3-3v-7c-1-3-6-4-9-3-4 2-5 7-3 10s6 4 9 3z" stroke="#04655d" fill="#00665d"/></svg>