<svg xmlns="http://www.w3.org/2000/svg" height="170" width="170"><path d="M21.233 126.086a1.756 1.756 0 1 1 0 0" fill="#fff"/><path d="M1.013 151.776c0-5.21.156-5.464 7.113-11.535 9.885-8.628 15.108-11.922 29.508-18.611 3.302-1.534 3.749-1.858 3.749-2.718 0-1.132-1.385-4.957-2.82-7.79-.916-1.807-1.196-2.039-3.572-2.957-5.455-2.108-7.952-4.968-10.431-11.948-.952-2.679-.967-2.907-1.15-17.765-.179-14.391-.15-15.226.653-19.031 2.584-12.252 7.365-28.485 9.892-33.584 1.497-3.022 3.826-5.652 5.999-6.774.8-.414 2.786-1.264 4.413-1.89l2.958-1.14 17.695.013c20.947.015 24.677.263 28.1 1.865 3.002 1.405 5.71 3.857 6.94 6.284.516 1.017 2.417 7.165 4.226 13.664 7.248 26.032 10.874 34.626 17.333 41.073 5.57 5.56 9.833 7.881 19.674 10.71 2.461.709 6.465 1.674 8.897 2.146 2.89.561 4.688 1.11 5.19 1.586.713.674.779 1.319.899 8.762.126 7.831.107 8.064-.737 9.205-.565.764-.927 1.91-1.042 3.297l-.176 2.127h6.968c5.938 0 6.968.085 6.968.577 0 .5-1.619.578-12.207.59-18.337.018-43.742.643-46.972 1.152-6.278.988-17.208 5.473-21.762 8.928-4.486 3.404-10.675 10.379-13.727 15.47-1.613 2.69-5.072 9.684-5.388 10.894-.213.814-.369.833-6.982.833-3.72 0-6.765-.114-6.765-.254 0-.66 4.949-9.58 7.168-12.921 2.953-4.445 7.952-9.817 12.276-13.194 2.845-2.222 8.846-6.037 13.909-8.844 1.11-.616 2.018-1.249 2.018-1.408.001-.494-10.328-.308-15.57.281-9.712 1.091-19.807 3.224-26.528 5.601-12.587 4.453-27.42 15.823-35.628 27.31l-2.435 3.408-4.326.011-4.325.01v-3.435zm151.9-50.622c.314-.379.572-1.994.668-4.19l.156-3.572-1.102-.22c-.605-.12-2.226-.41-3.6-.643-7.069-1.198-16.303-4.043-20.954-6.455-4.954-2.57-12.914-11.702-15.737-18.057-.961-2.162-1.855-2.037-2.208.31-.143.948-.273 6.076-.288 11.395l-.029 9.671 3.007 1.929c8.748 5.611 14.788 7.785 25.79 9.282 9.792 1.332 13.528 1.476 14.297.55zM40.449 92.969c5.462-2.48 6.109-9.671 1.226-13.618-2.791-2.256-8.004-1.802-10.455.911-3.626 4.014-2.459 10.566 2.265 12.712 1.99.904 4.968.901 6.964-.005h0zm53.538-.527c4.475-2.962 4.471-10.295-.007-13.259-1.394-.922-1.974-1.057-4.538-1.057s-3.144.135-4.538 1.057c-2.183 1.445-3.228 3.606-3.293 6.81-.046 2.319.062 2.687 1.295 4.402 1.925 2.676 3.393 3.375 6.763 3.224 2.2-.1 3.033-.326 4.318-1.176zM61.654 53.615c.205-.265.759-4.701 1.23-9.86.707-7.734.768-9.435.347-9.702-.281-.178-7.004-.326-14.94-.329l-14.43-.006-1.483 5.478C28.64 53 28.624 53.084 29.34 53.611c.498.366 4.388.481 16.298.481 12.059 0 15.729-.11 16.016-.48zm34.544.186c.227-.155.52-.573.65-.928.245-.665-.135-6.726-.917-14.637l-.447-4.518H80.975c-11.14 0-14.6.112-14.9.48-.344.42-2.009 16.052-2.009 18.856v1.04l15.86-.005c8.723-.003 16.045-.133 16.273-.288zM67.79 31c1.378-.522 2.72-1.77 3.487-3.243.819-1.57.802-5.065-.031-6.634-1.658-3.12-6.582-4.492-9.677-2.694-3.19 1.853-4.442 6.571-2.555 9.625 1.737 2.81 5.66 4.126 8.776 2.946z" fill-opacity=".9" stroke="#04655d" stroke-width=".6" fill="#00665d"/></svg>
