<?xml version="1.0" encoding="UTF-8" standalone="no"?>
<!-- Created with Inkscape (http://www.inkscape.org/) -->
<svg id="svg2985" xmlns:rdf="http://www.w3.org/1999/02/22-rdf-syntax-ns#" xmlns="http://www.w3.org/2000/svg" xml:space="preserve" height="170" width="170" version="1.1" xmlns:cc="http://creativecommons.org/ns#" xmlns:dc="http://purl.org/dc/elements/1.1/"><metadata id="metadata2991"><rdf:RDF><cc:Work rdf:about=""><dc:format>image/svg+xml</dc:format><dc:type rdf:resource="http://purl.org/dc/dcmitype/StillImage"/><dc:title/></cc:Work></rdf:RDF></metadata><defs id="defs2989"><clipPath id="clipPath3557" clipPathUnits="userSpaceOnUse"><path id="path3559" d="m168 3813.6v100h100v-100h-100z"/></clipPath><clipPath id="clipPath3571" clipPathUnits="userSpaceOnUse"><path id="path3573" d="m168 3813.6v100h100v-100h-100z"/></clipPath><clipPath id="clipPath3585" clipPathUnits="userSpaceOnUse"><path id="path3587" d="m168 3813.6v100h100v-100h-100z"/></clipPath><clipPath id="clipPath3599" clipPathUnits="userSpaceOnUse"><path id="path3601" d="m168 3813.6v100h100v-100h-100z"/></clipPath><clipPath id="clipPath3613" clipPathUnits="userSpaceOnUse"><path id="path3615" d="m168 3813.6v100h100v-100h-100z"/></clipPath><clipPath id="clipPath3631" clipPathUnits="userSpaceOnUse"><path id="path3633" d="m168 3813.6v100h100v-100h-100z"/></clipPath><clipPath id="clipPath3657" clipPathUnits="userSpaceOnUse"><path id="path3659" d="m168 3813.6v100h100v-100h-100z"/></clipPath><clipPath id="clipPath3675" clipPathUnits="userSpaceOnUse"><path id="path3677" d="m168 3813.6v100h100v-100h-100z"/></clipPath><clipPath id="clipPath3693" clipPathUnits="userSpaceOnUse"><path id="path3695" d="m168 3813.6v100h100v-100h-100z"/></clipPath><clipPath id="clipPath3711" clipPathUnits="userSpaceOnUse"><path id="path3713" d="m168 3813.6v100h100v-100h-100z"/></clipPath><clipPath id="clipPath3729" clipPathUnits="userSpaceOnUse"><path id="path3731" d="m168 3813.6v100h100v-100h-100z"/></clipPath><clipPath id="clipPath3747" clipPathUnits="userSpaceOnUse"><path id="path3749" d="m168 3813.6v100h100v-100h-100z"/></clipPath><clipPath id="clipPath3765" clipPathUnits="userSpaceOnUse"><path id="path3767" d="m168 3813.6v100h100v-100h-100z"/></clipPath><clipPath id="clipPath3783" clipPathUnits="userSpaceOnUse"><path id="path3785" d="m168 3813.6v100h100v-100h-100z"/></clipPath><clipPath id="clipPath3801" clipPathUnits="userSpaceOnUse"><path id="path3803" d="m168 3813.6v100h100v-100h-100z"/></clipPath><clipPath id="clipPath3819" clipPathUnits="userSpaceOnUse"><path id="path3821" d="m168 3813.6v100h100v-100h-100z"/></clipPath><clipPath id="clipPath3837" clipPathUnits="userSpaceOnUse"><path id="path3839" d="m168 3813.6v100h100v-100h-100z"/></clipPath><clipPath id="clipPath3855" clipPathUnits="userSpaceOnUse"><path id="path3857" d="m168 3813.6v100h100v-100h-100z"/></clipPath><clipPath id="clipPath3873" clipPathUnits="userSpaceOnUse"><path id="path3875" d="m168 3813.6v100h100v-100h-100z"/></clipPath><clipPath id="clipPath3891" clipPathUnits="userSpaceOnUse"><path id="path3893" d="m168 3813.6v100h100v-100h-100z"/></clipPath><clipPath id="clipPath3909" clipPathUnits="userSpaceOnUse"><path id="path3911" d="m168 3813.6v100h100v-100h-100z"/></clipPath><clipPath id="clipPath3931" clipPathUnits="userSpaceOnUse"><path id="path3933" d="m168 3813.6v100h100v-100h-100z"/></clipPath><clipPath id="clipPath3949" clipPathUnits="userSpaceOnUse"><path id="path3951" d="m168 3813.6v100h100v-100h-100z"/></clipPath><clipPath id="clipPath3967" clipPathUnits="userSpaceOnUse"><path id="path3969" d="m168 3813.6v100h100v-100h-100z"/></clipPath><clipPath id="clipPath3985" clipPathUnits="userSpaceOnUse"><path id="path3987" d="m168 3813.6v100h100v-100h-100z"/></clipPath><clipPath id="clipPath4003" clipPathUnits="userSpaceOnUse"><path id="path4005" d="m168 3813.6v100h100v-100h-100z"/></clipPath><clipPath id="clipPath4017" clipPathUnits="userSpaceOnUse"><path id="path4019" d="m168 3813.6v100h100v-100h-100z"/></clipPath><clipPath id="clipPath4031" clipPathUnits="userSpaceOnUse"><path id="path4033" d="m168 3813.6v100h100v-100h-100z"/></clipPath><clipPath id="clipPath4045" clipPathUnits="userSpaceOnUse"><path id="path4047" d="m168 3813.6v100h100v-100h-100z"/></clipPath><clipPath id="clipPath4059" clipPathUnits="userSpaceOnUse"><path id="path4061" d="m168 3813.6v100h100v-100h-100z"/></clipPath><clipPath id="clipPath4077" clipPathUnits="userSpaceOnUse"><path id="path4079" d="m168 3813.6v100h100v-100h-100z"/></clipPath><clipPath id="clipPath4103" clipPathUnits="userSpaceOnUse"><path id="path4105" d="m168 3813.6v100h100v-100h-100z"/></clipPath><clipPath id="clipPath4121" clipPathUnits="userSpaceOnUse"><path id="path4123" d="m168 3813.6v100h100v-100h-100z"/></clipPath><clipPath id="clipPath4139" clipPathUnits="userSpaceOnUse"><path id="path4141" d="m168 3813.6v100h100v-100h-100z"/></clipPath><clipPath id="clipPath4157" clipPathUnits="userSpaceOnUse"><path id="path4159" d="m168 3813.6v100h100v-100h-100z"/></clipPath><clipPath id="clipPath4175" clipPathUnits="userSpaceOnUse"><path id="path4177" d="m168 3813.6v100h100v-100h-100z"/></clipPath><clipPath id="clipPath4193" clipPathUnits="userSpaceOnUse"><path id="path4195" d="m168 3813.6v100h100v-100h-100z"/></clipPath><clipPath id="clipPath4211" clipPathUnits="userSpaceOnUse"><path id="path4213" d="m168 3813.6v100h100v-100h-100z"/></clipPath><clipPath id="clipPath4229" clipPathUnits="userSpaceOnUse"><path id="path4231" d="m168 3813.6v100h100v-100h-100z"/></clipPath><clipPath id="clipPath4247" clipPathUnits="userSpaceOnUse"><path id="path4249" d="m168 3813.6v100h100v-100h-100z"/></clipPath><clipPath id="clipPath4265" clipPathUnits="userSpaceOnUse"><path id="path4267" d="m168 3813.6v100h100v-100h-100z"/></clipPath><clipPath id="clipPath4283" clipPathUnits="userSpaceOnUse"><path id="path4285" d="m168 3813.6v100h100v-100h-100z"/></clipPath><clipPath id="clipPath4301" clipPathUnits="userSpaceOnUse"><path id="path4303" d="m168 3813.6v100h100v-100h-100z"/></clipPath><clipPath id="clipPath4319" clipPathUnits="userSpaceOnUse"><path id="path4321" d="m168 3813.6v100h100v-100h-100z"/></clipPath><clipPath id="clipPath4337" clipPathUnits="userSpaceOnUse"><path id="path4339" d="m168 3813.6v100h100v-100h-100z"/></clipPath><clipPath id="clipPath4355" clipPathUnits="userSpaceOnUse"><path id="path4357" d="m168 3813.6v100h100v-100h-100z"/></clipPath><clipPath id="clipPath4377" clipPathUnits="userSpaceOnUse"><path id="path4379" d="m168 3813.6v100h100v-100h-100z"/></clipPath><clipPath id="clipPath4395" clipPathUnits="userSpaceOnUse"><path id="path4397" d="m168 3813.6v100h100v-100h-100z"/></clipPath><clipPath id="clipPath4413" clipPathUnits="userSpaceOnUse"><path id="path4415" d="m168 3813.6v100h100v-100h-100z"/></clipPath><clipPath id="clipPath4431" clipPathUnits="userSpaceOnUse"><path id="path4433" d="m168 3813.6v100h100v-100h-100z"/></clipPath><clipPath id="clipPath4449" clipPathUnits="userSpaceOnUse"><path id="path4451" d="m168 3813.6v100h100v-100h-100z"/></clipPath><clipPath id="clipPath4467" clipPathUnits="userSpaceOnUse"><path id="path4469" d="m168 3813.6v100h100v-100h-100z"/></clipPath><clipPath id="clipPath4485" clipPathUnits="userSpaceOnUse"><path id="path4487" d="m168 3813.6v100h100v-100h-100z"/></clipPath><clipPath id="clipPath4503" clipPathUnits="userSpaceOnUse"><path id="path4505" d="m168 3813.6v100h100v-100h-100z"/></clipPath><clipPath id="clipPath4521" clipPathUnits="userSpaceOnUse"><path id="path4523" d="m168 3813.6v100h100v-100h-100z"/></clipPath><clipPath id="clipPath4539" clipPathUnits="userSpaceOnUse"><path id="path4541" d="m168 3813.6v100h100v-100h-100z"/></clipPath><clipPath id="clipPath4557" clipPathUnits="userSpaceOnUse"><path id="path4559" d="m168 3813.6v100h100v-100h-100z"/></clipPath><clipPath id="clipPath4579" clipPathUnits="userSpaceOnUse"><path id="path4581" d="m168 3813.6v100h100v-100h-100z"/></clipPath><clipPath id="clipPath4601" clipPathUnits="userSpaceOnUse"><path id="path4603" d="m168 3813.6v100h100v-100h-100z"/></clipPath><clipPath id="clipPath4619" clipPathUnits="userSpaceOnUse"><path id="path4621" d="m168 3813.6v100h100v-100h-100z"/></clipPath><clipPath id="clipPath4637" clipPathUnits="userSpaceOnUse"><path id="path4639" d="m168 3813.6v100h100v-100h-100z"/></clipPath><clipPath id="clipPath4655" clipPathUnits="userSpaceOnUse"><path id="path4657" d="m168 3813.6v100h100v-100h-100z"/></clipPath><clipPath id="clipPath4673" clipPathUnits="userSpaceOnUse"><path id="path4675" d="m168 3813.6v100h100v-100h-100z"/></clipPath><clipPath id="clipPath4691" clipPathUnits="userSpaceOnUse"><path id="path4693" d="m168 3813.6v100h100v-100h-100z"/></clipPath><clipPath id="clipPath4709" clipPathUnits="userSpaceOnUse"><path id="path4711" d="m168 3813.6v100h100v-100h-100z"/></clipPath><clipPath id="clipPath4727" clipPathUnits="userSpaceOnUse"><path id="path4729" d="m168 3813.6v100h100v-100h-100z"/></clipPath><clipPath id="clipPath4745" clipPathUnits="userSpaceOnUse"><path id="path4747" d="m168 3813.6v100h100v-100h-100z"/></clipPath><clipPath id="clipPath4763" clipPathUnits="userSpaceOnUse"><path id="path4765" d="m168 3813.6v100h100v-100h-100z"/></clipPath><clipPath id="clipPath4781" clipPathUnits="userSpaceOnUse"><path id="path4783" d="m168 3813.6v100h100v-100h-100z"/></clipPath><clipPath id="clipPath4799" clipPathUnits="userSpaceOnUse"><path id="path4801" d="m168 3813.6v100h100v-100h-100z"/></clipPath><clipPath id="clipPath4817" clipPathUnits="userSpaceOnUse"><path id="path4819" d="m168 3813.6v100h100v-100h-100z"/></clipPath><clipPath id="clipPath4839" clipPathUnits="userSpaceOnUse"><path id="path4841" d="m168 3813.6v100h100v-100h-100z"/></clipPath><clipPath id="clipPath4857" clipPathUnits="userSpaceOnUse"><path id="path4859" d="m168 3813.6v100h100v-100h-100z"/></clipPath><clipPath id="clipPath4875" clipPathUnits="userSpaceOnUse"><path id="path4877" d="m168 3813.6v100h100v-100h-100z"/></clipPath><clipPath id="clipPath4893" clipPathUnits="userSpaceOnUse"><path id="path4895" d="m168 3813.6v100h100v-100h-100z"/></clipPath><clipPath id="clipPath4911" clipPathUnits="userSpaceOnUse"><path id="path4913" d="m168 3813.6v100h100v-100h-100z"/></clipPath><clipPath id="clipPath4929" clipPathUnits="userSpaceOnUse"><path id="path4931" d="m168 3813.6v100h100v-100h-100z"/></clipPath><clipPath id="clipPath4947" clipPathUnits="userSpaceOnUse"><path id="path4949" d="m168 3813.6v100h100v-100h-100z"/></clipPath><clipPath id="clipPath4965" clipPathUnits="userSpaceOnUse"><path id="path4967" d="m168 3813.6v100h100v-100h-100z"/></clipPath><clipPath id="clipPath4983" clipPathUnits="userSpaceOnUse"><path id="path4985" d="m168 3813.6v100h100v-100h-100z"/></clipPath><clipPath id="clipPath5001" clipPathUnits="userSpaceOnUse"><path id="path5003" d="m168 3813.6v100h100v-100h-100z"/></clipPath><clipPath id="clipPath5019" clipPathUnits="userSpaceOnUse"><path id="path5021" d="m168 3813.6v100h100v-100h-100z"/></clipPath><clipPath id="clipPath5037" clipPathUnits="userSpaceOnUse"><path id="path5039" d="m168 3813.6v100h100v-100h-100z"/></clipPath><clipPath id="clipPath5055" clipPathUnits="userSpaceOnUse"><path id="path5057" d="m168 3813.6v100h100v-100h-100z"/></clipPath><clipPath id="clipPath5077" clipPathUnits="userSpaceOnUse"><path id="path5079" d="m168 3813.6v100h100v-100h-100z"/></clipPath><clipPath id="clipPath5099" clipPathUnits="userSpaceOnUse"><path id="path5101" d="m168 3813.6v100h100v-100h-100z"/></clipPath><clipPath id="clipPath5117" clipPathUnits="userSpaceOnUse"><path id="path5119" d="m168 3813.6v100h100v-100h-100z"/></clipPath><clipPath id="clipPath5135" clipPathUnits="userSpaceOnUse"><path id="path5137" d="m168 3813.6v100h100v-100h-100z"/></clipPath><clipPath id="clipPath5153" clipPathUnits="userSpaceOnUse"><path id="path5155" d="m168 3813.6v100h100v-100h-100z"/></clipPath><clipPath id="clipPath5171" clipPathUnits="userSpaceOnUse"><path id="path5173" d="m168 3813.6v100h100v-100h-100z"/></clipPath><clipPath id="clipPath5189" clipPathUnits="userSpaceOnUse"><path id="path5191" d="m168 3813.6v100h100v-100h-100z"/></clipPath><clipPath id="clipPath5207" clipPathUnits="userSpaceOnUse"><path id="path5209" d="m168 3813.6v100h100v-100h-100z"/></clipPath><clipPath id="clipPath5225" clipPathUnits="userSpaceOnUse"><path id="path5227" d="m168 3813.6v100h100v-100h-100z"/></clipPath><clipPath id="clipPath5243" clipPathUnits="userSpaceOnUse"><path id="path5245" d="m168 3813.6v100h100v-100h-100z"/></clipPath><clipPath id="clipPath5261" clipPathUnits="userSpaceOnUse"><path id="path5263" d="m168 3813.6v100h100v-100h-100z"/></clipPath><clipPath id="clipPath5279" clipPathUnits="userSpaceOnUse"><path id="path5281" d="m168 3813.6v100h100v-100h-100z"/></clipPath><clipPath id="clipPath5301" clipPathUnits="userSpaceOnUse"><path id="path5303" d="m168 3813.6v100h100v-100h-100z"/></clipPath><clipPath id="clipPath5319" clipPathUnits="userSpaceOnUse"><path id="path5321" d="m168 3813.6v100h100v-100h-100z"/></clipPath><clipPath id="clipPath5337" clipPathUnits="userSpaceOnUse"><path id="path5339" d="m168 3813.6v100h100v-100h-100z"/></clipPath><clipPath id="clipPath5355" clipPathUnits="userSpaceOnUse"><path id="path5357" d="m168 3813.6v100h100v-100h-100z"/></clipPath></defs><g id="g2993" transform="matrix(1.25,0,0,-1.25,0,170)"><path id="path3045" d="m16.986 35.131c0-0.77585-0.62975-1.4056-1.4056-1.4056s-1.4039 0.62975-1.4039 1.4056 0.62807 1.4039 1.4039 1.4039c0.77585 0 1.4056-0.62807 1.4056-1.4039" fill="#fff"/><g id="g3553" transform="scale(.1)"/><g id="g3567" transform="scale(.1)"/><g id="g3581" transform="scale(.1)"/><g id="g3595" transform="scale(.1)"/><g id="g3609" transform="scale(.1)"/><g id="g3627" transform="scale(.1)"/><g id="g3653" transform="scale(.1)"/><g id="g3671" transform="scale(.1)"/><g id="g3689" transform="scale(.1)"/><g id="g3707" transform="scale(.1)"/><g id="g3725" transform="scale(.1)"/><g id="g3743" transform="scale(.1)"/><g id="g3761" transform="scale(.1)"/><g id="g3779" transform="scale(.1)"/><g id="g3797" transform="scale(.1)"/><g id="g3815" transform="scale(.1)"/><g id="g3833" transform="scale(.1)"/><g id="g3851" transform="scale(.1)"/><g id="g3869" transform="scale(.1)"/><g id="g3887" transform="scale(.1)"/><g id="g3905" transform="scale(.1)"/><g id="g3927" transform="scale(.1)"/><g id="g3945" transform="scale(.1)"/><g id="g3963" transform="scale(.1)"/><g id="g3981" transform="scale(.1)"/><g id="g3999" transform="scale(.1)"/><g id="g4013" transform="scale(.1)"/><g id="g4027" transform="scale(.1)"/><g id="g4041" transform="scale(.1)"/><g id="g4055" transform="scale(.1)"/><g id="g4073" transform="scale(.1)"/><g id="g4099" transform="scale(.1)"/><g id="g4117" transform="scale(.1)"/><g id="g4135" transform="scale(.1)"/><g id="g4153" transform="scale(.1)"/><g id="g4171" transform="scale(.1)"/><g id="g4189" transform="scale(.1)"/><g id="g4207" transform="scale(.1)"/><g id="g4225" transform="scale(.1)"/><g id="g4243" transform="scale(.1)"/><g id="g4261" transform="scale(.1)"/><g id="g4279" transform="scale(.1)"/><g id="g4297" transform="scale(.1)"/><g id="g4315" transform="scale(.1)"/><g id="g4333" transform="scale(.1)"/><g id="g4351" transform="scale(.1)"/><g id="g4373" transform="scale(.1)"/><g id="g4391" transform="scale(.1)"/><g id="g4409" transform="scale(.1)"/><g id="g4427" transform="scale(.1)"/><g id="g4445" transform="scale(.1)"/><g id="g4463" transform="scale(.1)"/><g id="g4481" transform="scale(.1)"/><g id="g4499" transform="scale(.1)"/><g id="g4517" transform="scale(.1)"/><g id="g4535" transform="scale(.1)"/><g id="g4553" transform="scale(.1)"/><g id="g4575" transform="scale(.1)"/><g id="g4597" transform="scale(.1)"/><g id="g4615" transform="scale(.1)"/><g id="g4633" transform="scale(.1)"/><g id="g4651" transform="scale(.1)"/><g id="g4669" transform="scale(.1)"/><g id="g4687" transform="scale(.1)"/><g id="g4705" transform="scale(.1)"/><g id="g4723" transform="scale(.1)"/><g id="g4741" transform="scale(.1)"/><g id="g4759" transform="scale(.1)"/><g id="g4777" transform="scale(.1)"/><g id="g4795" transform="scale(.1)"/><g id="g4813" transform="scale(.1)"/><g id="g4835" transform="scale(.1)"/><g id="g4853" transform="scale(.1)"/><g id="g4871" transform="scale(.1)"/><g id="g4889" transform="scale(.1)"/><g id="g4907" transform="scale(.1)"/><g id="g4925" transform="scale(.1)"/><g id="g4943" transform="scale(.1)"/><g id="g4961" transform="scale(.1)"/><g id="g4979" transform="scale(.1)"/><g id="g4997" transform="scale(.1)"/><g id="g5015" transform="scale(.1)"/><g id="g5033" transform="scale(.1)"/><g id="g5051" transform="scale(.1)"/><g id="g5073" transform="scale(.1)"/><g id="g5095" transform="scale(.1)"/><g id="g5113" transform="scale(.1)"/><g id="g5131" transform="scale(.1)"/><g id="g5149" transform="scale(.1)"/><g id="g5167" transform="scale(.1)"/><g id="g5185" transform="scale(.1)"/><g id="g5203" transform="scale(.1)"/><g id="g5221" transform="scale(.1)"/><g id="g5239" transform="scale(.1)"/><g id="g5257" transform="scale(.1)"/><g id="g5275" transform="scale(.1)"/><g id="g5297" transform="scale(.1)"/><g id="g5315" transform="scale(.1)"/><g id="g5333" transform="scale(.1)"/><g id="g5351" transform="scale(.1)"/><path id="path4539" d="m0.8102 14.579c0 4.1683 0.12517 4.3713 5.6902 9.2282 7.9085 6.9023 12.087 9.5378 23.607 14.889 2.641 1.2268 2.9989 1.4863 2.9989 2.1745 0 0.90566-1.1078 3.9656-2.2558 6.2312-0.73297 1.4464-0.95653 1.6316-2.8578 2.3663-4.3639 1.6865-6.3616 3.9746-8.345 9.5581-0.76131 2.1431-0.77315 2.3259-0.92024 14.212-0.14248 11.513-0.11957 12.181 0.52257 15.225 2.0675 9.8019 5.8927 22.788 7.9139 26.867 1.1978 2.4174 3.061 4.5214 4.7993 5.4195 0.64006 0.33071 2.2286 1.0113 3.5301 1.5125l2.3664 0.91122 14.156-0.0104c16.758-0.0122 19.742-0.21025 22.481-1.492 2.401-1.1236 4.5677-3.0856 5.5515-5.027 0.41219-0.81343 1.9336-5.7325 3.3809-10.931 5.7979-20.826 8.699-27.701 13.866-32.859 4.4554-4.4474 7.8667-6.3045 15.739-8.5682 1.9694-0.56632 5.1725-1.3387 7.1179-1.7164 2.3125-0.44896 3.7501-0.88819 4.1523-1.2686 0.56986-0.53902 0.62278-1.0552 0.71861-7.0094 0.10085-6.2653 0.086-6.4512-0.58906-7.3643-0.45206-0.61145-0.7415-1.5274-0.83359-2.6379l-0.14109-1.7012h5.5745c4.75 0 5.5745-0.06824 5.5745-0.46137 0-0.40018-1.2951-0.46285-9.7656-0.47257-14.67-0.014-34.994-0.514-37.578-0.921-5.022-0.791-13.766-4.379-17.409-7.143-3.589-2.723-8.54-8.303-10.982-12.376-1.2901-2.152-4.0575-7.7471-4.3106-8.715-0.17032-0.65132-0.29477-0.66616-5.5856-0.66616-2.9763 0-5.4114 0.09125-5.4114 0.20278 0 0.52853 3.9585 7.6649 5.734 10.337 2.3627 3.5562 6.3613 7.8537 9.8209 10.555 2.2762 1.7774 7.0767 4.83 11.127 7.0757 0.88796 0.49231 1.6146 0.99893 1.6148 1.1258 0.000617 0.39569-8.2628 0.2467-12.457-0.22458-7.769-0.873-15.845-2.579-21.222-4.481-10.069-3.562-21.935-12.658-28.502-21.848l-1.9484-2.7264-3.4603-0.0085-3.4603-0.0085v2.7482zm121.52 40.498c0.25148 0.303 0.45752 1.5953 0.53431 3.3512l0.125 2.858-0.88112 0.17588c-0.48461 0.09673-1.7808 0.3284-2.8804 0.51482-5.655 0.9587-13.042 3.2344-16.763 5.1642-3.9632 2.0553-10.331 9.3611-12.59 14.445-0.76882 1.73-1.4834 1.63-1.7662-0.2472-0.11433-0.75904-0.21814-4.8616-0.23069-9.1168l-0.02276-7.7367 2.4051-1.5428c6.9984-4.4893 11.831-6.2285 20.633-7.4259 7.8332-1.0656 10.822-1.1805 11.437-0.43985zm-89.971 6.5481c4.3692 1.9844 4.8871 7.7367 0.9809 10.894-2.233 1.8048-6.4037 1.4413-8.3645-0.7291-2.9008-3.2109-1.9665-8.4521 1.8127-10.169 1.592-0.72312 3.9737-0.7214 5.5709 0.0041v0.000016zm42.83 0.42128c3.5803 2.3694 3.5774 8.2363-0.0052 10.607-1.1151 0.73792-1.5795 0.84618-3.6304 0.84618s-2.5153-0.10827-3.6304-0.84618c-1.7462-1.1556-2.5823-2.8849-2.6341-5.4476-0.03742-1.8553 0.04922-2.1499 1.0357-3.5214 1.5398-2.1408 2.7143-2.7007 5.4104-2.5793 1.7601 0.07929 2.4264 0.26077 3.4542 0.94092zm-25.866 31.062c0.16431 0.21147 0.60722 3.7607 0.98421 7.8873 0.56527 6.1875 0.61385 7.5482 0.27714 7.7616-0.22455 0.14236-5.6029 0.26096-11.952 0.26356l-11.544 0.005-1.1865-4.383c-2.989-11.043-3.003-11.11-2.429-11.532 0.39843-0.2927 3.5104-0.38447 13.038-0.38447 9.647 0 12.583 0.08809 12.813 0.38447zm27.635-0.14907c0.1815 0.12428 0.41556 0.45822 0.52011 0.74208 0.19604 0.53222-0.10775 5.381-0.73363 11.71l-0.35739 3.614h-11.607c-8.9126 0-11.68-0.0892-11.921-0.38448-0.27461-0.33562-1.6062-12.841-1.6062-15.084v-0.83279l12.688 0.0047c6.9782 0.0026 12.836 0.10641 13.018 0.23069zm-22.726 18.241c1.1019 0.4175 2.1751 1.4155 2.7895 2.5939 0.6548 1.256 0.64165 4.0521-0.02495 5.307-1.3265 2.4971-5.2652 3.5936-7.7418 2.1552-2.5516-1.482-3.5533-5.2567-2.0434-7.6998 1.3889-2.2473 4.5279-3.3008 7.0206-2.3563z" fill-opacity=".95676" stroke="#04655d" stroke-width=".52750" fill="#00665d"/></g></svg>
