<svg xmlns="http://www.w3.org/2000/svg" viewBox="0 0 100 100"><circle cx="50" cy="50" r="50" fill="#25aae2"/><path d="M62.83 23.67h2.28l.25.06a12.63 12.63 0 0 1 2.91.6 13.85 13.85 0 0 1 5.55 3.42.49.49 0 0 0 .48.22 27.83 27.83 0 0 0 6.7-2.31c.62-.31 1.22-.67 1.84-1a.42.42 0 0 1 0 .27 13.81 13.81 0 0 1-3.63 5.57A24.19 24.19 0 0 1 77 32.22h-.06.53a27.82 27.82 0 0 0 6.83-1.92.31.31 0 0 1 .3 0 .15.15 0 0 1 0 .07l-.17.25a27.76 27.76 0 0 1-6.36 6.56.56.56 0 0 0-.25.53 22.2 22.2 0 0 1 0 2.59 39.36 39.36 0 0 1-.58 5.54A41.12 41.12 0 0 1 72.42 59a38.75 38.75 0 0 1-9.49 11.1 36.85 36.85 0 0 1-14.87 7.14 38.11 38.11 0 0 1-7 1 5.86 5.86 0 0 0-1.41.07h-1.71a5.89 5.89 0 0 0-1.41-.06 35.08 35.08 0 0 1-5.53-.68 38.75 38.75 0 0 1-13.22-5.25.26.26 0 0 1-.21-.22 28.14 28.14 0 0 0 10.65-.84 27.62 27.62 0 0 0 9.59-4.86 13.7 13.7 0 0 1-12.74-9.6 14.53 14.53 0 0 0 3 .23 12.16 12.16 0 0 0 3-.44 14.12 14.12 0 0 1-7.83-4.93 13.25 13.25 0 0 1-2.95-8.78 13.73 13.73 0 0 0 6 1.7.35.35 0 0 0-.19-.19 14 14 0 0 1-2-1.74A13.88 13.88 0 0 1 22 26.47c.15-.27.21-.24.4 0a39.12 39.12 0 0 0 8 7.3 38.86 38.86 0 0 0 14.4 6.09 37.72 37.72 0 0 0 5.45.71c.27 0 .33-.07.28-.32a13.23 13.23 0 0 1 .47-7.31 13.57 13.57 0 0 1 10.29-9c.51-.12 1.03-.18 1.54-.27z" fill="#fff"/></svg>
