<svg xmlns="http://www.w3.org/2000/svg" width="100" height="81" viewBox="0 0 100 81"><path d="M67.49 0h3.41a2.33 2.33 0 0 0 .38.09 18.85 18.85 0 0 1 4.35.89 20.67 20.67 0 0 1 8.29 5.1.73.73 0 0 0 .72.33 41.54 41.54 0 0 0 9.91-3.43c.92-.46 1.82-1 2.74-1.44a.62.62 0 0 1-.07.41 20.61 20.61 0 0 1-5.42 8.32 36.1 36.1 0 0 1-3.12 2.5h-.12c.05 0 .09 0 .09-.07a5.69 5.69 0 0 0 .7 0 41.52 41.52 0 0 0 10.2-2.86.46.46 0 0 1 .45-.07.22.22 0 0 1 0 .1l-.25.38a41.44 41.44 0 0 1-9.49 9.79.83.83 0 0 0-.38.79c.05 1.28.1 2.57 0 3.86a58.75 58.75 0 0 1-.87 8.27 61.37 61.37 0 0 1-7.2 19.81 57.84 57.84 0 0 1-14.16 16.57 55 55 0 0 1-22.19 10.65A56.89 56.89 0 0 1 35 81.44a8.75 8.75 0 0 0-2.1.1h-2.56a8.79 8.79 0 0 0-2.11-.09 52.36 52.36 0 0 1-8.19-1A57.84 57.84 0 0 1 .31 72.61a.39.39 0 0 1-.31-.33 42 42 0 0 0 15.89-1.26 41.22 41.22 0 0 0 14.31-7.25c-11-.39-17.57-8.48-19.07-14.32a21.69 21.69 0 0 0 4.45.34 18.15 18.15 0 0 0 4.42-.66 21.08 21.08 0 0 1-11.68-7.36c-3.6-4.42-4.73-10.15-4.4-13.1a20.5 20.5 0 0 0 9 2.53.52.52 0 0 0-.29-.29 20.86 20.86 0 0 1-3-2.59 20.18 20.18 0 0 1-5.56-12.55A20.25 20.25 0 0 1 6.55 4.18c.22-.41.32-.36.59 0a58.39 58.39 0 0 0 11.92 10.9 58 58 0 0 0 21.49 9.09 56.3 56.3 0 0 0 8.14 1.06c.4 0 .5-.1.42-.48a19.74 19.74 0 0 1 .72-10.91A20.25 20.25 0 0 1 65.19.41c.76-.18 1.54-.27 2.3-.41z" fill="#fff"/></svg>
