<svg xmlns="http://www.w3.org/2000/svg" viewBox="0 0 100 100"><circle cx="50" cy="50" r="50" fill="#25aae2"/><path d="M63 24h2a13 13 0 0 1 3 0 14 14 0 0 1 6 4 28 28 0 0 0 7-2l2-1a14 14 0 0 1-4 6 24 24 0 0 1-2 1 28 28 0 0 0 7-2h1l-1 1a28 28 0 0 1-6 6 1 1 0 0 0 0 1 22 22 0 0 1 0 2 39 39 0 0 1-1 6 41 41 0 0 1-5 13 39 39 0 0 1-9 11 37 37 0 0 1-15 7 38 38 0 0 1-7 1 6 6 0 0 0-1 0h-2a6 6 0 0 0-1 0 35 35 0 0 1-6 0 39 39 0 0 1-13-6 28 28 0 0 0 10-1 28 28 0 0 0 10-5 14 14 0 0 1-13-9 15 15 0 0 0 3 0 12 12 0 0 0 3 0 14 14 0 0 1-8-5 13 13 0 0 1-3-9 14 14 0 0 0 6 2v-1a14 14 0 0 1-2-1 14 14 0 0 1-2-17 39 39 0 0 0 8 8 39 39 0 0 0 15 6 38 38 0 0 0 5 1l1-1a13 13 0 0 1 0-7 14 14 0 0 1 10-9h2z" fill="#fff"/></svg>
