<svg id="Livello_1" data-name="Livello 1" xmlns="http://www.w3.org/2000/svg" viewBox="0 0 100 81.53"><defs><style>.cls-1{fill:#fff;}</style></defs><title>twitter</title><path class="cls-1" d="M67.49,9.23h3.41a2.33,2.33,0,0,0,.38.09,18.85,18.85,0,0,1,4.35.89,20.67,20.67,0,0,1,8.29,5.1,0.73,0.73,0,0,0,.72.33,41.54,41.54,0,0,0,9.91-3.43c0.92-.46,1.82-1,2.74-1.44a0.62,0.62,0,0,1-.07.41,20.61,20.61,0,0,1-5.42,8.32A36.1,36.1,0,0,1,88.68,22l-0.12,0,0,0c0.05,0,.09,0,0.09-0.07a5.69,5.69,0,0,0,.7,0,41.52,41.52,0,0,0,10.2-2.86A0.46,0.46,0,0,1,100,19a0.22,0.22,0,0,1,0,.1l-0.25.38a41.44,41.44,0,0,1-9.49,9.79,0.83,0.83,0,0,0-.38.79c0.05,1.28.1,2.57,0,3.86a58.75,58.75,0,0,1-.87,8.27A61.37,61.37,0,0,1,81.81,62,57.84,57.84,0,0,1,67.65,78.57,55,55,0,0,1,45.46,89.22,56.89,56.89,0,0,1,35,90.67a8.75,8.75,0,0,0-2.1.1H30.34a8.79,8.79,0,0,0-2.11-.09,52.36,52.36,0,0,1-8.19-1A57.84,57.84,0,0,1,.31,81.84,0.39,0.39,0,0,1,0,81.51a42,42,0,0,0,15.89-1.26A41.22,41.22,0,0,0,30.2,73c-11-.39-17.57-8.48-19.07-14.32a21.69,21.69,0,0,0,4.45.34A18.15,18.15,0,0,0,20,58.36,21.08,21.08,0,0,1,8.32,51c-3.6-4.42-4.73-10.15-4.4-13.1a20.5,20.5,0,0,0,9,2.53,0.52,0.52,0,0,0-.29-0.29,20.86,20.86,0,0,1-3-2.59A20.18,20.18,0,0,1,4.07,25,20.25,20.25,0,0,1,6.55,13.41c0.22-.41.32-0.36,0.59,0a58.39,58.39,0,0,0,11.92,10.9A58,58,0,0,0,40.55,33.4a56.3,56.3,0,0,0,8.14,1.06c0.4,0,.5-0.1.42-0.48a19.74,19.74,0,0,1,.72-10.91A20.25,20.25,0,0,1,65.19,9.64C65.95,9.46,66.73,9.37,67.49,9.23Z" transform="translate(0 -9.23)"/></svg>