<svg id="Livello_1" data-name="Livello 1" xmlns="http://www.w3.org/2000/svg" viewBox="0 0 100 100"><defs><style>.cls-1{fill:#25aae2;}.cls-2{fill:#fff;}</style></defs><title>twitter_circle</title><circle class="cls-1" cx="50" cy="50" r="50"/><path class="cls-2" d="M62.83,23.67h2.28l0.25,0.06a12.63,12.63,0,0,1,2.91.6,13.85,13.85,0,0,1,5.55,3.42,0.49,0.49,0,0,0,.48.22A27.83,27.83,0,0,0,81,25.66c0.62-.31,1.22-0.67,1.84-1a0.42,0.42,0,0,1,0,.27,13.81,13.81,0,0,1-3.63,5.57A24.19,24.19,0,0,1,77,32.22H76.94s0.06,0,.06,0h0.47a27.82,27.82,0,0,0,6.83-1.92,0.31,0.31,0,0,1,.3,0,0.15,0.15,0,0,1,0,.07l-0.17.25a27.76,27.76,0,0,1-6.36,6.56,0.56,0.56,0,0,0-.25.53,22.2,22.2,0,0,1,0,2.59,39.36,39.36,0,0,1-.58,5.54A41.12,41.12,0,0,1,72.42,59a38.75,38.75,0,0,1-9.49,11.1,36.85,36.85,0,0,1-14.87,7.14,38.11,38.11,0,0,1-7,1,5.86,5.86,0,0,0-1.41.07H37.94a5.89,5.89,0,0,0-1.41-.06A35.08,35.08,0,0,1,31,77.57a38.75,38.75,0,0,1-13.22-5.25,0.26,0.26,0,0,1-.21-0.22,28.14,28.14,0,0,0,10.65-.84,27.62,27.62,0,0,0,9.59-4.86A13.7,13.7,0,0,1,25.07,56.8a14.53,14.53,0,0,0,3,.23,12.16,12.16,0,0,0,3-.44,14.12,14.12,0,0,1-7.83-4.93,13.25,13.25,0,0,1-2.95-8.78,13.73,13.73,0,0,0,6,1.7,0.35,0.35,0,0,0-.19-0.19,14,14,0,0,1-2-1.74A13.88,13.88,0,0,1,22,26.47c0.15-.27.21-0.24,0.4,0a39.12,39.12,0,0,0,8,7.3,38.86,38.86,0,0,0,14.4,6.09,37.72,37.72,0,0,0,5.45.71c0.27,0,.33-0.07.28-0.32A13.23,13.23,0,0,1,51,32.94a13.57,13.57,0,0,1,10.29-9C61.8,23.82,62.32,23.76,62.83,23.67Z"/></svg>