<svg xmlns="http://www.w3.org/2000/svg" width="100" height="81"><path d="M67 0h4a19 19 0 0 1 5 1 21 21 0 0 1 8 5 1 1 0 0 0 1 0 42 42 0 0 0 10-3l2-1a21 21 0 0 1-5 8 36 36 0 0 1-3 3 42 42 0 0 0 11-3 41 41 0 0 1-10 10 1 1 0 0 0 0 1v4a59 59 0 0 1-1 8 61 61 0 0 1-7 20 58 58 0 0 1-14 16 55 55 0 0 1-23 11 57 57 0 0 1-10 1 9 9 0 0 0-2 1h-3a9 9 0 0 0-2-1 52 52 0 0 1-8-1 58 58 0 0 1-20-7v-1a42 42 0 0 0 16-1 41 41 0 0 0 14-7c-11-1-17-9-19-15a22 22 0 0 0 5 1 18 18 0 0 0 4-1 21 21 0 0 1-12-7c-3-5-4-10-4-13a21 21 0 0 0 9 2 21 21 0 0 1-3-3 20 20 0 0 1-6-12A20 20 0 0 1 7 4a58 58 0 0 0 12 11 58 58 0 0 0 22 9 56 56 0 0 0 8 1 20 20 0 0 1 1-11A20 20 0 0 1 65 0h2z" fill="#fff"/></svg>