<svg id="Livello_1" data-name="Livello 1" xmlns="http://www.w3.org/2000/svg" viewBox="0 0 99.99 86.97"><defs><style>.cls-1{fill:#359bb4;}</style></defs><title>variabile_small</title><path class="cls-1" d="M76.31,52.25a22,22,0,0,0-37.72-22A29.14,29.14,0,1,0,29.15,87H59.48A21.44,21.44,0,0,0,76.31,52.25ZM55.91,29A14.86,14.86,0,0,1,70.45,47.11a21.48,21.48,0,0,0-15.36-2.56,29.29,29.29,0,0,0-9.86-11A14.84,14.84,0,0,1,55.91,29Zm3.57,50.83H29.15a22,22,0,1,1,19.58-32l2.49,4.84,5.33-1.11a14.43,14.43,0,0,1,2.94-.3,14.2,14.2,0,0,1,7.75,2.3A14.28,14.28,0,0,1,59.48,79.83Z" transform="translate(-0.01 0.01)"/><path class="cls-1" d="M32.57,20.56" transform="translate(-0.01 0.01)"/><path class="cls-1" d="M25.72,13.7" transform="translate(-0.01 0.01)"/><path class="cls-1" d="M55.91,15.49a3.57,3.57,0,0,1-3.57-3.57V3.57a3.58,3.58,0,0,1,7.15,0v8.34a3.57,3.57,0,0,1-3.56,3.58h0Z" transform="translate(-0.01 0.01)"/><path class="cls-1" d="M77.15,21.49" transform="translate(-0.01 0.01)"/><path class="cls-1" d="M87.1,12.84" transform="translate(-0.01 0.01)"/><path class="cls-1" d="M86.79,43.54" transform="translate(-0.01 0.01)"/><path class="cls-1" d="M100,43.54" transform="translate(-0.01 0.01)"/><path class="cls-1" d="M96.43,46.67H88.08a3.58,3.58,0,0,1,0-7.15h8.34A3.58,3.58,0,0,1,96.43,46.67Z" transform="translate(-0.01 0.01)"/><path class="cls-1" d="M79.2,22.81a3.57,3.57,0,0,1-2.37-6.25L83.07,11a3.57,3.57,0,0,1,4.74,5.35l-6.24,5.53A3.56,3.56,0,0,1,79.2,22.81Z" transform="translate(-0.01 0.01)"/><path class="cls-1" d="M32.57,24.13a3.56,3.56,0,0,1-2.53-1l-5.9-5.9a3.58,3.58,0,0,1,5.06-5.06l5.9,5.9A3.57,3.57,0,0,1,32.57,24.13Z" transform="translate(-0.01 0.01)"/></svg>