<svg id="Livello_1" data-name="Livello 1" xmlns="http://www.w3.org/2000/svg" viewBox="0 0 100 86.98"><defs><style>.cls-1{fill:#fff;}</style></defs><title>variabile</title><path class="cls-1" d="M76.31,58.76a22,22,0,0,0-37.72-22,29.14,29.14,0,1,0-9.44,56.71H59.48A21.44,21.44,0,0,0,76.31,58.76ZM55.91,35.51A14.86,14.86,0,0,1,70.45,53.62a21.48,21.48,0,0,0-15.36-2.56,29.29,29.29,0,0,0-9.86-11A14.84,14.84,0,0,1,55.91,35.51Zm3.57,50.83H29.15a22,22,0,1,1,19.58-32l2.49,4.84,5.33-1.11a14.43,14.43,0,0,1,2.94-.3,14.2,14.2,0,0,1,7.75,2.3,14.39,14.39,0,0,1,4.87,5.3A14.28,14.28,0,0,1,59.48,86.34Z" transform="translate(0 -6.51)"/><path class="cls-1" d="M32.57,27.07" transform="translate(0 -6.51)"/><path class="cls-1" d="M25.72,20.21" transform="translate(0 -6.51)"/><path class="cls-1" d="M55.91,22a3.57,3.57,0,0,1-3.57-3.57V10.08a3.57,3.57,0,1,1,7.15,0v8.34A3.57,3.57,0,0,1,55.91,22Z" transform="translate(0 -6.51)"/><path class="cls-1" d="M77.15,28" transform="translate(0 -6.51)"/><path class="cls-1" d="M87.1,19.35" transform="translate(0 -6.51)"/><path class="cls-1" d="M86.79,50.05" transform="translate(0 -6.51)"/><path class="cls-1" d="M100,50.05" transform="translate(0 -6.51)"/><path class="cls-1" d="M96.43,53.18H88.08a3.57,3.57,0,1,1,0-7.15h8.34A3.57,3.57,0,1,1,96.43,53.18Z" transform="translate(0 -6.51)"/><path class="cls-1" d="M79.2,29.32a3.57,3.57,0,0,1-2.37-6.25l6.24-5.53a3.57,3.57,0,1,1,4.74,5.35l-6.24,5.53A3.56,3.56,0,0,1,79.2,29.32Z" transform="translate(0 -6.51)"/><path class="cls-1" d="M32.57,30.64a3.56,3.56,0,0,1-2.53-1l-5.9-5.9a3.58,3.58,0,0,1,5.06-5.06l5.9,5.9A3.57,3.57,0,0,1,32.57,30.64Z" transform="translate(0 -6.51)"/></svg>