<?xml version="1.0" encoding="UTF-8" standalone="no"?>
<!-- Created with Inkscape (http://www.inkscape.org/) -->

<svg
   xmlns:dc="http://purl.org/dc/elements/1.1/"
   xmlns:cc="http://creativecommons.org/ns#"
   xmlns:rdf="http://www.w3.org/1999/02/22-rdf-syntax-ns#"
   xmlns:svg="http://www.w3.org/2000/svg"
   xmlns="http://www.w3.org/2000/svg"
   xmlns:sodipodi="http://sodipodi.sourceforge.net/DTD/sodipodi-0.dtd"
   xmlns:inkscape="http://www.inkscape.org/namespaces/inkscape"
   id="svg2985"
   version="1.1"
   inkscape:version="0.91 r13725"
   width="170"
   height="170"
   xml:space="preserve"
   sodipodi:docname="viaggia.svg"><metadata
     id="metadata2991"><rdf:RDF><cc:Work
         rdf:about=""><dc:format>image/svg+xml</dc:format><dc:type
           rdf:resource="http://purl.org/dc/dcmitype/StillImage" /><dc:title></dc:title></cc:Work></rdf:RDF></metadata><defs
     id="defs2989"><clipPath
       clipPathUnits="userSpaceOnUse"
       id="clipPath3557"><path
         d="m 168,3813.6 0,100 100,0 0,-100 -100,0 z"
         id="path3559"
         inkscape:connector-curvature="0" /></clipPath><clipPath
       clipPathUnits="userSpaceOnUse"
       id="clipPath3571"><path
         d="m 168,3813.6 0,100 100,0 0,-100 -100,0 z"
         id="path3573"
         inkscape:connector-curvature="0" /></clipPath><clipPath
       clipPathUnits="userSpaceOnUse"
       id="clipPath3585"><path
         d="m 168,3813.6 0,100 100,0 0,-100 -100,0 z"
         id="path3587"
         inkscape:connector-curvature="0" /></clipPath><clipPath
       clipPathUnits="userSpaceOnUse"
       id="clipPath3599"><path
         d="m 168,3813.6 0,100 100,0 0,-100 -100,0 z"
         id="path3601"
         inkscape:connector-curvature="0" /></clipPath><clipPath
       clipPathUnits="userSpaceOnUse"
       id="clipPath3613"><path
         d="m 168,3813.6 0,100 100,0 0,-100 -100,0 z"
         id="path3615"
         inkscape:connector-curvature="0" /></clipPath><clipPath
       clipPathUnits="userSpaceOnUse"
       id="clipPath3631"><path
         d="m 168,3813.6 0,100 100,0 0,-100 -100,0 z"
         id="path3633"
         inkscape:connector-curvature="0" /></clipPath><clipPath
       clipPathUnits="userSpaceOnUse"
       id="clipPath3657"><path
         d="m 168,3813.6 0,100 100,0 0,-100 -100,0 z"
         id="path3659"
         inkscape:connector-curvature="0" /></clipPath><clipPath
       clipPathUnits="userSpaceOnUse"
       id="clipPath3675"><path
         d="m 168,3813.6 0,100 100,0 0,-100 -100,0 z"
         id="path3677"
         inkscape:connector-curvature="0" /></clipPath><clipPath
       clipPathUnits="userSpaceOnUse"
       id="clipPath3693"><path
         d="m 168,3813.6 0,100 100,0 0,-100 -100,0 z"
         id="path3695"
         inkscape:connector-curvature="0" /></clipPath><clipPath
       clipPathUnits="userSpaceOnUse"
       id="clipPath3711"><path
         d="m 168,3813.6 0,100 100,0 0,-100 -100,0 z"
         id="path3713"
         inkscape:connector-curvature="0" /></clipPath><clipPath
       clipPathUnits="userSpaceOnUse"
       id="clipPath3729"><path
         d="m 168,3813.6 0,100 100,0 0,-100 -100,0 z"
         id="path3731"
         inkscape:connector-curvature="0" /></clipPath><clipPath
       clipPathUnits="userSpaceOnUse"
       id="clipPath3747"><path
         d="m 168,3813.6 0,100 100,0 0,-100 -100,0 z"
         id="path3749"
         inkscape:connector-curvature="0" /></clipPath><clipPath
       clipPathUnits="userSpaceOnUse"
       id="clipPath3765"><path
         d="m 168,3813.6 0,100 100,0 0,-100 -100,0 z"
         id="path3767"
         inkscape:connector-curvature="0" /></clipPath><clipPath
       clipPathUnits="userSpaceOnUse"
       id="clipPath3783"><path
         d="m 168,3813.6 0,100 100,0 0,-100 -100,0 z"
         id="path3785"
         inkscape:connector-curvature="0" /></clipPath><clipPath
       clipPathUnits="userSpaceOnUse"
       id="clipPath3801"><path
         d="m 168,3813.6 0,100 100,0 0,-100 -100,0 z"
         id="path3803"
         inkscape:connector-curvature="0" /></clipPath><clipPath
       clipPathUnits="userSpaceOnUse"
       id="clipPath3819"><path
         d="m 168,3813.6 0,100 100,0 0,-100 -100,0 z"
         id="path3821"
         inkscape:connector-curvature="0" /></clipPath><clipPath
       clipPathUnits="userSpaceOnUse"
       id="clipPath3837"><path
         d="m 168,3813.6 0,100 100,0 0,-100 -100,0 z"
         id="path3839"
         inkscape:connector-curvature="0" /></clipPath><clipPath
       clipPathUnits="userSpaceOnUse"
       id="clipPath3855"><path
         d="m 168,3813.6 0,100 100,0 0,-100 -100,0 z"
         id="path3857"
         inkscape:connector-curvature="0" /></clipPath><clipPath
       clipPathUnits="userSpaceOnUse"
       id="clipPath3873"><path
         d="m 168,3813.6 0,100 100,0 0,-100 -100,0 z"
         id="path3875"
         inkscape:connector-curvature="0" /></clipPath><clipPath
       clipPathUnits="userSpaceOnUse"
       id="clipPath3891"><path
         d="m 168,3813.6 0,100 100,0 0,-100 -100,0 z"
         id="path3893"
         inkscape:connector-curvature="0" /></clipPath><clipPath
       clipPathUnits="userSpaceOnUse"
       id="clipPath3909"><path
         d="m 168,3813.6 0,100 100,0 0,-100 -100,0 z"
         id="path3911"
         inkscape:connector-curvature="0" /></clipPath><clipPath
       clipPathUnits="userSpaceOnUse"
       id="clipPath3931"><path
         d="m 168,3813.6 0,100 100,0 0,-100 -100,0 z"
         id="path3933"
         inkscape:connector-curvature="0" /></clipPath><clipPath
       clipPathUnits="userSpaceOnUse"
       id="clipPath3949"><path
         d="m 168,3813.6 0,100 100,0 0,-100 -100,0 z"
         id="path3951"
         inkscape:connector-curvature="0" /></clipPath><clipPath
       clipPathUnits="userSpaceOnUse"
       id="clipPath3967"><path
         d="m 168,3813.6 0,100 100,0 0,-100 -100,0 z"
         id="path3969"
         inkscape:connector-curvature="0" /></clipPath><clipPath
       clipPathUnits="userSpaceOnUse"
       id="clipPath3985"><path
         d="m 168,3813.6 0,100 100,0 0,-100 -100,0 z"
         id="path3987"
         inkscape:connector-curvature="0" /></clipPath><clipPath
       clipPathUnits="userSpaceOnUse"
       id="clipPath4003"><path
         d="m 168,3813.6 0,100 100,0 0,-100 -100,0 z"
         id="path4005"
         inkscape:connector-curvature="0" /></clipPath><clipPath
       clipPathUnits="userSpaceOnUse"
       id="clipPath4017"><path
         d="m 168,3813.6 0,100 100,0 0,-100 -100,0 z"
         id="path4019"
         inkscape:connector-curvature="0" /></clipPath><clipPath
       clipPathUnits="userSpaceOnUse"
       id="clipPath4031"><path
         d="m 168,3813.6 0,100 100,0 0,-100 -100,0 z"
         id="path4033"
         inkscape:connector-curvature="0" /></clipPath><clipPath
       clipPathUnits="userSpaceOnUse"
       id="clipPath4045"><path
         d="m 168,3813.6 0,100 100,0 0,-100 -100,0 z"
         id="path4047"
         inkscape:connector-curvature="0" /></clipPath><clipPath
       clipPathUnits="userSpaceOnUse"
       id="clipPath4059"><path
         d="m 168,3813.6 0,100 100,0 0,-100 -100,0 z"
         id="path4061"
         inkscape:connector-curvature="0" /></clipPath><clipPath
       clipPathUnits="userSpaceOnUse"
       id="clipPath4077"><path
         d="m 168,3813.6 0,100 100,0 0,-100 -100,0 z"
         id="path4079"
         inkscape:connector-curvature="0" /></clipPath><clipPath
       clipPathUnits="userSpaceOnUse"
       id="clipPath4103"><path
         d="m 168,3813.6 0,100 100,0 0,-100 -100,0 z"
         id="path4105"
         inkscape:connector-curvature="0" /></clipPath><clipPath
       clipPathUnits="userSpaceOnUse"
       id="clipPath4121"><path
         d="m 168,3813.6 0,100 100,0 0,-100 -100,0 z"
         id="path4123"
         inkscape:connector-curvature="0" /></clipPath><clipPath
       clipPathUnits="userSpaceOnUse"
       id="clipPath4139"><path
         d="m 168,3813.6 0,100 100,0 0,-100 -100,0 z"
         id="path4141"
         inkscape:connector-curvature="0" /></clipPath><clipPath
       clipPathUnits="userSpaceOnUse"
       id="clipPath4157"><path
         d="m 168,3813.6 0,100 100,0 0,-100 -100,0 z"
         id="path4159"
         inkscape:connector-curvature="0" /></clipPath><clipPath
       clipPathUnits="userSpaceOnUse"
       id="clipPath4175"><path
         d="m 168,3813.6 0,100 100,0 0,-100 -100,0 z"
         id="path4177"
         inkscape:connector-curvature="0" /></clipPath><clipPath
       clipPathUnits="userSpaceOnUse"
       id="clipPath4193"><path
         d="m 168,3813.6 0,100 100,0 0,-100 -100,0 z"
         id="path4195"
         inkscape:connector-curvature="0" /></clipPath><clipPath
       clipPathUnits="userSpaceOnUse"
       id="clipPath4211"><path
         d="m 168,3813.6 0,100 100,0 0,-100 -100,0 z"
         id="path4213"
         inkscape:connector-curvature="0" /></clipPath><clipPath
       clipPathUnits="userSpaceOnUse"
       id="clipPath4229"><path
         d="m 168,3813.6 0,100 100,0 0,-100 -100,0 z"
         id="path4231"
         inkscape:connector-curvature="0" /></clipPath><clipPath
       clipPathUnits="userSpaceOnUse"
       id="clipPath4247"><path
         d="m 168,3813.6 0,100 100,0 0,-100 -100,0 z"
         id="path4249"
         inkscape:connector-curvature="0" /></clipPath><clipPath
       clipPathUnits="userSpaceOnUse"
       id="clipPath4265"><path
         d="m 168,3813.6 0,100 100,0 0,-100 -100,0 z"
         id="path4267"
         inkscape:connector-curvature="0" /></clipPath><clipPath
       clipPathUnits="userSpaceOnUse"
       id="clipPath4283"><path
         d="m 168,3813.6 0,100 100,0 0,-100 -100,0 z"
         id="path4285"
         inkscape:connector-curvature="0" /></clipPath><clipPath
       clipPathUnits="userSpaceOnUse"
       id="clipPath4301"><path
         d="m 168,3813.6 0,100 100,0 0,-100 -100,0 z"
         id="path4303"
         inkscape:connector-curvature="0" /></clipPath><clipPath
       clipPathUnits="userSpaceOnUse"
       id="clipPath4319"><path
         d="m 168,3813.6 0,100 100,0 0,-100 -100,0 z"
         id="path4321"
         inkscape:connector-curvature="0" /></clipPath><clipPath
       clipPathUnits="userSpaceOnUse"
       id="clipPath4337"><path
         d="m 168,3813.6 0,100 100,0 0,-100 -100,0 z"
         id="path4339"
         inkscape:connector-curvature="0" /></clipPath><clipPath
       clipPathUnits="userSpaceOnUse"
       id="clipPath4355"><path
         d="m 168,3813.6 0,100 100,0 0,-100 -100,0 z"
         id="path4357"
         inkscape:connector-curvature="0" /></clipPath><clipPath
       clipPathUnits="userSpaceOnUse"
       id="clipPath4377"><path
         d="m 168,3813.6 0,100 100,0 0,-100 -100,0 z"
         id="path4379"
         inkscape:connector-curvature="0" /></clipPath><clipPath
       clipPathUnits="userSpaceOnUse"
       id="clipPath4395"><path
         d="m 168,3813.6 0,100 100,0 0,-100 -100,0 z"
         id="path4397"
         inkscape:connector-curvature="0" /></clipPath><clipPath
       clipPathUnits="userSpaceOnUse"
       id="clipPath4413"><path
         d="m 168,3813.6 0,100 100,0 0,-100 -100,0 z"
         id="path4415"
         inkscape:connector-curvature="0" /></clipPath><clipPath
       clipPathUnits="userSpaceOnUse"
       id="clipPath4431"><path
         d="m 168,3813.6 0,100 100,0 0,-100 -100,0 z"
         id="path4433"
         inkscape:connector-curvature="0" /></clipPath><clipPath
       clipPathUnits="userSpaceOnUse"
       id="clipPath4449"><path
         d="m 168,3813.6 0,100 100,0 0,-100 -100,0 z"
         id="path4451"
         inkscape:connector-curvature="0" /></clipPath><clipPath
       clipPathUnits="userSpaceOnUse"
       id="clipPath4467"><path
         d="m 168,3813.6 0,100 100,0 0,-100 -100,0 z"
         id="path4469"
         inkscape:connector-curvature="0" /></clipPath><clipPath
       clipPathUnits="userSpaceOnUse"
       id="clipPath4485"><path
         d="m 168,3813.6 0,100 100,0 0,-100 -100,0 z"
         id="path4487"
         inkscape:connector-curvature="0" /></clipPath><clipPath
       clipPathUnits="userSpaceOnUse"
       id="clipPath4503"><path
         d="m 168,3813.6 0,100 100,0 0,-100 -100,0 z"
         id="path4505"
         inkscape:connector-curvature="0" /></clipPath><clipPath
       clipPathUnits="userSpaceOnUse"
       id="clipPath4521"><path
         d="m 168,3813.6 0,100 100,0 0,-100 -100,0 z"
         id="path4523"
         inkscape:connector-curvature="0" /></clipPath><clipPath
       clipPathUnits="userSpaceOnUse"
       id="clipPath4539"><path
         d="m 168,3813.6 0,100 100,0 0,-100 -100,0 z"
         id="path4541"
         inkscape:connector-curvature="0" /></clipPath><clipPath
       clipPathUnits="userSpaceOnUse"
       id="clipPath4557"><path
         d="m 168,3813.6 0,100 100,0 0,-100 -100,0 z"
         id="path4559"
         inkscape:connector-curvature="0" /></clipPath><clipPath
       clipPathUnits="userSpaceOnUse"
       id="clipPath4579"><path
         d="m 168,3813.6 0,100 100,0 0,-100 -100,0 z"
         id="path4581"
         inkscape:connector-curvature="0" /></clipPath><clipPath
       clipPathUnits="userSpaceOnUse"
       id="clipPath4601"><path
         d="m 168,3813.6 0,100 100,0 0,-100 -100,0 z"
         id="path4603"
         inkscape:connector-curvature="0" /></clipPath><clipPath
       clipPathUnits="userSpaceOnUse"
       id="clipPath4619"><path
         d="m 168,3813.6 0,100 100,0 0,-100 -100,0 z"
         id="path4621"
         inkscape:connector-curvature="0" /></clipPath><clipPath
       clipPathUnits="userSpaceOnUse"
       id="clipPath4637"><path
         d="m 168,3813.6 0,100 100,0 0,-100 -100,0 z"
         id="path4639"
         inkscape:connector-curvature="0" /></clipPath><clipPath
       clipPathUnits="userSpaceOnUse"
       id="clipPath4655"><path
         d="m 168,3813.6 0,100 100,0 0,-100 -100,0 z"
         id="path4657"
         inkscape:connector-curvature="0" /></clipPath><clipPath
       clipPathUnits="userSpaceOnUse"
       id="clipPath4673"><path
         d="m 168,3813.6 0,100 100,0 0,-100 -100,0 z"
         id="path4675"
         inkscape:connector-curvature="0" /></clipPath><clipPath
       clipPathUnits="userSpaceOnUse"
       id="clipPath4691"><path
         d="m 168,3813.6 0,100 100,0 0,-100 -100,0 z"
         id="path4693"
         inkscape:connector-curvature="0" /></clipPath><clipPath
       clipPathUnits="userSpaceOnUse"
       id="clipPath4709"><path
         d="m 168,3813.6 0,100 100,0 0,-100 -100,0 z"
         id="path4711"
         inkscape:connector-curvature="0" /></clipPath><clipPath
       clipPathUnits="userSpaceOnUse"
       id="clipPath4727"><path
         d="m 168,3813.6 0,100 100,0 0,-100 -100,0 z"
         id="path4729"
         inkscape:connector-curvature="0" /></clipPath><clipPath
       clipPathUnits="userSpaceOnUse"
       id="clipPath4745"><path
         d="m 168,3813.6 0,100 100,0 0,-100 -100,0 z"
         id="path4747"
         inkscape:connector-curvature="0" /></clipPath><clipPath
       clipPathUnits="userSpaceOnUse"
       id="clipPath4763"><path
         d="m 168,3813.6 0,100 100,0 0,-100 -100,0 z"
         id="path4765"
         inkscape:connector-curvature="0" /></clipPath><clipPath
       clipPathUnits="userSpaceOnUse"
       id="clipPath4781"><path
         d="m 168,3813.6 0,100 100,0 0,-100 -100,0 z"
         id="path4783"
         inkscape:connector-curvature="0" /></clipPath><clipPath
       clipPathUnits="userSpaceOnUse"
       id="clipPath4799"><path
         d="m 168,3813.6 0,100 100,0 0,-100 -100,0 z"
         id="path4801"
         inkscape:connector-curvature="0" /></clipPath><clipPath
       clipPathUnits="userSpaceOnUse"
       id="clipPath4817"><path
         d="m 168,3813.6 0,100 100,0 0,-100 -100,0 z"
         id="path4819"
         inkscape:connector-curvature="0" /></clipPath><clipPath
       clipPathUnits="userSpaceOnUse"
       id="clipPath4839"><path
         d="m 168,3813.6 0,100 100,0 0,-100 -100,0 z"
         id="path4841"
         inkscape:connector-curvature="0" /></clipPath><clipPath
       clipPathUnits="userSpaceOnUse"
       id="clipPath4857"><path
         d="m 168,3813.6 0,100 100,0 0,-100 -100,0 z"
         id="path4859"
         inkscape:connector-curvature="0" /></clipPath><clipPath
       clipPathUnits="userSpaceOnUse"
       id="clipPath4875"><path
         d="m 168,3813.6 0,100 100,0 0,-100 -100,0 z"
         id="path4877"
         inkscape:connector-curvature="0" /></clipPath><clipPath
       clipPathUnits="userSpaceOnUse"
       id="clipPath4893"><path
         d="m 168,3813.6 0,100 100,0 0,-100 -100,0 z"
         id="path4895"
         inkscape:connector-curvature="0" /></clipPath><clipPath
       clipPathUnits="userSpaceOnUse"
       id="clipPath4911"><path
         d="m 168,3813.6 0,100 100,0 0,-100 -100,0 z"
         id="path4913"
         inkscape:connector-curvature="0" /></clipPath><clipPath
       clipPathUnits="userSpaceOnUse"
       id="clipPath4929"><path
         d="m 168,3813.6 0,100 100,0 0,-100 -100,0 z"
         id="path4931"
         inkscape:connector-curvature="0" /></clipPath><clipPath
       clipPathUnits="userSpaceOnUse"
       id="clipPath4947"><path
         d="m 168,3813.6 0,100 100,0 0,-100 -100,0 z"
         id="path4949"
         inkscape:connector-curvature="0" /></clipPath><clipPath
       clipPathUnits="userSpaceOnUse"
       id="clipPath4965"><path
         d="m 168,3813.6 0,100 100,0 0,-100 -100,0 z"
         id="path4967"
         inkscape:connector-curvature="0" /></clipPath><clipPath
       clipPathUnits="userSpaceOnUse"
       id="clipPath4983"><path
         d="m 168,3813.6 0,100 100,0 0,-100 -100,0 z"
         id="path4985"
         inkscape:connector-curvature="0" /></clipPath><clipPath
       clipPathUnits="userSpaceOnUse"
       id="clipPath5001"><path
         d="m 168,3813.6 0,100 100,0 0,-100 -100,0 z"
         id="path5003"
         inkscape:connector-curvature="0" /></clipPath><clipPath
       clipPathUnits="userSpaceOnUse"
       id="clipPath5019"><path
         d="m 168,3813.6 0,100 100,0 0,-100 -100,0 z"
         id="path5021"
         inkscape:connector-curvature="0" /></clipPath><clipPath
       clipPathUnits="userSpaceOnUse"
       id="clipPath5037"><path
         d="m 168,3813.6 0,100 100,0 0,-100 -100,0 z"
         id="path5039"
         inkscape:connector-curvature="0" /></clipPath><clipPath
       clipPathUnits="userSpaceOnUse"
       id="clipPath5055"><path
         d="m 168,3813.6 0,100 100,0 0,-100 -100,0 z"
         id="path5057"
         inkscape:connector-curvature="0" /></clipPath><clipPath
       clipPathUnits="userSpaceOnUse"
       id="clipPath5077"><path
         d="m 168,3813.6 0,100 100,0 0,-100 -100,0 z"
         id="path5079"
         inkscape:connector-curvature="0" /></clipPath><clipPath
       clipPathUnits="userSpaceOnUse"
       id="clipPath5099"><path
         d="m 168,3813.6 0,100 100,0 0,-100 -100,0 z"
         id="path5101"
         inkscape:connector-curvature="0" /></clipPath><clipPath
       clipPathUnits="userSpaceOnUse"
       id="clipPath5117"><path
         d="m 168,3813.6 0,100 100,0 0,-100 -100,0 z"
         id="path5119"
         inkscape:connector-curvature="0" /></clipPath><clipPath
       clipPathUnits="userSpaceOnUse"
       id="clipPath5135"><path
         d="m 168,3813.6 0,100 100,0 0,-100 -100,0 z"
         id="path5137"
         inkscape:connector-curvature="0" /></clipPath><clipPath
       clipPathUnits="userSpaceOnUse"
       id="clipPath5153"><path
         d="m 168,3813.6 0,100 100,0 0,-100 -100,0 z"
         id="path5155"
         inkscape:connector-curvature="0" /></clipPath><clipPath
       clipPathUnits="userSpaceOnUse"
       id="clipPath5171"><path
         d="m 168,3813.6 0,100 100,0 0,-100 -100,0 z"
         id="path5173"
         inkscape:connector-curvature="0" /></clipPath><clipPath
       clipPathUnits="userSpaceOnUse"
       id="clipPath5189"><path
         d="m 168,3813.6 0,100 100,0 0,-100 -100,0 z"
         id="path5191"
         inkscape:connector-curvature="0" /></clipPath><clipPath
       clipPathUnits="userSpaceOnUse"
       id="clipPath5207"><path
         d="m 168,3813.6 0,100 100,0 0,-100 -100,0 z"
         id="path5209"
         inkscape:connector-curvature="0" /></clipPath><clipPath
       clipPathUnits="userSpaceOnUse"
       id="clipPath5225"><path
         d="m 168,3813.6 0,100 100,0 0,-100 -100,0 z"
         id="path5227"
         inkscape:connector-curvature="0" /></clipPath><clipPath
       clipPathUnits="userSpaceOnUse"
       id="clipPath5243"><path
         d="m 168,3813.6 0,100 100,0 0,-100 -100,0 z"
         id="path5245"
         inkscape:connector-curvature="0" /></clipPath><clipPath
       clipPathUnits="userSpaceOnUse"
       id="clipPath5261"><path
         d="m 168,3813.6 0,100 100,0 0,-100 -100,0 z"
         id="path5263"
         inkscape:connector-curvature="0" /></clipPath><clipPath
       clipPathUnits="userSpaceOnUse"
       id="clipPath5279"><path
         d="m 168,3813.6 0,100 100,0 0,-100 -100,0 z"
         id="path5281"
         inkscape:connector-curvature="0" /></clipPath><clipPath
       clipPathUnits="userSpaceOnUse"
       id="clipPath5301"><path
         d="m 168,3813.6 0,100 100,0 0,-100 -100,0 z"
         id="path5303"
         inkscape:connector-curvature="0" /></clipPath><clipPath
       clipPathUnits="userSpaceOnUse"
       id="clipPath5319"><path
         d="m 168,3813.6 0,100 100,0 0,-100 -100,0 z"
         id="path5321"
         inkscape:connector-curvature="0" /></clipPath><clipPath
       clipPathUnits="userSpaceOnUse"
       id="clipPath5337"><path
         d="m 168,3813.6 0,100 100,0 0,-100 -100,0 z"
         id="path5339"
         inkscape:connector-curvature="0" /></clipPath><clipPath
       clipPathUnits="userSpaceOnUse"
       id="clipPath5355"><path
         d="m 168,3813.6 0,100 100,0 0,-100 -100,0 z"
         id="path5357"
         inkscape:connector-curvature="0" /></clipPath></defs><sodipodi:namedview
     pagecolor="#ffffff"
     bordercolor="#666666"
     borderopacity="1"
     objecttolerance="10"
     gridtolerance="10"
     guidetolerance="10"
     inkscape:pageopacity="0"
     inkscape:pageshadow="2"
     inkscape:window-width="1680"
     inkscape:window-height="1021"
     id="namedview2987"
     showgrid="false"
     showborder="true"
     inkscape:zoom="3.1515967"
     inkscape:cx="68.903511"
     inkscape:cy="67.612662"
     inkscape:window-x="1680"
     inkscape:window-y="0"
     inkscape:window-maximized="1"
     inkscape:current-layer="g2993" /><g
     id="g2993"
     inkscape:groupmode="layer"
     inkscape:label="Linie_U3_150865"
     transform="matrix(1.25,0,0,-1.25,0,170)"><g
       id="g3041" /><path
       inkscape:connector-curvature="0"
       id="path3045"
       style="fill:#ffffff;fill-opacity:1;fill-rule:nonzero;stroke:none"
       d="m 16.985971,35.131021 c 0,-0.775851 -0.629749,-1.4056 -1.405599,-1.4056 -0.775851,0 -1.40392,0.629749 -1.40392,1.4056 0,0.77585 0.628069,1.403919 1.40392,1.403919 0.77585,0 1.405599,-0.628069 1.405599,-1.403919" /><g
       id="g3161" /><g
       id="g3321" /><g
       id="g3501" /><g
       id="g3553"
       transform="scale(0.1,0.1)"><g
         clip-path="url(#clipPath3557)"
         id="g3555" /></g><g
       id="g3567"
       transform="scale(0.1,0.1)"><g
         clip-path="url(#clipPath3571)"
         id="g3569" /></g><g
       id="g3581"
       transform="scale(0.1,0.1)"><g
         clip-path="url(#clipPath3585)"
         id="g3583" /></g><g
       id="g3595"
       transform="scale(0.1,0.1)"><g
         clip-path="url(#clipPath3599)"
         id="g3597" /></g><g
       id="g3609"
       transform="scale(0.1,0.1)"><g
         clip-path="url(#clipPath3613)"
         id="g3611" /></g><g
       id="g3627"
       transform="scale(0.1,0.1)"><g
         clip-path="url(#clipPath3631)"
         id="g3629" /></g><g
       id="g3653"
       transform="scale(0.1,0.1)"><g
         clip-path="url(#clipPath3657)"
         id="g3655" /></g><g
       id="g3671"
       transform="scale(0.1,0.1)"><g
         clip-path="url(#clipPath3675)"
         id="g3673" /></g><g
       id="g3689"
       transform="scale(0.1,0.1)"><g
         clip-path="url(#clipPath3693)"
         id="g3691" /></g><g
       id="g3707"
       transform="scale(0.1,0.1)"><g
         clip-path="url(#clipPath3711)"
         id="g3709" /></g><g
       id="g3725"
       transform="scale(0.1,0.1)"><g
         clip-path="url(#clipPath3729)"
         id="g3727" /></g><g
       id="g3743"
       transform="scale(0.1,0.1)"><g
         clip-path="url(#clipPath3747)"
         id="g3745" /></g><g
       id="g3761"
       transform="scale(0.1,0.1)"><g
         clip-path="url(#clipPath3765)"
         id="g3763" /></g><g
       id="g3779"
       transform="scale(0.1,0.1)"><g
         clip-path="url(#clipPath3783)"
         id="g3781" /></g><g
       id="g3797"
       transform="scale(0.1,0.1)"><g
         clip-path="url(#clipPath3801)"
         id="g3799" /></g><g
       id="g3815"
       transform="scale(0.1,0.1)"><g
         clip-path="url(#clipPath3819)"
         id="g3817" /></g><g
       id="g3833"
       transform="scale(0.1,0.1)"><g
         clip-path="url(#clipPath3837)"
         id="g3835" /></g><g
       id="g3851"
       transform="scale(0.1,0.1)"><g
         clip-path="url(#clipPath3855)"
         id="g3853" /></g><g
       id="g3869"
       transform="scale(0.1,0.1)"><g
         clip-path="url(#clipPath3873)"
         id="g3871" /></g><g
       id="g3887"
       transform="scale(0.1,0.1)"><g
         clip-path="url(#clipPath3891)"
         id="g3889" /></g><g
       id="g3905"
       transform="scale(0.1,0.1)"><g
         clip-path="url(#clipPath3909)"
         id="g3907" /></g><g
       id="g3927"
       transform="scale(0.1,0.1)"><g
         clip-path="url(#clipPath3931)"
         id="g3929" /></g><g
       id="g3945"
       transform="scale(0.1,0.1)"><g
         clip-path="url(#clipPath3949)"
         id="g3947" /></g><g
       id="g3963"
       transform="scale(0.1,0.1)"><g
         clip-path="url(#clipPath3967)"
         id="g3965" /></g><g
       id="g3981"
       transform="scale(0.1,0.1)"><g
         clip-path="url(#clipPath3985)"
         id="g3983" /></g><g
       id="g3999"
       transform="scale(0.1,0.1)"><g
         clip-path="url(#clipPath4003)"
         id="g4001" /></g><g
       id="g4013"
       transform="scale(0.1,0.1)"><g
         clip-path="url(#clipPath4017)"
         id="g4015" /></g><g
       id="g4027"
       transform="scale(0.1,0.1)"><g
         clip-path="url(#clipPath4031)"
         id="g4029" /></g><g
       id="g4041"
       transform="scale(0.1,0.1)"><g
         clip-path="url(#clipPath4045)"
         id="g4043" /></g><g
       id="g4055"
       transform="scale(0.1,0.1)"><g
         clip-path="url(#clipPath4059)"
         id="g4057" /></g><g
       id="g4073"
       transform="scale(0.1,0.1)"><g
         clip-path="url(#clipPath4077)"
         id="g4075" /></g><g
       id="g4099"
       transform="scale(0.1,0.1)"><g
         clip-path="url(#clipPath4103)"
         id="g4101" /></g><g
       id="g4117"
       transform="scale(0.1,0.1)"><g
         clip-path="url(#clipPath4121)"
         id="g4119" /></g><g
       id="g4135"
       transform="scale(0.1,0.1)"><g
         clip-path="url(#clipPath4139)"
         id="g4137" /></g><g
       id="g4153"
       transform="scale(0.1,0.1)"><g
         clip-path="url(#clipPath4157)"
         id="g4155" /></g><g
       id="g4171"
       transform="scale(0.1,0.1)"><g
         clip-path="url(#clipPath4175)"
         id="g4173" /></g><g
       id="g4189"
       transform="scale(0.1,0.1)"><g
         clip-path="url(#clipPath4193)"
         id="g4191" /></g><g
       id="g4207"
       transform="scale(0.1,0.1)"><g
         clip-path="url(#clipPath4211)"
         id="g4209" /></g><g
       id="g4225"
       transform="scale(0.1,0.1)"><g
         clip-path="url(#clipPath4229)"
         id="g4227" /></g><g
       id="g4243"
       transform="scale(0.1,0.1)"><g
         clip-path="url(#clipPath4247)"
         id="g4245" /></g><g
       id="g4261"
       transform="scale(0.1,0.1)"><g
         clip-path="url(#clipPath4265)"
         id="g4263" /></g><g
       id="g4279"
       transform="scale(0.1,0.1)"><g
         clip-path="url(#clipPath4283)"
         id="g4281" /></g><g
       id="g4297"
       transform="scale(0.1,0.1)"><g
         clip-path="url(#clipPath4301)"
         id="g4299" /></g><g
       id="g4315"
       transform="scale(0.1,0.1)"><g
         clip-path="url(#clipPath4319)"
         id="g4317" /></g><g
       id="g4333"
       transform="scale(0.1,0.1)"><g
         clip-path="url(#clipPath4337)"
         id="g4335" /></g><g
       id="g4351"
       transform="scale(0.1,0.1)"><g
         clip-path="url(#clipPath4355)"
         id="g4353" /></g><g
       id="g4373"
       transform="scale(0.1,0.1)"><g
         clip-path="url(#clipPath4377)"
         id="g4375" /></g><g
       id="g4391"
       transform="scale(0.1,0.1)"><g
         clip-path="url(#clipPath4395)"
         id="g4393" /></g><g
       id="g4409"
       transform="scale(0.1,0.1)"><g
         clip-path="url(#clipPath4413)"
         id="g4411" /></g><g
       id="g4427"
       transform="scale(0.1,0.1)"><g
         clip-path="url(#clipPath4431)"
         id="g4429" /></g><g
       id="g4445"
       transform="scale(0.1,0.1)"><g
         clip-path="url(#clipPath4449)"
         id="g4447" /></g><g
       id="g4463"
       transform="scale(0.1,0.1)"><g
         clip-path="url(#clipPath4467)"
         id="g4465" /></g><g
       id="g4481"
       transform="scale(0.1,0.1)"><g
         clip-path="url(#clipPath4485)"
         id="g4483" /></g><g
       id="g4499"
       transform="scale(0.1,0.1)"><g
         clip-path="url(#clipPath4503)"
         id="g4501" /></g><g
       id="g4517"
       transform="scale(0.1,0.1)"><g
         clip-path="url(#clipPath4521)"
         id="g4519" /></g><g
       id="g4535"
       transform="scale(0.1,0.1)"><g
         clip-path="url(#clipPath4539)"
         id="g4537" /></g><g
       id="g4553"
       transform="scale(0.1,0.1)"><g
         clip-path="url(#clipPath4557)"
         id="g4555" /></g><g
       id="g4575"
       transform="scale(0.1,0.1)"><g
         clip-path="url(#clipPath4579)"
         id="g4577" /></g><g
       id="g4597"
       transform="scale(0.1,0.1)"><g
         clip-path="url(#clipPath4601)"
         id="g4599" /></g><g
       id="g4615"
       transform="scale(0.1,0.1)"><g
         clip-path="url(#clipPath4619)"
         id="g4617" /></g><g
       id="g4633"
       transform="scale(0.1,0.1)"><g
         clip-path="url(#clipPath4637)"
         id="g4635" /></g><g
       id="g4651"
       transform="scale(0.1,0.1)"><g
         clip-path="url(#clipPath4655)"
         id="g4653" /></g><g
       id="g4669"
       transform="scale(0.1,0.1)"><g
         clip-path="url(#clipPath4673)"
         id="g4671" /></g><g
       id="g4687"
       transform="scale(0.1,0.1)"><g
         clip-path="url(#clipPath4691)"
         id="g4689" /></g><g
       id="g4705"
       transform="scale(0.1,0.1)"><g
         clip-path="url(#clipPath4709)"
         id="g4707" /></g><g
       id="g4723"
       transform="scale(0.1,0.1)"><g
         clip-path="url(#clipPath4727)"
         id="g4725" /></g><g
       id="g4741"
       transform="scale(0.1,0.1)"><g
         clip-path="url(#clipPath4745)"
         id="g4743" /></g><g
       id="g4759"
       transform="scale(0.1,0.1)"><g
         clip-path="url(#clipPath4763)"
         id="g4761" /></g><g
       id="g4777"
       transform="scale(0.1,0.1)"><g
         clip-path="url(#clipPath4781)"
         id="g4779" /></g><g
       id="g4795"
       transform="scale(0.1,0.1)"><g
         clip-path="url(#clipPath4799)"
         id="g4797" /></g><g
       id="g4813"
       transform="scale(0.1,0.1)"><g
         clip-path="url(#clipPath4817)"
         id="g4815" /></g><g
       id="g4835"
       transform="scale(0.1,0.1)"><g
         clip-path="url(#clipPath4839)"
         id="g4837" /></g><g
       id="g4853"
       transform="scale(0.1,0.1)"><g
         clip-path="url(#clipPath4857)"
         id="g4855" /></g><g
       id="g4871"
       transform="scale(0.1,0.1)"><g
         clip-path="url(#clipPath4875)"
         id="g4873" /></g><g
       id="g4889"
       transform="scale(0.1,0.1)"><g
         clip-path="url(#clipPath4893)"
         id="g4891" /></g><g
       id="g4907"
       transform="scale(0.1,0.1)"><g
         clip-path="url(#clipPath4911)"
         id="g4909" /></g><g
       id="g4925"
       transform="scale(0.1,0.1)"><g
         clip-path="url(#clipPath4929)"
         id="g4927" /></g><g
       id="g4943"
       transform="scale(0.1,0.1)"><g
         clip-path="url(#clipPath4947)"
         id="g4945" /></g><g
       id="g4961"
       transform="scale(0.1,0.1)"><g
         clip-path="url(#clipPath4965)"
         id="g4963" /></g><g
       id="g4979"
       transform="scale(0.1,0.1)"><g
         clip-path="url(#clipPath4983)"
         id="g4981" /></g><g
       id="g4997"
       transform="scale(0.1,0.1)"><g
         clip-path="url(#clipPath5001)"
         id="g4999" /></g><g
       id="g5015"
       transform="scale(0.1,0.1)"><g
         clip-path="url(#clipPath5019)"
         id="g5017" /></g><g
       id="g5033"
       transform="scale(0.1,0.1)"><g
         clip-path="url(#clipPath5037)"
         id="g5035" /></g><g
       id="g5051"
       transform="scale(0.1,0.1)"><g
         clip-path="url(#clipPath5055)"
         id="g5053" /></g><g
       id="g5073"
       transform="scale(0.1,0.1)"><g
         clip-path="url(#clipPath5077)"
         id="g5075" /></g><g
       id="g5095"
       transform="scale(0.1,0.1)"><g
         clip-path="url(#clipPath5099)"
         id="g5097" /></g><g
       id="g5113"
       transform="scale(0.1,0.1)"><g
         clip-path="url(#clipPath5117)"
         id="g5115" /></g><g
       id="g5131"
       transform="scale(0.1,0.1)"><g
         clip-path="url(#clipPath5135)"
         id="g5133" /></g><g
       id="g5149"
       transform="scale(0.1,0.1)"><g
         clip-path="url(#clipPath5153)"
         id="g5151" /></g><g
       id="g5167"
       transform="scale(0.1,0.1)"><g
         clip-path="url(#clipPath5171)"
         id="g5169" /></g><g
       id="g5185"
       transform="scale(0.1,0.1)"><g
         clip-path="url(#clipPath5189)"
         id="g5187" /></g><g
       id="g5203"
       transform="scale(0.1,0.1)"><g
         clip-path="url(#clipPath5207)"
         id="g5205" /></g><g
       id="g5221"
       transform="scale(0.1,0.1)"><g
         clip-path="url(#clipPath5225)"
         id="g5223" /></g><g
       id="g5239"
       transform="scale(0.1,0.1)"><g
         clip-path="url(#clipPath5243)"
         id="g5241" /></g><g
       id="g5257"
       transform="scale(0.1,0.1)"><g
         clip-path="url(#clipPath5261)"
         id="g5259" /></g><g
       id="g5275"
       transform="scale(0.1,0.1)"><g
         clip-path="url(#clipPath5279)"
         id="g5277" /></g><g
       id="g5297"
       transform="scale(0.1,0.1)"><g
         clip-path="url(#clipPath5301)"
         id="g5299" /></g><g
       id="g5315"
       transform="scale(0.1,0.1)"><g
         clip-path="url(#clipPath5319)"
         id="g5317" /></g><g
       id="g5333"
       transform="scale(0.1,0.1)"><g
         clip-path="url(#clipPath5337)"
         id="g5335" /></g><g
       id="g5351"
       transform="scale(0.1,0.1)"><g
         clip-path="url(#clipPath5355)"
         id="g5353" /></g><path
       style="opacity:1;fill:#00665d;fill-opacity:0.95675677;stroke:#04655d;stroke-width:0.52972275;stroke-linejoin:miter;stroke-miterlimit:4;stroke-dasharray:none;stroke-opacity:1"
       d="m 0.81131295,14.591372 c 0,4.185878 0.12569528,4.389727 5.71421025,9.267184 7.9418748,6.931389 12.1382158,9.578028 23.7062488,14.95156 2.652149,1.231966 3.011545,1.492556 3.011545,2.183639 0,0.909484 -1.112449,3.982384 -2.265331,6.257487 -0.736062,1.452545 -0.960567,1.638442 -2.869852,2.376305 -4.382278,1.693588 -6.388421,3.991354 -8.380262,9.598474 -0.764524,2.152166 -0.776409,2.335728 -0.924127,14.272158 -0.14308,11.561739 -0.120069,12.232153 0.52478,15.289373 2.076215,9.84331 5.917554,22.884598 7.947279,26.980888 1.202861,2.42756 3.07396,4.54044 4.819601,5.4424 0.642762,0.3321 2.238029,1.01561 3.545032,1.51889 l 2.376371,0.91506 14.215351,-0.0104 c 16.829207,-0.0123 19.825055,-0.21114 22.575569,-1.49826 2.411104,-1.12829 4.586973,-3.09858 5.574914,-5.04819 0.413932,-0.81686 1.941767,-5.75673 3.395184,-10.97751 5.822371,-20.914299 8.73572,-27.818334 13.924219,-32.997502 4.474205,-4.46616 7.899885,-6.331092 15.805275,-8.604339 1.97774,-0.568713 5.19433,-1.344357 7.14797,-1.723649 2.32223,-0.45086 3.76596,-0.891943 4.16983,-1.273952 0.57226,-0.541294 0.6254,-1.059638 0.72164,-7.039023 0.10127,-6.291771 0.0863,-6.478451 -0.59154,-7.395338 -0.45398,-0.614031 -0.74464,-1.533813 -0.83712,-2.649021 l -0.14168,-1.708385 5.59802,0 c 4.7701,0 5.59802,-0.06853 5.59802,-0.463316 0,-0.401869 -1.30057,-0.464805 -9.80682,-0.474568 C 110.63759,41.764531 90.222868,41.262782 87.628479,40.854029 82.585282,40.059456 73.803953,36.456438 70.145057,33.680511 66.541744,30.946748 61.569705,25.343287 59.117314,21.252312 c -1.295505,-2.161106 -4.074598,-7.779774 -4.328776,-8.75175 -0.171037,-0.65407 -0.296014,-0.668974 -5.609193,-0.668974 -2.988838,0 -5.434251,0.09163 -5.434251,0.203637 0,0.530759 3.975195,7.697261 5.758217,10.380952 2.372657,3.571164 6.388155,7.886892 9.86238,10.599762 2.28581,1.784893 7.106545,4.850375 11.174101,7.105566 0.891708,0.49439 1.621427,1.003141 1.6216,1.130552 6.19e-4,0.397357 -8.297713,0.247746 -12.509172,-0.225526 C 51.850114,40.14974 43.739493,38.437385 38.339761,36.526935 28.228485,32.949518 16.312529,23.815414 9.7176005,14.586788 l -1.9565863,-2.737953 -3.4748573,-0.0085 -3.47485771,-0.0085 0,2.759779 z M 122.84394,55.260661 c 0.25254,0.304274 0.45945,1.602054 0.53657,3.365313 l 0.12552,2.870045 -0.88483,0.176627 c -0.48666,0.09714 -1.7883,0.329789 -2.89254,0.516995 -5.67886,0.96275 -13.09696,3.248029 -16.83375,5.185946 -3.979952,2.064024 -10.374434,9.40063 -12.643405,14.506215 -0.772067,1.737284 -1.489706,1.636848 -1.773667,-0.248241 -0.114814,-0.762244 -0.219056,-4.882118 -0.231666,-9.155277 l -0.02285,-7.769383 2.415245,-1.549313 c 7.027933,-4.508231 11.880833,-6.254819 20.719973,-7.457231 7.86624,-1.070067 10.86813,-1.185514 11.48544,-0.441707 z m -90.350964,6.575773 c 4.38764,1.992822 4.907766,7.76931 0.985036,10.939803 -2.242459,1.812436 -6.430708,1.447363 -8.399794,-0.732183 -2.91308,-3.22443 -1.974825,-8.48777 1.820359,-10.211682 1.598673,-0.726174 3.99044,-0.72444 5.594399,0.0041 l 0,1.7e-5 z m 43.010926,0.423059 c 3.59546,2.379363 3.592527,8.271096 -0.0052,10.652029 -1.119779,0.74104 -1.586206,0.849756 -3.645744,0.849756 -2.059536,0 -2.525965,-0.10873 -3.645749,-0.849756 -1.753546,-1.16044 -2.593249,-2.897049 -2.645183,-5.470559 -0.03758,-1.863088 0.04942,-2.158998 1.040037,-3.536219 1.546301,-2.149804 2.725797,-2.712102 5.433194,-2.590146 1.767573,0.07963 2.436652,0.261871 3.468759,0.944895 z M 49.529281,93.452137 c 0.165008,0.212365 0.609788,3.776599 0.988364,7.920553 0.567654,6.21359 0.616446,7.58003 0.278314,7.7944 -0.225499,0.14295 -5.626534,0.26206 -12.002282,0.26466 l -11.592271,0.005 -1.191467,-4.40149 C 23.007465,93.943341 22.993183,93.875557 23.569542,93.452142 c 0.400113,-0.293938 3.525189,-0.386095 13.092627,-0.386095 9.687718,0 12.635818,0.08846 12.867112,0.386095 z m 27.751427,-0.149699 c 0.182271,0.124809 0.41731,0.460157 0.522303,0.745216 0.196864,0.534463 -0.108206,5.403687 -0.736728,11.759546 l -0.358898,3.62929 -11.655738,0 c -8.950183,0 -11.729065,-0.0896 -11.971648,-0.38609 -0.275769,-0.33704 -1.612985,-12.895214 -1.612985,-15.148042 l 0,-0.836306 12.741144,0.0047 c 7.007629,0.0026 12.890276,0.106857 13.07255,0.231666 z m -22.82226,18.316752 c 1.106552,0.41926 2.184279,1.42144 2.801234,2.60487 0.657566,1.26133 0.644361,4.06921 -0.02505,5.32944 -1.332073,2.50766 -5.287388,3.60875 -7.774435,2.16425 -2.562348,-1.48823 -3.568306,-5.27886 -2.052002,-7.7323 1.394749,-2.25675 4.546984,-3.31472 7.050253,-2.36626 z"
       id="path4539"
       inkscape:connector-curvature="0" /></g></svg>